<?xml version="1.0" standalone="no"?>
<!DOCTYPE svg PUBLIC "-//W3C//DTD SVG 20010904//EN"
 "http://www.w3.org/TR/2001/REC-SVG-20010904/DTD/svg10.dtd">
<svg version="1.0" xmlns="http://www.w3.org/2000/svg"
 width="700.000000pt" height="700.000000pt" viewBox="0 0 700.000000 700.000000"
 preserveAspectRatio="xMidYMid meet">
<metadata>
Created by potrace 1.14, written by Peter Selinger 2001-2017
</metadata>
<g transform="translate(0.000000,700.000000) scale(0.100000,-0.100000)"
fill="#000000" stroke="none">
<path d="M3260 6708 c-735 -71 -1373 -341 -1895 -803 -131 -116 -336 -336
-417 -450 -4 -5 -18 -23 -31 -40 -93 -117 -242 -368 -328 -549 -79 -168 -170
-422 -206 -576 -22 -95 -23 -98 -28 -122 -2 -12 -7 -40 -11 -62 -3 -22 -7 -43
-9 -47 -2 -3 -7 -30 -10 -59 -4 -30 -8 -57 -10 -60 -2 -3 -6 -43 -10 -90 -4
-47 -9 -101 -10 -120 -6 -54 -6 -370 -1 -415 3 -22 8 -69 11 -105 3 -36 7 -76
9 -90 3 -14 7 -47 11 -75 19 -158 71 -389 100 -445 15 -30 34 -47 36 -33 1 4
2 19 4 33 22 208 112 458 242 671 199 326 513 601 888 778 120 57 399 157 557
201 70 19 356 84 415 94 111 19 276 45 318 51 28 3 61 8 75 10 14 2 48 6 75
10 28 3 64 8 80 11 17 2 50 6 75 8 25 2 104 11 175 20 72 9 150 18 175 21 25
3 59 7 75 9 17 2 55 7 85 11 30 3 82 10 115 15 33 5 80 12 105 15 100 14 241
37 302 50 15 4 39 8 55 10 118 16 423 99 589 161 55 20 116 43 136 50 124 45
446 220 527 286 185 149 291 388 252 569 -24 111 -76 188 -197 290 -42 35 -90
76 -107 91 -38 33 -94 61 -106 54 -11 -7 1 -65 24 -120 29 -70 19 -217 -22
-306 -93 -199 -312 -364 -623 -467 -58 -19 -112 -36 -120 -38 -8 -2 -70 -17
-137 -34 -68 -16 -180 -39 -250 -51 -71 -12 -139 -23 -153 -26 -14 -2 -45 -6
-70 -9 -25 -3 -56 -8 -70 -10 -14 -3 -43 -7 -65 -9 -22 -3 -69 -8 -105 -11
-36 -4 -72 -9 -80 -10 -8 -2 -53 -6 -99 -10 -47 -4 -92 -8 -100 -10 -9 -1 -52
-6 -96 -9 -44 -4 -91 -9 -105 -11 -14 -2 -56 -6 -95 -10 -65 -5 -146 -14 -205
-20 -14 -2 -52 -6 -85 -10 -33 -3 -71 -8 -85 -10 -14 -2 -72 -11 -130 -20
-122 -18 -157 -23 -186 -30 -23 -5 -120 -18 -146 -19 -33 -2 -20 19 28 44 40
22 151 71 249 111 82 33 474 146 575 165 44 9 413 104 461 120 25 8 54 16 65
18 23 5 211 71 268 94 76 31 281 138 335 175 269 185 359 312 359 503 0 142
-58 281 -161 386 -89 90 -153 121 -382 183 -44 11 -72 18 -185 40 -23 5 -51 9
-215 31 -75 10 -408 11 -505 2z"/>
<path d="M6175 5168 c-218 -450 -734 -832 -1430 -1058 -165 -53 -408 -116
-555 -143 -26 -5 -193 -37 -221 -42 -15 -3 -31 -6 -124 -20 -16 -3 -48 -7 -70
-10 -22 -3 -47 -7 -55 -10 -8 -2 -42 -7 -75 -10 -32 -4 -62 -8 -65 -10 -3 -1
-36 -6 -75 -10 -38 -3 -79 -8 -90 -10 -11 -2 -42 -7 -70 -10 -66 -7 -201 -24
-245 -31 -19 -3 -55 -7 -80 -10 -25 -3 -52 -7 -60 -9 -8 -2 -37 -7 -65 -10
-27 -4 -57 -8 -65 -10 -8 -2 -31 -7 -50 -10 -93 -15 -295 -57 -380 -79 -52
-14 -106 -28 -120 -32 -184 -47 -415 -139 -585 -234 -210 -116 -428 -306 -542
-472 -110 -159 -185 -355 -210 -548 -10 -80 -9 -287 2 -365 33 -231 91 -400
210 -609 127 -225 424 -532 553 -571 21 -6 21 -3 -12 48 -117 183 -197 409
-225 637 -10 75 -7 305 4 370 55 330 190 579 415 764 232 190 490 312 853 401
75 19 156 37 179 40 24 4 45 8 49 10 3 2 21 7 40 10 19 3 45 7 59 10 14 3 39
7 55 9 17 3 71 12 121 20 49 9 103 18 120 20 16 2 45 6 64 10 19 3 51 8 70 11
19 2 46 7 60 10 13 2 42 7 64 11 22 3 43 7 46 9 3 2 30 6 60 10 30 4 58 9 61
11 3 2 19 6 35 8 50 10 75 15 92 20 9 3 28 7 42 10 14 3 84 19 155 36 305 72
592 151 870 240 88 28 169 54 180 57 27 8 -109 -103 -223 -183 -278 -194 -645
-360 -1192 -539 -146 -48 -332 -110 -415 -137 -663 -219 -1121 -694 -1171
-1216 -28 -290 47 -609 197 -834 52 -79 56 -84 129 -157 118 -117 250 -188
405 -215 17 -3 39 -8 50 -10 11 -2 45 -7 75 -11 30 -4 62 -9 71 -10 108 -20
583 -28 724 -12 130 15 200 25 285 42 14 3 38 8 53 10 148 27 424 114 597 187
145 62 401 193 408 211 2 4 8 7 13 7 13 0 175 109 274 184 471 358 846 859
1053 1406 78 205 108 309 158 545 4 17 11 62 29 175 2 14 7 54 10 90 3 36 8
83 11 105 5 49 6 443 0 470 -2 11 -7 56 -10 100 -4 44 -9 87 -11 95 -2 8 -6
36 -9 61 -3 25 -10 66 -15 90 -5 24 -13 60 -16 79 -43 246 -201 669 -342 912
-33 58 -95 158 -97 158 -1 0 -14 -28 -31 -62z"/>
</g>
</svg>
