<svg width="81" height="229" viewBox="0 0 81 229" fill="none" xmlns="http://www.w3.org/2000/svg">
<path d="M40.5459 229C-14.2751 204.695 -2.90263 158.151 13.6167 138.004C30.6866 117.186 44.9695 113.828 52.3863 94.3534C59.8031 74.8783 55.0833 63.4619 45.6438 53.3886C38.7214 46.0015 31.4844 28.8768 37.2156 18.8035C42.9468 8.73019 49.3521 9.73753 51.7121 -2.26041e-06C55.2023 6.63641 41.7568 18.2679 46.9923 29.8842C52.2284 41.5018 65.5342 48.0161 74.9738 65.4765C84.4134 82.9369 84.2107 117.395 63.8486 139.348C43.4865 161.3 33.2876 170.053 40.5459 173.933" fill="url(#paint0_radial_128_553)"/>
<defs>
<radialGradient id="paint0_radial_128_553" cx="0" cy="0" r="1" gradientUnits="userSpaceOnUse" gradientTransform="translate(-23.899 203.263) rotate(-57.8731) scale(215.84 283.652)">
<stop stop-color="#CA72B7"/>
<stop offset="0.237847" stop-color="#914680"/>
<stop offset="1" stop-color="#3F2660"/>
</radialGradient>
</defs>
</svg>
