<svg width="374" height="295" viewBox="0 0 374 295" fill="none" xmlns="http://www.w3.org/2000/svg">
<path d="M0.230454 282.683C123.751 316.507 205.563 269.024 216.413 213.282C227.263 157.54 182.932 116.566 234.063 67.0101C285.194 17.4538 320.541 61.5109 338.559 68.5369C356.576 75.5629 376.881 59.7397 372.564 37.9509C370.765 28.9742 369.277 28.1507 369.39 22.7105C362.624 31.0218 365.495 35.4472 365.173 43.7951C364.852 52.1431 352.771 61.6813 337.519 40.655C322.266 19.6287 288.521 -7.84104 243.273 2.67898C189.369 15.2155 136.568 62.1849 140.804 125.903C145.041 189.622 116.498 200.826 74.0007 192.061" fill="url(#paint0_radial_128_560)"/>
<defs>
<radialGradient id="paint0_radial_128_560" cx="0" cy="0" r="1" gradientUnits="userSpaceOnUse" gradientTransform="translate(213.47 260.22) rotate(-78.0751) scale(389.088 512.672)">
<stop stop-color="#CA72B7"/>
<stop offset="0.237847" stop-color="#914680"/>
<stop offset="1" stop-color="#3F2660"/>
</radialGradient>
</defs>
</svg>
