<svg width="300" height="300" fill="none" xmlns="http://www.w3.org/2000/svg"><circle cx="150" cy="150" r="150" fill="url(#a)"/><path fill-rule="evenodd" clip-rule="evenodd" d="M146.488 225.527c41.712 0 75.527-33.815 75.527-75.527 0-41.713-33.815-75.527-75.527-75.527-41.713 0-75.527 33.814-75.527 75.527 0 41.712 33.814 75.527 75.527 75.527zm0 2.81c43.264 0 78.337-35.073 78.337-78.337 0-43.265-35.073-78.337-78.337-78.337-43.265 0-78.338 35.072-78.338 78.337 0 43.264 35.073 78.337 78.338 78.337z" fill="url(#b)" fill-opacity=".4"/><path fill-rule="evenodd" clip-rule="evenodd" d="M84.692 178.119c-7.608-2.079-14.527-7.195-20.002-14.594a54.781 54.781 0 0 1-5.086-8.397H74.33c2.425 10.372 6.055 18.507 10.362 22.991zm-10.978-25.802H58.31c-3.308-7.695-5.288-16.626-5.465-26.205h18.238c.085 9.487 1.029 18.402 2.63 26.205zm-28.265 0h9.814c-3.184-7.803-5.06-16.718-5.229-26.205H37.957a54.166 54.166 0 0 0 7.492 26.205zm11.04 2.811h-9.266c6.212 9.204 15.163 16.408 25.685 20.44-6.73-4.717-12.404-11.803-16.42-20.44zm35.9 26.839c-20.447 0-38.39-10.717-48.52-26.839h-.01v-.016c-5.531-8.811-8.73-19.234-8.73-30.405 0-10.82 3.001-20.939 8.217-29.57V94.8h.204c10.068-16.405 28.17-27.349 48.828-27.353h.01c31.625 0 57.261 25.636 57.261 57.26s-25.636 57.26-57.26 57.26zM46.88 94.8c6.223-9.45 15.31-16.847 26.027-20.954C66.046 78.657 60.28 85.93 56.253 94.8H46.88zm-1.731 2.81h9.906c-3.058 7.681-4.856 16.413-5.022 25.692H37.957a54.163 54.163 0 0 1 7.193-25.691zm12.942 0c-3.176 7.579-5.074 16.325-5.247 25.692h18.238c.083-9.279.988-18.011 2.526-25.691H58.092zm1.262-2.81h14.857c2.425-10.617 6.103-18.947 10.48-23.504-7.607 2.078-14.526 7.194-20.001 14.594-1.994 2.694-3.785 5.68-5.336 8.91zm17.123 2.81c-1.564 7.601-2.498 16.341-2.584 25.692h17.09V97.611H76.478zm14.507-2.81H77.096c.822-3.496 1.783-6.716 2.857-9.601 1.86-4.998 4.007-8.847 6.25-11.395 1.693-1.925 3.302-2.963 4.78-3.357V94.8zm2.81 2.81v25.692h17.09c-.085-9.351-1.02-18.091-2.583-25.691H93.794zm13.888-2.81H93.794V70.447c1.478.394 3.087 1.432 4.78 3.357 2.243 2.548 4.391 6.397 6.251 11.395 1.074 2.885 2.034 6.105 2.857 9.602zm3.486 2.81c1.539 7.681 2.443 16.413 2.526 25.692h18.239c-.173-9.367-2.071-18.113-5.247-25.691h-15.518zm14.256-2.81h-14.858c-2.425-10.617-6.103-18.947-10.48-23.504 7.607 2.078 14.527 7.194 20.002 14.594 1.994 2.694 3.785 5.68 5.336 8.91zm4.297 2.81c3.059 7.681 4.857 16.413 5.023 25.692h12.077a54.164 54.164 0 0 0-7.193-25.691h-9.907zm8.176-2.81h-9.372c-4.027-8.87-9.793-16.143-16.655-20.954 10.716 4.107 19.804 11.504 26.027 20.954zm-57.944 69.416c-1.022-2.744-1.94-5.79-2.735-9.088h13.766v23.84c-1.479-.395-3.088-1.433-4.781-3.357-2.243-2.548-4.39-6.397-6.25-11.395zm13.841 14.752v-23.84h13.765c-.794 3.298-1.713 6.344-2.734 9.088-1.86 4.998-4.008 8.847-6.25 11.395-1.694 1.924-3.303 2.962-4.781 3.357zm0-26.651h14.4c1.628-7.719 2.603-16.643 2.69-26.205h-17.09v26.205zm6.292 25.802c4.307-4.483 7.936-12.619 10.362-22.991h14.726a54.82 54.82 0 0 1-5.086 8.397c-5.475 7.399-12.395 12.515-20.002 14.594zm10.978-25.802h15.404c3.307-7.695 5.288-16.626 5.465-26.205h-18.239c-.085 9.487-1.028 18.402-2.63 26.205zm.806 23.251c6.729-4.717 12.404-11.803 16.419-20.44h9.266c-6.212 9.204-15.163 16.408-25.685 20.44zm17.644-23.251h9.815a54.16 54.16 0 0 0 7.492-26.205h-12.077c-.169 9.487-2.046 18.402-5.23 26.205zm-52.93 0h14.4v-26.205h-17.09c.087 9.562 1.062 18.486 2.69 26.205z" fill="url(#c)" fill-opacity=".7"/><path fill-rule="evenodd" clip-rule="evenodd" d="M79.391 223.419c-10.089 0-18.267-8.021-18.267-17.915 0-8.884 6.592-16.257 15.24-17.671 1.59-.26 2.996-1.216 4.002-2.475a10.91 10.91 0 0 1 4.984-3.51c1.843-.63 3.519-1.931 4.11-3.786 4.477-14.034 17.621-24.198 33.139-24.198 14.293 0 26.572 8.622 31.92 20.948.636 1.467 1.958 2.528 3.51 2.911 10.114 2.494 17.615 11.627 17.615 22.511 0 12.805-10.38 23.185-23.185 23.185H79.391z" fill="url(#d)" fill-opacity=".3"/><path fill-rule="evenodd" clip-rule="evenodd" d="M65.34 205.504c0 7.489 6.213 13.7 14.051 13.7h73.068c10.477 0 18.969-8.493 18.969-18.97 0-8.9-6.132-16.378-14.408-18.418-2.745-.677-5.175-2.575-6.368-5.326-4.704-10.841-15.499-18.41-28.053-18.41-13.63 0-25.187 8.926-29.123 21.263-1.129 3.54-4.133 5.595-6.761 6.494a6.695 6.695 0 0 0-3.056 2.154c-1.516 1.895-3.79 3.54-6.614 4.002-6.703 1.096-11.706 6.785-11.706 13.511zm-4.216 0c0 9.894 8.178 17.915 18.267 17.915h73.068c12.805 0 23.185-10.38 23.185-23.185 0-10.884-7.501-20.017-17.615-22.511-1.552-.383-2.874-1.444-3.51-2.911-5.348-12.326-17.627-20.948-31.92-20.948-15.518 0-28.662 10.164-33.139 24.198-.591 1.855-2.267 3.156-4.11 3.786a10.91 10.91 0 0 0-4.984 3.51c-1.006 1.259-2.412 2.215-4.002 2.475-8.648 1.414-15.24 8.787-15.24 17.671z" fill="url(#e)"/><path fill-rule="evenodd" clip-rule="evenodd" d="M79.057 191.803c-8.053 0-14.42 6.222-14.42 13.701s6.367 13.7 14.42 13.7a2.107 2.107 0 1 1 0 4.215c-10.203 0-18.635-7.933-18.635-17.915s8.432-17.916 18.635-17.916c4.298 0 8.27 1.402 11.433 3.766a2.109 2.109 0 0 1-2.525 3.376c-2.446-1.829-5.535-2.927-8.908-2.927z" fill="url(#f)"/><path fill-rule="evenodd" clip-rule="evenodd" d="M122.6 158.08c-16.879 0-30.562 13.683-30.562 30.562s13.683 30.562 30.562 30.562a2.108 2.108 0 0 1 0 4.215c-19.207 0-34.778-15.57-34.778-34.777s15.571-34.778 34.778-34.778 34.777 15.571 34.777 34.778a2.107 2.107 0 1 1-4.215 0c0-16.879-13.683-30.562-30.562-30.562z" fill="url(#g)"/><path fill-rule="evenodd" clip-rule="evenodd" d="M113.817 71.663h53.396l-23.185 21.68v31.013l-7.728-8.987V93.246l-22.483-21.583z" fill="url(#h)"/><path d="M246.604 123.302c0 27.356-22.176 49.532-49.531 49.532-27.356 0-49.532-22.176-49.532-49.532 0-27.355 22.176-49.532 49.532-49.532 27.355 0 49.531 22.177 49.531 49.532z" fill="url(#i)" fill-opacity=".3"/><path fill-rule="evenodd" clip-rule="evenodd" d="M197.073 168.618c25.027 0 45.316-20.288 45.316-45.316 0-25.027-20.289-45.316-45.316-45.316-25.028 0-45.317 20.289-45.317 45.316 0 25.028 20.289 45.316 45.317 45.316zm0 4.216c27.355 0 49.531-22.176 49.531-49.532 0-27.355-22.176-49.532-49.531-49.532-27.356 0-49.532 22.177-49.532 49.532 0 27.356 22.176 49.532 49.532 49.532z" fill="url(#j)"/><path d="M191.803 90.984a5.27 5.27 0 0 1 10.539 0v32.318a5.269 5.269 0 1 1-10.539 0V90.984z" fill="url(#k)" fill-opacity=".3"/><path fill-rule="evenodd" clip-rule="evenodd" d="M189.695 90.984a7.377 7.377 0 0 1 14.754 0v32.318a7.377 7.377 0 1 1-14.754 0V90.983zm7.377-3.162a3.161 3.161 0 0 0-3.161 3.162v32.318a3.162 3.162 0 1 0 6.323 0V90.983a3.162 3.162 0 0 0-3.162-3.161z" fill="url(#l)"/><path d="M193.421 127.103a5.269 5.269 0 1 1 7.452-7.452l22.853 22.853a5.269 5.269 0 1 1-7.452 7.452l-22.853-22.853z" fill="url(#m)" fill-opacity=".3"/><path fill-rule="evenodd" clip-rule="evenodd" d="M191.931 128.593a7.377 7.377 0 0 1 10.433-10.432l22.853 22.852a7.377 7.377 0 1 1-10.433 10.433l-22.853-22.853zm2.981-7.452a3.162 3.162 0 0 0 0 4.472l22.853 22.852a3.16 3.16 0 1 0 4.471-4.471l-22.853-22.853a3.163 3.163 0 0 0-4.471 0z" fill="url(#n)"/><path d="M208.665 123.302c0 6.403-5.19 11.593-11.592 11.593s-11.593-5.19-11.593-11.593c0-6.402 5.191-11.592 11.593-11.592s11.592 5.19 11.592 11.592z" fill="#272531"/><path fill-rule="evenodd" clip-rule="evenodd" d="M197.073 130.679a7.377 7.377 0 1 0 0-14.755 7.377 7.377 0 0 0 0 14.755zm0 4.216c6.402 0 11.592-5.19 11.592-11.593 0-6.402-5.19-11.592-11.592-11.592s-11.593 5.19-11.593 11.592c0 6.403 5.191 11.593 11.593 11.593z" fill="url(#o)"/><path d="M196.338 238.212c4.547 2.625 10.272 1.109 12.957-3.541l-16.499-9.525c-2.685 4.649-1.135 10.366 3.542 13.066zm39.042-3.118c-.903-4.137-3.398-10.916 4.283-24.219 5.741-9.945 3.349-22.003-5.071-29.62l1.566-2.712c1.267-2.196.567-5.183-1.641-6.458-2.339-1.35-5.276-.463-6.544 1.732l-1.566 2.713c-10.806-3.484-22.445.473-28.186 10.418-7.681 13.303-14.799 14.532-18.834 15.819-1.226.325-2.213 1.133-2.605 2.112-1.267 2.196-.827 5.033 1.771 6.533l49.757 28.727c2.598 1.5 5.275.463 6.673-1.658.522-.904.729-2.162.397-3.387z" fill="url(#p)"/><defs><linearGradient id="c" x1="59.719" y1="90.281" x2="139.813" y2="186.885" gradientUnits="userSpaceOnUse"><stop stop-color="#CA72B7"/><stop offset=".43" stop-color="#914680"/><stop offset="1" stop-color="#3F2660"/></linearGradient><linearGradient id="e" x1="61.126" y1="188.901" x2="192.59" y2="188.929" gradientUnits="userSpaceOnUse"><stop offset=".498" stop-color="#B361A1"/><stop offset="1" stop-color="#4D2B65"/></linearGradient><linearGradient id="f" x1="62.53" y1="205.622" x2="100.475" y2="205.627" gradientUnits="userSpaceOnUse"><stop offset=".498" stop-color="#B361A1"/><stop offset="1" stop-color="#4D2B65"/></linearGradient><linearGradient id="g" x1="89.931" y1="188.886" x2="164.938" y2="188.895" gradientUnits="userSpaceOnUse"><stop offset=".498" stop-color="#B361A1"/><stop offset="1" stop-color="#4D2B65"/></linearGradient><linearGradient id="b" x1="104.976" y1="110.496" x2="256.963" y2="188.164" gradientUnits="userSpaceOnUse"><stop stop-color="#CE88BF"/><stop offset=".259" stop-color="#B361A1"/><stop offset="1" stop-color="#4D2B65"/></linearGradient><linearGradient id="j" x1="147.543" y1="123.672" x2="261.263" y2="123.686" gradientUnits="userSpaceOnUse"><stop offset=".498" stop-color="#B361A1"/><stop offset="1" stop-color="#4D2B65"/></linearGradient><linearGradient id="l" x1="175.293" y1="88.876" x2="206.259" y2="111.989" gradientUnits="userSpaceOnUse"><stop offset=".498" stop-color="#B361A1"/><stop offset="1" stop-color="#4D2B65"/></linearGradient><linearGradient id="n" x1="176.698" y1="110.305" x2="227.731" y2="151.989" gradientUnits="userSpaceOnUse"><stop offset=".498" stop-color="#B361A1"/><stop offset="1" stop-color="#4D2B65"/></linearGradient><linearGradient id="o" x1="185.481" y1="123.389" x2="212.096" y2="123.392" gradientUnits="userSpaceOnUse"><stop offset=".498" stop-color="#B361A1"/><stop offset="1" stop-color="#4D2B65"/></linearGradient><radialGradient id="i" cx="0" cy="0" r="1" gradientUnits="userSpaceOnUse" gradientTransform="matrix(129.38634 66.57578 -234.93185 456.57702 133.27 86.574)"><stop stop-color="#CA72B7"/><stop offset=".378" stop-color="#914680"/><stop offset="1" stop-color="#3F2660"/></radialGradient><radialGradient id="k" cx="0" cy="0" r="1" gradientUnits="userSpaceOnUse" gradientTransform="rotate(64.457 22.769 196.544) scale(31.9224 107.721)"><stop stop-color="#CA72B7"/><stop offset=".378" stop-color="#914680"/><stop offset="1" stop-color="#3F2660"/></radialGradient><radialGradient id="h" cx="0" cy="0" r="1" gradientUnits="userSpaceOnUse" gradientTransform="matrix(42.5023 57.60428 -89.14272 65.77237 132.494 69.485)"><stop stop-color="#CA72B7"/><stop offset=".238" stop-color="#914680"/><stop offset="1" stop-color="#3F2660"/></radialGradient><radialGradient id="m" cx="0" cy="0" r="1" gradientUnits="userSpaceOnUse" gradientTransform="matrix(30.09935 10.63338 -35.88197 101.56918 192.538 128.367)"><stop stop-color="#CA72B7"/><stop offset=".378" stop-color="#914680"/><stop offset="1" stop-color="#3F2660"/></radialGradient><radialGradient id="d" cx="0" cy="0" r="1" gradientUnits="userSpaceOnUse" gradientTransform="rotate(17.355 -511.216 227.63) scale(156.709 386.993)"><stop stop-color="#CA72B7"/><stop offset=".378" stop-color="#914680"/><stop offset="1" stop-color="#3F2660"/></radialGradient><radialGradient id="a" cx="0" cy="0" r="1" gradientUnits="userSpaceOnUse" gradientTransform="rotate(90 0 150) scale(150)"><stop stop-color="#1D1B24"/><stop offset="1" stop-color="#312E3E" stop-opacity="0"/></radialGradient><radialGradient id="p" cx="0" cy="0" r="1" gradientUnits="userSpaceOnUse" gradientTransform="matrix(27.33315 102.40394 -369.33785 98.58181 196.122 176.214)"><stop stop-color="#CA72B7"/><stop offset=".43" stop-color="#914680"/><stop offset="1" stop-color="#3F2660"/></radialGradient></defs></svg>