<svg width="300" height="300" viewBox="0 0 300 300" fill="none" xmlns="http://www.w3.org/2000/svg">
<circle cx="150" cy="150" r="150" fill="url(#paint0_radial_48_2808)"/>
<path fill-rule="evenodd" clip-rule="evenodd" d="M150.5 235.202C191.767 235.202 225.22 201.533 225.22 160C225.22 118.467 191.767 84.7982 150.5 84.7982C109.233 84.7982 75.7803 118.467 75.7803 160C75.7803 201.533 109.233 235.202 150.5 235.202ZM150.5 238C193.302 238 228 203.078 228 160C228 116.922 193.302 82 150.5 82C107.698 82 73 116.922 73 160C73 203.078 107.698 238 150.5 238Z" fill="url(#paint1_linear_48_2808)" fill-opacity="0.4"/>
<path fill-rule="evenodd" clip-rule="evenodd" d="M51 110.086C51 102.307 57.366 96 65.2188 96H127.781C135.634 96 142 102.307 142 110.086V212.914C142 220.693 135.634 227 127.781 227H65.2188C57.366 227 51 220.693 51 212.914V110.086ZM75.8828 124.172C75.8828 122.227 77.4743 120.651 79.4375 120.651H106.453C108.416 120.651 110.008 122.227 110.008 124.172V126.989C110.008 128.934 108.416 130.511 106.453 130.511H79.4375C77.4743 130.511 75.8828 128.934 75.8828 126.989V124.172ZM79.4375 137.554C77.4743 137.554 75.8828 139.13 75.8828 141.075V143.892C75.8828 145.837 77.4743 147.414 79.4375 147.414H92.2344C94.1976 147.414 95.7891 145.837 95.7891 143.892V141.075C95.7891 139.13 94.1976 137.554 92.2344 137.554H79.4375ZM97.2109 192.489C97.2109 190.544 98.8024 188.968 100.766 188.968H113.562C115.526 188.968 117.117 190.544 117.117 192.489V195.306C117.117 197.251 115.526 198.828 113.562 198.828H100.766C98.8024 198.828 97.2109 197.251 97.2109 195.306V192.489ZM79.4375 175.586C77.4743 175.586 75.8828 177.163 75.8828 179.108V181.925C75.8828 183.87 77.4743 185.446 79.4375 185.446H113.562C115.526 185.446 117.117 183.87 117.117 181.925V179.108C117.117 177.163 115.526 175.586 113.562 175.586H79.4375Z" fill="url(#paint2_radial_48_2808)" fill-opacity="0.5"/>
<path fill-rule="evenodd" clip-rule="evenodd" d="M120.25 113.765H73.75C71.0262 113.765 68.8182 115.931 68.8182 118.603V150.397C68.8182 153.069 71.0262 155.235 73.75 155.235H120.25C122.974 155.235 125.182 153.069 125.182 150.397V118.603C125.182 115.931 122.974 113.765 120.25 113.765ZM73.75 111C69.4698 111 66 114.404 66 118.603V150.397C66 154.596 69.4698 158 73.75 158H120.25C124.53 158 128 154.596 128 150.397V118.603C128 114.404 124.53 111 120.25 111H73.75Z" fill="url(#paint3_linear_48_2808)"/>
<path fill-rule="evenodd" clip-rule="evenodd" d="M120.25 168.765H73.75C71.0262 168.765 68.8182 170.931 68.8182 173.603V205.397C68.8182 208.069 71.0262 210.235 73.75 210.235H120.25C122.974 210.235 125.182 208.069 125.182 205.397V173.603C125.182 170.931 122.974 168.765 120.25 168.765ZM73.75 166C69.4698 166 66 169.404 66 173.603V205.397C66 209.596 69.4698 213 73.75 213H120.25C124.53 213 128 209.596 128 205.397V173.603C128 169.404 124.53 166 120.25 166H73.75Z" fill="url(#paint4_linear_48_2808)"/>
<path fill-rule="evenodd" clip-rule="evenodd" d="M123 93.4035C123 92.6284 123.629 92 124.406 92C128.243 92 131.058 93.1676 133.314 94.9427C135.456 96.6281 137.06 98.8428 138.536 100.88C138.573 100.931 138.61 100.983 138.647 101.034C140.197 103.172 141.628 105.115 143.505 106.555C145.325 107.953 147.61 108.906 150.912 108.906C154.623 108.906 157.332 109.278 159.53 109.858C161.728 110.438 163.362 111.215 164.876 111.943L164.979 111.992C166.454 112.702 167.808 113.354 169.588 113.848C171.402 114.351 173.707 114.702 177.018 114.702C179.957 114.702 181.945 113.514 183.542 111.647C185.204 109.703 186.408 107.063 187.68 104.188C187.729 104.077 187.777 103.967 187.826 103.856C189.015 101.166 190.289 98.2818 192.076 96.0696C194.004 93.6832 196.588 92 200.311 92C204.361 92 206.954 94.977 208.766 98.5859C210.553 102.145 211.839 106.818 213.08 111.328L213.163 111.628C214.455 116.319 215.711 120.812 217.431 124.142C219.159 127.488 221.105 129.193 223.605 129.193C226.195 129.193 228.128 127.641 229.822 124.755C231.533 121.839 232.793 117.901 234.113 113.749L234.146 113.645C235.427 109.617 236.771 105.388 238.658 102.173C240.578 98.9013 243.264 96.3472 247.301 96.3472C251.5 96.3472 254.317 98.854 256.321 102.155C258.299 105.411 259.65 109.693 260.894 113.764C260.965 113.996 261.036 114.227 261.106 114.457C262.298 118.365 263.418 122.033 264.915 124.796C266.494 127.708 268.257 129.193 270.594 129.193C271.371 129.193 272 129.821 272 130.596C272 131.372 271.371 132 270.594 132C266.706 132 264.203 129.379 262.443 126.132C260.804 123.11 259.607 119.181 258.447 115.376C258.366 115.111 258.286 114.847 258.205 114.583C256.94 110.443 255.68 106.513 253.918 103.611C252.182 100.753 250.129 99.1542 247.301 99.1542C244.711 99.1542 242.778 100.706 241.083 103.592C239.372 106.508 238.113 110.446 236.793 114.598L236.759 114.703C235.479 118.731 234.135 122.959 232.248 126.174C230.327 129.446 227.642 132 223.605 132C219.479 132 216.806 129.056 214.932 125.428C213.05 121.785 211.721 116.979 210.452 112.372L210.42 112.256C209.139 107.602 207.914 103.152 206.252 99.8439C204.563 96.4792 202.688 94.807 200.311 94.807C197.608 94.807 195.775 95.9616 194.264 97.8319C192.716 99.7485 191.574 102.33 190.323 105.16L190.252 105.322C189.013 108.121 187.657 111.158 185.68 113.47C183.636 115.86 180.905 117.509 177.018 117.509C173.501 117.509 170.936 117.136 168.835 116.552C166.81 115.99 165.26 115.244 163.807 114.545C163.757 114.52 163.706 114.496 163.656 114.472C162.158 113.751 160.73 113.079 158.811 112.572C156.892 112.065 154.431 111.713 150.912 111.713C146.986 111.713 144.099 110.553 141.791 108.781C139.538 107.051 137.882 104.767 136.37 102.679L136.366 102.674C134.811 100.529 133.405 98.5882 131.574 97.1474C129.802 95.7527 127.596 94.807 124.406 94.807C123.629 94.807 123 94.1786 123 93.4035Z" fill="url(#paint5_linear_48_2808)" fill-opacity="0.5"/>
<path fill-rule="evenodd" clip-rule="evenodd" d="M206.312 223.13L257.813 199.7C257.814 199.7 257.814 199.699 257.815 199.699C257.922 199.65 258.014 199.571 258.078 199.47C258.144 199.368 258.179 199.249 258.179 199.128C258.179 199.006 258.144 198.887 258.078 198.786C258.014 198.685 257.922 198.606 257.815 198.556C257.814 198.556 257.814 198.556 257.813 198.556L206.312 175.125C204.801 174.437 203.16 174.082 201.5 174.082C199.84 174.082 198.199 174.437 196.688 175.125L145.179 198.559C145.072 198.608 144.98 198.687 144.915 198.788C144.85 198.888 144.815 199.007 144.815 199.128C144.815 199.249 144.85 199.367 144.915 199.468C144.98 199.569 145.072 199.647 145.179 199.696L145.183 199.698L196.688 223.13C198.199 223.818 199.84 224.174 201.5 224.174C203.16 224.174 204.801 223.818 206.312 223.13ZM258.986 202.255C259.585 201.981 260.093 201.541 260.45 200.986C260.806 200.432 260.995 199.787 260.995 199.128C260.995 198.469 260.806 197.824 260.45 197.269C260.093 196.715 259.585 196.274 258.986 196.001L207.481 172.568C205.603 171.714 203.564 171.272 201.5 171.272C199.437 171.272 197.397 171.714 195.519 172.568L144.015 196.001C143.414 196.273 142.904 196.713 142.546 197.267C142.188 197.822 141.998 198.468 141.998 199.128C141.998 199.788 142.188 200.434 142.546 200.988C142.904 201.543 143.414 201.982 144.015 202.255L195.519 225.687C197.397 226.542 199.437 226.984 201.5 226.984C203.564 226.984 205.603 226.542 207.481 225.687L258.986 202.255Z" fill="url(#paint6_linear_48_2808)"/>
<path d="M258.986 187.091L207.481 210.523C205.603 211.378 203.563 211.82 201.5 211.82C199.437 211.82 197.397 211.378 195.519 210.523L144.015 187.091C143.414 186.818 142.904 186.377 142.547 185.822C142.19 185.267 142 184.621 142 183.961C142 183.301 142.19 182.655 142.547 182.1C142.904 181.545 143.414 181.105 144.015 180.832L195.519 157.399C197.397 156.545 199.437 156.103 201.5 156.103C203.563 156.103 205.603 156.545 207.481 157.399L258.986 180.832C259.585 181.106 260.092 181.547 260.448 182.102C260.804 182.657 260.994 183.302 260.994 183.961C260.994 184.62 260.804 185.266 260.448 185.82C260.092 186.375 259.585 186.816 258.986 187.091Z" fill="url(#paint7_radial_48_2808)" fill-opacity="0.8"/>
<path fill-rule="evenodd" clip-rule="evenodd" d="M206.312 193.86L257.813 170.429C257.813 170.429 257.814 170.428 257.814 170.428C257.921 170.379 258.013 170.3 258.078 170.199C258.143 170.097 258.178 169.979 258.178 169.857C258.178 169.735 258.143 169.616 258.078 169.515C258.013 169.414 257.921 169.335 257.814 169.285C257.814 169.285 257.813 169.285 257.813 169.285L206.312 145.849C206.312 145.849 206.312 145.849 206.312 145.849C204.8 145.161 203.16 144.806 201.5 144.806C199.84 144.806 198.199 145.161 196.688 145.849C196.688 145.849 196.688 145.849 196.688 145.849L145.178 169.289C145.071 169.337 144.979 169.416 144.914 169.517C144.849 169.618 144.814 169.736 144.814 169.857C144.814 169.978 144.849 170.096 144.914 170.197C144.979 170.298 145.071 170.377 145.178 170.425L145.183 170.427L196.688 193.86C198.199 194.547 199.84 194.903 201.5 194.903C203.16 194.903 204.8 194.547 206.312 193.86ZM258.985 172.984C259.585 172.71 260.093 172.27 260.449 171.715C260.805 171.161 260.995 170.516 260.995 169.857C260.995 169.198 260.805 168.553 260.449 167.998C260.093 167.444 259.585 167.004 258.985 166.73L207.48 143.292C205.602 142.438 203.563 141.996 201.5 141.996C199.436 141.996 197.397 142.438 195.519 143.292L144.014 166.73C143.413 167.002 142.903 167.442 142.545 167.996C142.188 168.551 141.998 169.197 141.998 169.857C141.998 170.517 142.188 171.163 142.545 171.717C142.903 172.272 143.413 172.712 144.014 172.984L195.519 196.416C197.397 197.271 199.436 197.713 201.5 197.713C203.563 197.713 205.602 197.271 207.48 196.416L258.985 172.984Z" fill="url(#paint8_linear_48_2808)"/>
<path fill-rule="evenodd" clip-rule="evenodd" d="M159.5 148C181.868 148 200 129.644 200 107C200 84.3563 181.868 66 159.5 66C137.132 66 119 84.3563 119 107C119 129.644 137.132 148 159.5 148ZM159.5 137.903C142.641 137.903 128.973 124.067 128.973 107C128.973 89.9325 142.641 76.0966 159.5 76.0966C176.359 76.0966 190.027 89.9325 190.027 107C190.027 124.067 176.359 137.903 159.5 137.903Z" fill="url(#paint9_linear_48_2808)" fill-opacity="0.5"/>
<path fill-rule="evenodd" clip-rule="evenodd" d="M154.078 137.453C149.978 136.7 146.052 135.103 142.555 132.737C137.532 129.339 133.617 124.51 131.305 118.859C128.993 113.209 128.388 106.991 129.567 100.993C130.745 94.9945 133.654 89.4846 137.926 85.16C142.198 80.8354 147.641 77.8903 153.566 76.6971C159.491 75.504 165.633 76.1163 171.215 78.4568C176.796 80.7973 181.567 84.7607 184.923 89.8459C187.26 93.3864 188.838 97.3601 189.581 101.512C189.783 102.637 189.923 103.776 190 104.923C190.012 105.1 190.044 105.273 190.093 105.437C190.366 106.349 191.177 107.026 192.149 107.026H197.972C199.12 107.026 200.056 106.083 199.997 104.923C199.986 104.694 199.972 104.465 199.957 104.237C199.85 102.642 199.651 101.06 199.362 99.4965C198.361 94.0659 196.281 88.8696 193.221 84.233C188.768 77.4864 182.439 72.228 175.034 69.1229C167.629 66.0178 159.48 65.2053 151.619 66.7883C143.758 68.3713 136.537 72.2786 130.87 78.0161C125.202 83.7537 121.342 91.0637 119.779 99.0219C118.215 106.98 119.018 115.229 122.085 122.725C125.152 130.222 130.346 136.629 137.011 141.137C141.591 144.235 146.724 146.341 152.088 147.354C153.632 147.646 155.195 147.848 156.77 147.956C156.996 147.972 157.222 147.986 157.448 147.997C158.594 148.057 159.525 147.109 159.525 145.947V140.052C159.525 139.068 158.857 138.247 157.956 137.971C157.794 137.921 157.624 137.889 157.449 137.877C156.316 137.799 155.191 137.657 154.078 137.453Z" fill="url(#paint10_linear_48_2808)"/>
<path fill-rule="evenodd" clip-rule="evenodd" d="M191.139 130.307C189.463 134.077 186.989 137.317 182.981 137.317C179.337 137.317 176.763 135.514 174.813 133.043C172.985 130.728 171.609 127.705 170.315 124.861C170.265 124.751 170.215 124.642 170.166 124.533C168.787 121.507 167.476 118.699 165.757 116.628C164.092 114.622 162.124 113.402 159.379 113.402C153.738 113.402 151.297 117.243 148.473 121.955C148.419 122.046 148.365 122.137 148.31 122.228C145.652 126.669 142.531 131.882 135.414 131.882C134.633 131.882 134 131.251 134 130.472C134 129.693 134.633 129.062 135.414 129.062C140.858 129.062 143.204 125.252 146.047 120.508L146.098 120.422C148.801 115.912 151.995 110.581 159.379 110.581C163.17 110.581 165.877 112.35 167.934 114.829C169.937 117.242 171.395 120.413 172.739 123.366L172.815 123.532C174.171 126.509 175.422 129.256 177.034 131.298C178.624 133.311 180.452 134.497 182.981 134.497C185.147 134.497 186.939 132.8 188.554 129.164C190.133 125.611 191.263 120.818 192.406 115.844C192.446 115.672 192.485 115.5 192.525 115.327C193.611 110.598 194.726 105.742 196.281 102.037C197.844 98.3139 200.169 95 204.042 95C206.107 95 207.71 96.1839 208.925 97.8096C210.128 99.4208 211.086 101.632 211.895 104.13C213.484 109.04 214.633 115.517 215.762 121.885L215.828 122.254C216.991 128.809 218.143 135.219 219.732 139.992C220.528 142.383 221.397 144.246 222.354 145.488C223.297 146.711 224.198 147.179 225.102 147.179C227.352 147.179 229.064 145.804 230.592 143.134C232.133 140.444 233.269 136.805 234.464 132.954L234.496 132.85C235.652 129.123 236.869 125.197 238.581 122.208C240.32 119.171 242.784 116.741 246.526 116.741C250.129 116.741 252.694 118.13 254.627 120.188C256.493 122.175 257.757 124.779 258.879 127.153C258.939 127.279 258.998 127.404 259.057 127.529C260.149 129.842 261.123 131.905 262.418 133.451C263.712 134.995 265.267 135.946 267.586 135.946C268.367 135.946 269 136.578 269 137.357C269 138.136 268.367 138.767 267.586 138.767C264.277 138.767 261.974 137.318 260.25 135.261C258.709 133.423 257.588 131.042 256.548 128.835C256.473 128.674 256.397 128.514 256.322 128.356C255.175 125.928 254.079 123.73 252.564 122.117C251.115 120.574 249.277 119.562 246.526 119.562C244.276 119.562 242.564 120.938 241.036 123.607C239.495 126.298 238.359 129.937 237.165 133.788L237.132 133.891C235.976 137.619 234.759 141.545 233.047 144.533C231.308 147.571 228.844 150 225.102 150C223.011 150 221.37 148.838 220.113 147.207C218.87 145.596 217.881 143.382 217.049 140.881C215.381 135.871 214.195 129.235 213.044 122.746L213.003 122.518C211.854 116.039 210.733 109.72 209.204 104.997C208.43 102.603 207.586 100.737 206.658 99.4951C205.741 98.2672 204.881 97.8205 204.042 97.8205C202.104 97.8205 200.435 99.4437 198.889 103.126C197.43 106.603 196.362 111.251 195.247 116.101L195.162 116.474C194.036 121.373 192.85 126.455 191.139 130.307Z" fill="url(#paint11_linear_48_2808)"/>
<defs>
<radialGradient id="paint0_radial_48_2808" cx="0" cy="0" r="1" gradientUnits="userSpaceOnUse" gradientTransform="translate(150 150) rotate(90) scale(150)">
<stop stop-color="#1D1B24"/>
<stop offset="1" stop-color="#312E3E" stop-opacity="0"/>
</radialGradient>
<linearGradient id="paint1_linear_48_2808" x1="109.432" y1="120.667" x2="260.194" y2="197.214" gradientUnits="userSpaceOnUse">
<stop stop-color="#CE88BF"/>
<stop offset="0.25868" stop-color="#B361A1"/>
<stop offset="1" stop-color="#4D2B65"/>
</linearGradient>
<radialGradient id="paint2_radial_48_2808" cx="0" cy="0" r="1" gradientUnits="userSpaceOnUse" gradientTransform="translate(34.2172 84.6257) rotate(47.4533) scale(199.109 774.701)">
<stop stop-color="#CA72B7"/>
<stop offset="0.430152" stop-color="#914680"/>
<stop offset="1" stop-color="#3F2660"/>
</radialGradient>
<linearGradient id="paint3_linear_48_2808" x1="66.0011" y1="134.675" x2="137.175" y2="134.687" gradientUnits="userSpaceOnUse">
<stop offset="0.498067" stop-color="#B361A1"/>
<stop offset="1" stop-color="#4D2B65"/>
</linearGradient>
<linearGradient id="paint4_linear_48_2808" x1="66.0011" y1="189.675" x2="137.175" y2="189.687" gradientUnits="userSpaceOnUse">
<stop offset="0.498067" stop-color="#B361A1"/>
<stop offset="1" stop-color="#4D2B65"/>
</linearGradient>
<linearGradient id="paint5_linear_48_2808" x1="124.408" y1="111.005" x2="275.852" y2="111.005" gradientUnits="userSpaceOnUse">
<stop offset="0.284722" stop-color="#B361A1"/>
<stop offset="1" stop-color="#4D2B65"/>
</linearGradient>
<linearGradient id="paint6_linear_48_2808" x1="142" y1="199.336" x2="294.095" y2="198.899" gradientUnits="userSpaceOnUse">
<stop offset="0.337056" stop-color="#B361A1"/>
<stop offset="0.883918" stop-color="#4D2B65"/>
</linearGradient>
<radialGradient id="paint7_radial_48_2808" cx="0" cy="0" r="1" gradientUnits="userSpaceOnUse" gradientTransform="translate(142 177.078) rotate(5.22463) scale(129.324 183.448)">
<stop stop-color="#CA72B7"/>
<stop offset="0.430152" stop-color="#914680"/>
<stop offset="1" stop-color="#3F2660"/>
</radialGradient>
<linearGradient id="paint8_linear_48_2808" x1="142" y1="170.062" x2="278.604" y2="170.099" gradientUnits="userSpaceOnUse">
<stop offset="0.498067" stop-color="#B361A1"/>
<stop offset="1" stop-color="#4D2B65"/>
</linearGradient>
<linearGradient id="paint9_linear_48_2808" x1="78.1539" y1="38.3162" x2="215.484" y2="146.358" gradientUnits="userSpaceOnUse">
<stop stop-color="#B361A1"/>
<stop offset="1" stop-color="#4D2B65"/>
</linearGradient>
<linearGradient id="paint10_linear_48_2808" x1="138.05" y1="86.3375" x2="217.073" y2="126.227" gradientUnits="userSpaceOnUse">
<stop stop-color="#CE88BF"/>
<stop offset="0.25868" stop-color="#B361A1"/>
<stop offset="1" stop-color="#4D2B65"/>
</linearGradient>
<linearGradient id="paint11_linear_48_2808" x1="135.416" y1="122.695" x2="272.34" y2="122.695" gradientUnits="userSpaceOnUse">
<stop offset="0.284722" stop-color="#B361A1"/>
<stop offset="1" stop-color="#4D2B65"/>
</linearGradient>
</defs>
</svg>
