<svg width="300" height="300" viewBox="0 0 300 300" fill="none" xmlns="http://www.w3.org/2000/svg">
<circle cx="150" cy="150" r="150" fill="url(#paint0_radial_48_2822)"/>
<path fill-rule="evenodd" clip-rule="evenodd" d="M146.488 225.527C188.2 225.527 222.015 191.712 222.015 150C222.015 108.287 188.2 74.4729 146.488 74.4729C104.775 74.4729 70.9607 108.287 70.9607 150C70.9607 191.712 104.775 225.527 146.488 225.527ZM146.488 228.337C189.752 228.337 224.825 193.264 224.825 150C224.825 106.735 189.752 71.6626 146.488 71.6626C103.223 71.6626 68.1504 106.735 68.1504 150C68.1504 193.264 103.223 228.337 146.488 228.337Z" fill="url(#paint1_linear_48_2822)" fill-opacity="0.4"/>
<path fill-rule="evenodd" clip-rule="evenodd" d="M84.6917 178.119C77.0843 176.04 70.1649 170.924 64.6899 163.525C62.8023 160.973 61.0959 158.161 59.6038 155.128H74.3298C76.7555 165.5 80.3849 173.635 84.6917 178.119ZM73.7135 152.317H58.3102C55.0024 144.622 53.0219 135.691 52.8449 126.112H71.0831C71.1681 135.599 72.1119 144.514 73.7135 152.317ZM45.4485 152.317H55.2633C52.0794 144.514 50.2032 135.599 50.0342 126.112H37.957C38.1989 135.661 40.8991 144.599 45.4485 152.317ZM56.4886 155.128H47.2228C53.4347 164.332 62.3863 171.536 72.908 175.568C66.1784 170.851 60.5039 163.765 56.4886 155.128ZM92.3889 181.967C71.9424 181.967 53.9989 171.25 43.869 155.128H43.8591V155.112C38.3276 146.301 35.1289 135.878 35.1289 124.707C35.1289 113.887 38.1301 103.768 43.3456 95.1364V94.8005H43.5501C53.6177 78.3948 71.7197 67.4511 92.3781 67.4473L92.3889 67.4473C124.013 67.4473 149.649 93.0834 149.649 124.707C149.649 156.331 124.013 181.967 92.3889 181.967ZM46.8805 94.8005C53.1036 85.35 62.1914 77.9532 72.908 73.846C66.0455 78.657 60.2801 85.9304 56.2526 94.8005H46.8805ZM45.1496 97.6108H55.0563C51.9981 105.291 50.1995 114.023 50.0342 123.302H37.957C38.1935 113.964 40.781 105.21 45.1496 97.6108ZM58.0922 97.6108C54.9155 105.189 53.018 113.935 52.8449 123.302H71.0831C71.1663 114.023 72.071 105.291 73.6094 97.6108H58.0922ZM59.3542 94.8005H74.2111C76.6363 84.1827 80.3141 75.8527 84.6917 71.2957C77.0843 73.3741 70.1649 78.4903 64.6899 85.8899C62.6962 88.5843 60.9047 91.5705 59.3542 94.8005ZM76.477 97.6108C74.9132 105.211 73.9788 113.951 73.8935 123.302H90.9837V97.6108H76.477ZM90.9837 94.8005H77.0959C77.9184 91.3043 78.8787 88.0843 79.9527 85.1986C81.813 80.2006 83.9605 76.3519 86.203 73.8036C87.8964 71.8791 89.5053 70.841 90.9837 70.4466V94.8005ZM93.794 97.6108V123.302H110.884C110.799 113.951 109.864 105.211 108.301 97.6108H93.794ZM107.682 94.8005H93.794V70.4466C95.2724 70.8411 96.8812 71.8792 98.5746 73.8036C100.817 76.3519 102.965 80.2006 104.825 85.1986C105.899 88.0843 106.859 91.3043 107.682 94.8005ZM111.168 97.6108C112.707 105.291 113.611 114.023 113.694 123.302H131.933C131.76 113.935 129.862 105.189 126.686 97.6108H111.168ZM125.424 94.8005H110.566C108.141 84.1826 104.463 75.8526 100.086 71.2956C107.693 73.374 114.613 78.4902 120.088 85.8899C122.082 88.5843 123.873 91.5705 125.424 94.8005ZM129.721 97.6108C132.78 105.291 134.578 114.023 134.744 123.302H146.821C146.584 113.964 143.997 105.21 139.628 97.6108H129.721ZM137.897 94.8005H128.525C124.498 85.9305 118.732 78.6571 111.87 73.8461C122.586 77.9533 131.674 85.3501 137.897 94.8005ZM79.9527 164.216C78.9314 161.472 78.0131 158.426 77.2182 155.128H90.9837V178.968C89.5052 178.573 87.8964 177.535 86.203 175.611C83.9605 173.063 81.8129 169.214 79.9527 164.216ZM93.794 178.968V155.128H107.559C106.765 158.426 105.846 161.472 104.825 164.216C102.965 169.214 100.817 173.063 98.5746 175.611C96.8812 177.535 95.2724 178.573 93.794 178.968ZM93.794 152.317H108.194C109.822 144.598 110.797 135.674 110.884 126.112H93.794V152.317ZM100.086 178.119C104.393 173.636 108.022 165.5 110.448 155.128H125.174C123.682 158.161 121.975 160.973 120.088 163.525C114.613 170.924 107.693 176.04 100.086 178.119ZM111.064 152.317H126.468C129.775 144.622 131.756 135.691 131.933 126.112H113.694C113.609 135.599 112.666 144.514 111.064 152.317ZM111.87 175.568C118.599 170.851 124.274 163.765 128.289 155.128H137.555C131.343 164.332 122.392 171.536 111.87 175.568ZM129.514 152.317H139.329C143.879 144.599 146.579 135.661 146.821 126.112H134.744C134.575 135.599 132.698 144.514 129.514 152.317ZM76.584 152.317H90.9837V126.112H73.8935C73.9808 135.674 74.9558 144.598 76.584 152.317Z" fill="url(#paint2_linear_48_2822)" fill-opacity="0.7"/>
<path fill-rule="evenodd" clip-rule="evenodd" d="M79.391 223.419C69.3024 223.419 61.124 215.398 61.124 205.504C61.124 196.62 67.7162 189.247 76.3644 187.833C77.9543 187.573 79.3602 186.617 80.3664 185.358C81.6469 183.757 83.3701 182.525 85.3505 181.848C87.1927 181.218 88.8687 179.917 89.4604 178.062C93.9369 164.028 107.081 153.864 122.599 153.864C136.892 153.864 149.171 162.486 154.519 174.812C155.155 176.279 156.477 177.34 158.029 177.723C168.143 180.217 175.644 189.35 175.644 200.234C175.644 213.039 165.264 223.419 152.459 223.419H122.599H79.391Z" fill="url(#paint3_radial_48_2822)" fill-opacity="0.3"/>
<path fill-rule="evenodd" clip-rule="evenodd" d="M65.3395 205.504C65.3395 212.993 71.553 219.204 79.391 219.204H152.459C162.936 219.204 171.428 210.711 171.428 200.234C171.428 191.334 165.296 183.856 157.02 181.816C154.275 181.139 151.845 179.241 150.652 176.49C145.948 165.649 135.153 158.08 122.599 158.08C108.969 158.08 97.4117 167.006 93.4765 179.343C92.3474 182.883 89.3432 184.938 86.7145 185.837C85.5069 186.25 84.4479 187.004 83.6585 187.991C82.1429 189.886 79.8688 191.531 77.0448 191.993C70.3423 193.089 65.3395 198.778 65.3395 205.504ZM61.124 205.504C61.124 215.398 69.3024 223.419 79.391 223.419H152.459C165.264 223.419 175.644 213.039 175.644 200.234C175.644 189.35 168.143 180.217 158.029 177.723C156.477 177.34 155.155 176.279 154.519 174.812C149.171 162.486 136.892 153.864 122.599 153.864C107.081 153.864 93.9369 164.028 89.4604 178.062C88.8687 179.917 87.1927 181.218 85.3505 181.848C83.3701 182.525 81.6469 183.757 80.3664 185.358C79.3602 186.617 77.9543 187.573 76.3644 187.833C67.7162 189.247 61.124 196.62 61.124 205.504Z" fill="url(#paint4_linear_48_2822)"/>
<path fill-rule="evenodd" clip-rule="evenodd" d="M79.0569 191.803C71.0038 191.803 64.6373 198.025 64.6373 205.504C64.6373 212.983 71.0038 219.204 79.0569 219.204C80.2209 219.204 81.1646 220.147 81.1646 221.312C81.1646 222.476 80.2209 223.419 79.0569 223.419C68.8544 223.419 60.4219 215.486 60.4219 205.504C60.4219 195.522 68.8544 187.588 79.0569 187.588C83.3554 187.588 87.3272 188.99 90.4897 191.354C91.422 192.052 91.6126 193.372 90.9155 194.305C90.2184 195.237 88.8976 195.428 87.9653 194.73C85.5189 192.901 82.4297 191.803 79.0569 191.803Z" fill="url(#paint5_linear_48_2822)"/>
<path fill-rule="evenodd" clip-rule="evenodd" d="M122.6 158.08C105.721 158.08 92.0377 171.763 92.0377 188.642C92.0377 205.521 105.721 219.204 122.6 219.204C123.764 219.204 124.708 220.148 124.708 221.312C124.708 222.476 123.764 223.419 122.6 223.419C103.393 223.419 87.8223 207.849 87.8223 188.642C87.8223 169.435 103.393 153.864 122.6 153.864C141.807 153.864 157.377 169.435 157.377 188.642C157.377 189.806 156.434 190.75 155.27 190.75C154.106 190.75 153.162 189.806 153.162 188.642C153.162 171.763 139.479 158.08 122.6 158.08Z" fill="url(#paint6_linear_48_2822)"/>
<path fill-rule="evenodd" clip-rule="evenodd" d="M113.817 71.6626H167.213L144.028 93.3421V124.356L136.3 115.369V93.2457L113.817 71.6626Z" fill="url(#paint7_radial_48_2822)"/>
<path d="M246.604 123.302C246.604 150.658 224.428 172.834 197.073 172.834C169.717 172.834 147.541 150.658 147.541 123.302C147.541 95.9466 169.717 73.7705 197.073 73.7705C224.428 73.7705 246.604 95.9466 246.604 123.302Z" fill="url(#paint8_radial_48_2822)" fill-opacity="0.3"/>
<path fill-rule="evenodd" clip-rule="evenodd" d="M197.073 168.618C222.1 168.618 242.389 148.33 242.389 123.302C242.389 98.2747 222.1 77.986 197.073 77.986C172.045 77.986 151.756 98.2747 151.756 123.302C151.756 148.33 172.045 168.618 197.073 168.618ZM197.073 172.834C224.428 172.834 246.604 150.658 246.604 123.302C246.604 95.9466 224.428 73.7705 197.073 73.7705C169.717 73.7705 147.541 95.9466 147.541 123.302C147.541 150.658 169.717 172.834 197.073 172.834Z" fill="url(#paint9_linear_48_2822)"/>
<path d="M191.803 90.9837C191.803 88.0735 194.162 85.7144 197.073 85.7144C199.983 85.7144 202.342 88.0735 202.342 90.9837V123.302C202.342 126.212 199.983 128.571 197.073 128.571C194.162 128.571 191.803 126.212 191.803 123.302V90.9837Z" fill="url(#paint10_radial_48_2822)" fill-opacity="0.3"/>
<path fill-rule="evenodd" clip-rule="evenodd" d="M189.695 90.9835C189.695 86.9093 192.998 83.6064 197.072 83.6064C201.147 83.6064 204.449 86.9093 204.449 90.9835V123.302C204.449 127.376 201.147 130.679 197.072 130.679C192.998 130.679 189.695 127.376 189.695 123.302V90.9835ZM197.072 87.8219C195.326 87.8219 193.911 89.2374 193.911 90.9835V123.302C193.911 125.048 195.326 126.464 197.072 126.464C198.818 126.464 200.234 125.048 200.234 123.302V90.9835C200.234 89.2374 198.818 87.8219 197.072 87.8219Z" fill="url(#paint11_linear_48_2822)"/>
<path d="M193.421 127.103C191.363 125.045 191.363 121.709 193.421 119.651C195.479 117.593 198.815 117.593 200.873 119.651L223.726 142.504C225.784 144.561 225.784 147.898 223.726 149.956C221.668 152.013 218.332 152.013 216.274 149.956L193.421 127.103Z" fill="url(#paint12_radial_48_2822)" fill-opacity="0.3"/>
<path fill-rule="evenodd" clip-rule="evenodd" d="M191.931 128.593C189.05 125.712 189.05 121.042 191.931 118.161C194.812 115.28 199.483 115.28 202.364 118.161L225.217 141.013C228.097 143.894 228.097 148.565 225.217 151.446C222.336 154.327 217.665 154.327 214.784 151.446L191.931 128.593ZM194.912 121.141C193.677 122.376 193.677 124.378 194.912 125.613L217.765 148.465C218.999 149.7 221.001 149.7 222.236 148.465C223.47 147.23 223.47 145.229 222.236 143.994L199.383 121.141C198.148 119.907 196.147 119.907 194.912 121.141Z" fill="url(#paint13_linear_48_2822)"/>
<path d="M208.665 123.302C208.665 129.705 203.475 134.895 197.073 134.895C190.671 134.895 185.48 129.705 185.48 123.302C185.48 116.9 190.671 111.71 197.073 111.71C203.475 111.71 208.665 116.9 208.665 123.302Z" fill="#272531"/>
<path fill-rule="evenodd" clip-rule="evenodd" d="M197.073 130.679C201.147 130.679 204.45 127.376 204.45 123.302C204.45 119.228 201.147 115.925 197.073 115.925C192.999 115.925 189.696 119.228 189.696 123.302C189.696 127.376 192.999 130.679 197.073 130.679ZM197.073 134.895C203.475 134.895 208.665 129.705 208.665 123.302C208.665 116.9 203.475 111.71 197.073 111.71C190.671 111.71 185.48 116.9 185.48 123.302C185.48 129.705 190.671 134.895 197.073 134.895Z" fill="url(#paint14_linear_48_2822)"/>
<path d="M196.338 238.212C200.885 240.837 206.61 239.321 209.295 234.671L192.796 225.146C190.111 229.795 191.661 235.512 196.338 238.212ZM235.38 235.094C234.477 230.957 231.982 224.178 239.663 210.875C245.404 200.93 243.012 188.872 234.592 181.255L236.158 178.543C237.425 176.347 236.725 173.36 234.517 172.085C232.178 170.735 229.241 171.622 227.973 173.817L226.407 176.53C215.601 173.046 203.962 177.003 198.221 186.948C190.54 200.251 183.422 201.48 179.387 202.767C178.161 203.092 177.174 203.9 176.782 204.879C175.515 207.075 175.955 209.912 178.553 211.412L228.31 240.139C230.908 241.639 233.585 240.602 234.983 238.481C235.505 237.577 235.712 236.319 235.38 235.094Z" fill="url(#paint15_radial_48_2822)"/>
<defs>
<radialGradient id="paint0_radial_48_2822" cx="0" cy="0" r="1" gradientUnits="userSpaceOnUse" gradientTransform="translate(150 150) rotate(90) scale(150)">
<stop stop-color="#1D1B24"/>
<stop offset="1" stop-color="#312E3E" stop-opacity="0"/>
</radialGradient>
<linearGradient id="paint1_linear_48_2822" x1="104.976" y1="110.496" x2="256.963" y2="188.164" gradientUnits="userSpaceOnUse">
<stop stop-color="#CE88BF"/>
<stop offset="0.25868" stop-color="#B361A1"/>
<stop offset="1" stop-color="#4D2B65"/>
</linearGradient>
<linearGradient id="paint2_linear_48_2822" x1="59.7191" y1="90.281" x2="139.813" y2="186.885" gradientUnits="userSpaceOnUse">
<stop stop-color="#CA72B7"/>
<stop offset="0.430152" stop-color="#914680"/>
<stop offset="1" stop-color="#3F2660"/>
</linearGradient>
<radialGradient id="paint3_radial_48_2822" cx="0" cy="0" r="1" gradientUnits="userSpaceOnUse" gradientTransform="translate(44.6268 162.854) rotate(17.355) scale(156.709 386.993)">
<stop stop-color="#CA72B7"/>
<stop offset="0.377912" stop-color="#914680"/>
<stop offset="1" stop-color="#3F2660"/>
</radialGradient>
<linearGradient id="paint4_linear_48_2822" x1="61.1261" y1="188.901" x2="192.59" y2="188.929" gradientUnits="userSpaceOnUse">
<stop offset="0.498067" stop-color="#B361A1"/>
<stop offset="1" stop-color="#4D2B65"/>
</linearGradient>
<linearGradient id="paint5_linear_48_2822" x1="62.5302" y1="205.622" x2="100.475" y2="205.627" gradientUnits="userSpaceOnUse">
<stop offset="0.498067" stop-color="#B361A1"/>
<stop offset="1" stop-color="#4D2B65"/>
</linearGradient>
<linearGradient id="paint6_linear_48_2822" x1="89.9312" y1="188.886" x2="164.938" y2="188.895" gradientUnits="userSpaceOnUse">
<stop offset="0.498067" stop-color="#B361A1"/>
<stop offset="1" stop-color="#4D2B65"/>
</linearGradient>
<radialGradient id="paint7_radial_48_2822" cx="0" cy="0" r="1" gradientUnits="userSpaceOnUse" gradientTransform="translate(132.494 69.485) rotate(53.5789) scale(71.587 110.781)">
<stop stop-color="#CA72B7"/>
<stop offset="0.237847" stop-color="#914680"/>
<stop offset="1" stop-color="#3F2660"/>
</radialGradient>
<radialGradient id="paint8_radial_48_2822" cx="0" cy="0" r="1" gradientUnits="userSpaceOnUse" gradientTransform="translate(133.27 86.5736) rotate(27.2281) scale(145.51 513.474)">
<stop stop-color="#CA72B7"/>
<stop offset="0.377912" stop-color="#914680"/>
<stop offset="1" stop-color="#3F2660"/>
</radialGradient>
<linearGradient id="paint9_linear_48_2822" x1="147.543" y1="123.672" x2="261.263" y2="123.686" gradientUnits="userSpaceOnUse">
<stop offset="0.498067" stop-color="#B361A1"/>
<stop offset="1" stop-color="#4D2B65"/>
</linearGradient>
<radialGradient id="paint10_radial_48_2822" cx="0" cy="0" r="1" gradientUnits="userSpaceOnUse" gradientTransform="translate(190.285 91.2533) rotate(64.4571) scale(31.9224 107.721)">
<stop stop-color="#CA72B7"/>
<stop offset="0.377912" stop-color="#914680"/>
<stop offset="1" stop-color="#3F2660"/>
</radialGradient>
<linearGradient id="paint11_linear_48_2822" x1="175.293" y1="88.8758" x2="206.259" y2="111.989" gradientUnits="userSpaceOnUse">
<stop offset="0.498067" stop-color="#B361A1"/>
<stop offset="1" stop-color="#4D2B65"/>
</linearGradient>
<radialGradient id="paint12_radial_48_2822" cx="0" cy="0" r="1" gradientUnits="userSpaceOnUse" gradientTransform="translate(192.538 128.367) rotate(19.4571) scale(31.9224 107.721)">
<stop stop-color="#CA72B7"/>
<stop offset="0.377912" stop-color="#914680"/>
<stop offset="1" stop-color="#3F2660"/>
</radialGradient>
<linearGradient id="paint13_linear_48_2822" x1="176.698" y1="110.305" x2="227.731" y2="151.989" gradientUnits="userSpaceOnUse">
<stop offset="0.498067" stop-color="#B361A1"/>
<stop offset="1" stop-color="#4D2B65"/>
</linearGradient>
<linearGradient id="paint14_linear_48_2822" x1="185.481" y1="123.389" x2="212.096" y2="123.392" gradientUnits="userSpaceOnUse">
<stop offset="0.498067" stop-color="#B361A1"/>
<stop offset="1" stop-color="#4D2B65"/>
</linearGradient>
<radialGradient id="paint15_radial_48_2822" cx="0" cy="0" r="1" gradientUnits="userSpaceOnUse" gradientTransform="translate(196.122 176.214) rotate(75.0553) scale(105.989 382.268)">
<stop stop-color="#CA72B7"/>
<stop offset="0.430152" stop-color="#914680"/>
<stop offset="1" stop-color="#3F2660"/>
</radialGradient>
</defs>
</svg>
