<svg width="121" height="341" fill="none" xmlns="http://www.w3.org/2000/svg"><path d="M60.135 341c-81.307-36.192-64.44-105.5-39.94-135.5 25.317-31 46.5-36 57.5-65s4-46-10-61c-10.266-11-21-36.5-12.5-51.5s18-13.5 21.5-28c5.177 9.882-14.765 27.202-7 44.5 7.766 17.3 27.5 27 41.5 53s13.7 77.311-16.5 110c-30.2 32.689-45.325 45.724-34.56 51.5" fill="url(#a)"/><path fill-rule="evenodd" clip-rule="evenodd" d="M76.726.06c2.225 4.344-.355 10.115-3.293 16.685-3.75 8.387-8.083 18.074-3.738 27.755 3.668 8.17 10.005 14.645 17.146 21.942 7.98 8.155 16.966 17.337 24.354 31.058 14 26 13.7 77.311-16.5 110a2143.491 2143.491 0 0 1-12.614 13.509C60.518 243.961 50.996 254.096 60.135 259v27.62l-.5.38c-9.5-2-22.062-18-25.5-36.5-5.837-31.409 15.676-53.857 35.763-74.815 16.046-16.742 31.181-32.534 30.737-51.185-.631-26.491-11.805-39.257-21.727-50.593C73.099 67.27 67.719 61.124 65.135 53c-4.293-13.49.251-23.22 4.87-33.11 2.854-6.113 5.737-12.286 6.58-19.446.035-.135.069-.272.102-.41l.039.025z" fill="url(#b)" fill-opacity=".4"/><defs><radialGradient id="a" cx="0" cy="0" r="1" gradientUnits="userSpaceOnUse" gradientTransform="matrix(170.23693 -272.18756 357.0783 223.33098 -35.445 302.676)"><stop stop-color="#CA72B7"/><stop offset=".238" stop-color="#914680"/><stop offset="1" stop-color="#3F2660"/></radialGradient><linearGradient id="b" x1="90.148" y1="0" x2="189.118" y2="325.368" gradientUnits="userSpaceOnUse"><stop stop-color="#272531"/><stop offset="1" stop-color="#272531" stop-opacity="0"/></linearGradient></defs></svg>