<svg width="363" height="379" viewBox="0 0 363 379" fill="none" xmlns="http://www.w3.org/2000/svg">
<path d="M363 99.6769C298.958 8.14102 186.939 -22.9812 105.002 17.2946C39.9896 49.204 -19.716 132.74 6.19366 215.012C24.8208 274.163 122.128 274.401 134.278 323.025C137.938 337.67 136.108 351.712 123.299 359.639C114.882 364.857 99.5122 363.154 97.6825 354.147C95.8527 345.14 105.002 337.67 105.002 337.67C102.042 338.034 99.1971 339.042 96.6682 340.623C94.1393 342.205 91.9872 344.321 90.3634 346.824C83.0443 357.808 85.4596 371.227 101.342 376.115C125.129 383.438 148.129 377.067 163.554 354.147C181.322 327.711 175.265 288.754 156.235 266.272C131.899 237.548 112.321 240.166 94.0229 213.181C77.5549 188.961 73.566 163.331 86.7038 141.783C109.448 104.437 159.291 86.6056 212.958 99.6769H363Z" fill="url(#paint0_linear_48_2851)" fill-opacity="0.2"/>
<defs>
<linearGradient id="paint0_linear_48_2851" x1="-10.048" y1="227.24" x2="271.009" y2="227.24" gradientUnits="userSpaceOnUse">
<stop stop-color="white" stop-opacity="0"/>
<stop offset="1" stop-color="white"/>
</linearGradient>
</defs>
</svg>
