<svg width="289" height="299" fill="none" xmlns="http://www.w3.org/2000/svg"><path d="M285.216 11.68c-1.169-3.504-4.092-6.424-7.6-7.592C258.909 0 244.295 0 229.68 0c-60.212 0-96.457 32.703-123.347 74.75H44.951c-9.353.584-20.46 7.008-25.137 15.768l-28.645 57.814c-.584 1.752-1.169 4.088-1.169 5.84 0 8.176 5.846 14.016 14.03 14.016h60.212l-12.86 13.431c-7.015 6.424-7.6 18.688 0 26.279l29.813 29.784c6.43 6.423 18.707 7.591 26.307 0l12.861-12.848v60.15c.584 8.176 6.43 14.016 14.614 14.016 1.754 0 4.092-.584 5.846-1.168l57.874-28.615c8.769-4.672 15.199-15.768 15.199-25.112v-61.318c42.675-26.863 74.827-63.07 74.827-123.22.585-14.6.585-29.2-3.507-47.887zm-70.735 86.43c-13.446 0-23.384-9.928-23.384-23.36 0-12.848 9.938-23.36 23.384-23.36 12.861 0 23.383 10.512 23.383 23.36 0 13.432-10.522 23.36-23.383 23.36z" fill="url(#a)" fill-opacity=".5"/><defs><radialGradient id="a" cx="0" cy="0" r="1" gradientUnits="userSpaceOnUse" gradientTransform="rotate(37.12 6.088 -109.99) scale(554.789 2085.1)"><stop stop-color="#CA72B7"/><stop offset=".43" stop-color="#914680"/><stop offset="1" stop-color="#3F2660"/></radialGradient></defs></svg>