<svg width="213" height="291" viewBox="0 0 213 291" fill="none" xmlns="http://www.w3.org/2000/svg">
<path d="M113.25 2.22835C109.275 -0.743066 103.793 -0.742687 99.818 2.22891C65.26 28.0657 30.4553 30.9644 12.4864 30.3388C5.98461 30.1125 6.75786e-06 35.2988 6.75786e-06 41.9196V191.806C-0.00565833 205.041 3.55054 218.024 10.2823 229.345C17.0142 240.666 26.6642 249.893 38.1842 256.023L101.721 289.808C104.711 291.397 108.276 291.397 111.265 289.808L174.815 256.023C186.335 249.893 195.985 240.666 202.717 229.345C209.449 218.024 213.005 205.041 213 191.806V41.9234C213 35.3013 207.013 30.1139 200.51 30.3395C182.557 30.9623 147.8 28.0562 113.25 2.22835Z" fill="url(#paint0_radial_514_3)" fill-opacity="0.3"/>
<defs>
<radialGradient id="paint0_radial_514_3" cx="0" cy="0" r="1" gradientUnits="userSpaceOnUse" gradientTransform="translate(-30.6838 35.0902) rotate(35.5155) scale(341.785 1401.78)">
<stop stop-color="#CA72B7"/>
<stop offset="0.377912" stop-color="#914680"/>
<stop offset="1" stop-color="#3F2660"/>
</radialGradient>
</defs>
</svg>
