<svg width="433" height="543" viewBox="0 0 433 543" fill="none" xmlns="http://www.w3.org/2000/svg">
<rect width="102.25" height="51" rx="10" fill="#444052"/>
<rect x="110.25" width="102.25" height="51" rx="10" fill="#444052"/>
<rect x="220.5" width="102.25" height="51" rx="10" fill="#444052"/>
<rect x="330.75" width="102.25" height="51" rx="10" fill="#444052"/>
<rect y="59" width="102.25" height="72.6667" rx="10" fill="#2C2939"/>
<rect x="110.25" y="59" width="102.25" height="72.6667" rx="10" fill="#2C2939"/>
<rect x="220.5" y="59" width="102.25" height="72.6667" rx="10" fill="#2C2939"/>
<rect x="330.75" y="59" width="102.25" height="72.6667" rx="10" fill="#2C2939"/>
<rect y="139.667" width="102.25" height="72.6667" rx="10" fill="#2C2939"/>
<rect x="110.25" y="139.667" width="102.25" height="72.6667" rx="10" fill="#2C2939"/>
<rect x="220.5" y="139.667" width="102.25" height="72.6667" rx="10" fill="#2C2939"/>
<rect x="330.75" y="139.667" width="102.25" height="72.6667" rx="10" fill="#2C2939"/>
<rect y="220.333" width="102.25" height="72.6667" rx="10" fill="#2C2939"/>
<rect x="110.25" y="220.333" width="102.25" height="72.6667" rx="10" fill="#2C2939"/>
<rect x="220.5" y="220.333" width="102.25" height="72.6667" rx="10" fill="#2C2939"/>
<rect x="330.75" y="220.333" width="102.25" height="72.6667" rx="10" fill="#2C2939"/>
<rect y="301" width="102.25" height="72.6667" rx="10" fill="#2C2939"/>
<rect x="110.25" y="301" width="102.25" height="72.6667" rx="10" fill="#2C2939"/>
<rect x="220.5" y="301" width="102.25" height="72.6667" rx="10" fill="#2C2939"/>
<rect x="330.75" y="301" width="102.25" height="72.6667" rx="10" fill="#2C2939"/>
<rect y="381.667" width="102.25" height="72.6667" rx="10" fill="#2C2939"/>
<rect x="110.25" y="381.667" width="102.25" height="72.6667" rx="10" fill="#2C2939"/>
<rect x="220.5" y="381.667" width="102.25" height="72.6667" rx="10" fill="#2C2939"/>
<rect x="330.75" y="381.667" width="102.25" height="72.6667" rx="10" fill="#2C2939"/>
<rect y="462.333" width="102.25" height="72.6667" rx="10" fill="#2C2939"/>
<rect x="110.25" y="462.333" width="102.25" height="72.6667" rx="10" fill="#2C2939"/>
<rect x="220.5" y="462.333" width="102.25" height="72.6667" rx="10" fill="#2C2939"/>
<rect x="330.75" y="462.333" width="102.25" height="72.6667" rx="10" fill="#2C2939"/>
</svg>
