<?xml version="1.0" encoding="UTF-8"?>
<svg id="Layer_1" data-name="Layer 1" xmlns="http://www.w3.org/2000/svg" xmlns:xlink="http://www.w3.org/1999/xlink" viewBox="0 0 190.72 143.8">
  <defs>
    <linearGradient id="linear-gradient" x1="52" y1="-3711.85" x2="191.5" y2="-3783.13" gradientTransform="translate(0 -3662.89) scale(1 -1)" gradientUnits="userSpaceOnUse">
      <stop offset="0" stop-color="#ce88bf"/>
      <stop offset=".26" stop-color="#b361a1"/>
      <stop offset="1" stop-color="#4d2b65"/>
    </linearGradient>
    <linearGradient id="linear-gradient-2" x1="63.49" y1="34.2" x2=".87" y2="34.19" gradientUnits="userSpaceOnUse">
      <stop offset=".5" stop-color="#b361a1"/>
      <stop offset="1" stop-color="#4d2b65"/>
    </linearGradient>
    <radialGradient id="radial-gradient" cx="-848.76" cy="-1797.55" fx="-848.76" fy="-1797.55" r=".55" gradientTransform="translate(322981.48 -281357.52) rotate(41.42) scale(66.02 -236.24)" gradientUnits="userSpaceOnUse">
      <stop offset="0" stop-color="#ca72b7"/>
      <stop offset=".43" stop-color="#914680"/>
      <stop offset="1" stop-color="#3f2660"/>
    </radialGradient>
    <radialGradient id="radial-gradient-2" cx="7.98" cy="17.01" fx="7.98" fy="17.01" r="67.5" gradientTransform="matrix(1,0,0,1,0,0)" xlink:href="#radial-gradient"/>
    <linearGradient id="linear-gradient-3" x1="1.8" y1="-3740.42" x2="195.65" y2="-3740.42" gradientTransform="translate(0 -3662.89) scale(1 -1)" gradientUnits="userSpaceOnUse">
      <stop offset=".28" stop-color="#b361a1"/>
      <stop offset="1" stop-color="#4d2b65"/>
    </linearGradient>
    <linearGradient id="linear-gradient-4" x1="12.95" y1="-3766.81" x2="188.22" y2="-3766.81" xlink:href="#linear-gradient-3"/>
    <linearGradient id="linear-gradient-5" x1="48.82" y1="59.73" x2="123.69" y2="117.76" gradientUnits="userSpaceOnUse">
      <stop offset=".34" stop-color="#b361a1"/>
      <stop offset=".88" stop-color="#4d2b65"/>
    </linearGradient>
    <radialGradient id="radial-gradient-3" cx="70.17" cy="53.6" fx="70.17" fy="53.6" r="82.61" gradientTransform="matrix(1,0,0,1,0,0)" xlink:href="#radial-gradient"/>
  </defs>
  <path d="m96.9,141.22c38.28,0,69.32-31.04,69.32-69.32S135.19,2.58,96.9,2.58,27.58,33.61,27.58,71.9s31.04,69.32,69.32,69.32Zm0,2.58c39.71,0,71.9-32.19,71.9-71.9S136.61,0,96.9,0,25,32.19,25,71.9s32.19,71.9,71.9,71.9Z" style="fill: url(#linear-gradient); fill-opacity: .4; fill-rule: evenodd;"/>
  <g>
    <path d="m63.5,24.38c-1.56,2.94-4.82,7.29-9.37,10.9-4.55,3.6-10.3,6.4-16.88,6.4s-12.33-2.8-16.88-6.4c-4.55-3.61-7.81-7.96-9.37-10.9l-2.06,1.1c1.71,3.22,5.17,7.82,9.98,11.64,4.82,3.82,11.07,6.91,18.33,6.91s13.51-3.09,18.33-6.91c4.81-3.82,8.27-8.42,9.98-11.64l-2.06-1.1Z" style="fill: url(#linear-gradient-2); fill-rule: evenodd;"/>
    <path d="m49.58,28.06c0,6.81-5.52,12.33-12.33,12.33s-12.33-5.52-12.33-12.33,5.52-12.33,12.33-12.33,12.33,5.52,12.33,12.33Zm-6.78,0c0,3.06-2.48,5.55-5.55,5.55s-5.55-2.48-5.55-5.55c0-.57.09-1.12.24-1.63.43.96,1.4,1.63,2.53,1.63,1.53,0,2.77-1.24,2.77-2.77,0-1.13-.67-2.09-1.63-2.53.52-.16,1.06-.24,1.63-.24,3.06,0,5.55,2.48,5.55,5.55Z" style="fill: url(#radial-gradient); fill-opacity: .7; fill-rule: evenodd;"/>
    <path d="m37.25,8.95c-16.46,0-25.76,12.28-28.35,16.52,8.08,0,11.58-1.14,15-2.26,3.25-1.06,6.42-2.09,13.35-2.09s10.1,1.03,13.35,2.09c3.42,1.11,6.93,2.26,15,2.26-2.59-4.23-11.9-16.52-28.35-16.52Z" style="fill: url(#radial-gradient-2); fill-rule: evenodd;"/>
  </g>
  <path d="m0,53.72c0-.99.81-1.8,1.8-1.8,4.91,0,8.51,1.49,11.4,3.77,2.74,2.16,4.79,4.99,6.68,7.6.05.07.09.13.14.2,1.98,2.74,3.82,5.22,6.22,7.07,2.33,1.79,5.25,3.01,9.48,3.01,4.75,0,8.22.48,11.03,1.22,2.81.74,4.91,1.74,6.84,2.67l.13.06c1.89.91,3.62,1.74,5.9,2.38,2.32.64,5.27,1.09,9.51,1.09,3.76,0,6.31-1.52,8.35-3.91,2.13-2.49,3.67-5.87,5.3-9.55.06-.14.12-.28.19-.42,1.52-3.44,3.15-7.14,5.44-9.97,2.47-3.05,5.78-5.21,10.54-5.21,5.18,0,8.5,3.81,10.82,8.43,2.29,4.56,3.93,10.54,5.52,16.31l.11.38c1.65,6,3.26,11.76,5.46,16.02,2.21,4.28,4.7,6.47,7.9,6.47s5.79-1.99,7.96-5.68c2.19-3.73,3.8-8.77,5.49-14.09l.04-.13c1.64-5.16,3.36-10.57,5.78-14.68,2.46-4.19,5.9-7.46,11.06-7.46s8.98,3.21,11.55,7.43c2.53,4.17,4.26,9.65,5.85,14.86.09.3.18.59.27.89,1.53,5,2.96,9.7,4.88,13.23,2.02,3.73,4.28,5.63,7.27,5.63.99,0,1.8.8,1.8,1.8s-.81,1.8-1.8,1.8c-4.98,0-8.18-3.35-10.43-7.51-2.1-3.87-3.63-8.9-5.11-13.77-.1-.34-.21-.68-.31-1.02-1.62-5.3-3.23-10.33-5.49-14.04-2.22-3.66-4.85-5.7-8.47-5.7-3.32,0-5.79,1.99-7.96,5.68-2.19,3.73-3.8,8.77-5.49,14.09l-.04.13c-1.64,5.16-3.36,10.57-5.77,14.68-2.46,4.19-5.9,7.46-11.06,7.46s-8.7-3.77-11.1-8.41c-2.41-4.66-4.11-10.81-5.73-16.71l-.04-.15c-1.64-5.96-3.21-11.65-5.34-15.89-2.16-4.31-4.56-6.45-7.6-6.45-3.46,0-5.81,1.48-7.74,3.87-1.98,2.45-3.44,5.76-5.04,9.38l-.09.21c-1.59,3.58-3.32,7.47-5.85,10.43-2.62,3.06-6.11,5.17-11.09,5.17-4.5,0-7.79-.48-10.47-1.22-2.59-.72-4.58-1.67-6.44-2.57-.06-.03-.13-.06-.19-.09-1.92-.92-3.75-1.78-6.2-2.43-2.46-.65-5.61-1.1-10.11-1.1-5.03,0-8.72-1.48-11.68-3.75-2.88-2.21-5-5.14-6.94-7.81h0c-1.99-2.75-3.79-5.24-6.13-7.08-2.27-1.79-5.09-3-9.18-3-.99,0-1.8-.8-1.8-1.8Z" style="fill: url(#linear-gradient-3); fill-opacity: .5; fill-rule: evenodd; opacity: .44;"/>
  <path d="m84.28,113.91c-2.15,4.83-5.31,8.97-10.44,8.97-4.66,0-7.96-2.31-10.46-5.47-2.34-2.96-4.1-6.83-5.76-10.47-.06-.14-.13-.28-.19-.42-1.77-3.87-3.44-7.47-5.64-10.12-2.13-2.57-4.65-4.13-8.16-4.13-7.22,0-10.35,4.92-13.96,10.95-.07.12-.14.23-.21.35-3.4,5.68-7.4,12.36-16.51,12.36-1,0-1.81-.81-1.81-1.8s.81-1.8,1.81-1.8c6.97,0,9.97-4.88,13.61-10.95l.07-.11c3.46-5.77,7.55-12.6,17-12.6,4.85,0,8.32,2.26,10.95,5.44,2.56,3.09,4.43,7.15,6.15,10.93l.1.21c1.74,3.81,3.34,7.33,5.4,9.94,2.04,2.58,4.38,4.09,7.61,4.09,2.77,0,5.07-2.17,7.13-6.83,2.02-4.55,3.47-10.68,4.93-17.05.05-.22.1-.44.15-.66,1.39-6.05,2.82-12.27,4.81-17.01,2-4.77,4.98-9.01,9.93-9.01,2.64,0,4.7,1.52,6.25,3.6,1.54,2.06,2.77,4.89,3.8,8.09,2.03,6.28,3.5,14.58,4.95,22.73l.08.47c1.49,8.39,2.96,16.6,5,22.71,1.02,3.06,2.13,5.45,3.36,7.04,1.21,1.57,2.36,2.16,3.52,2.16,2.88,0,5.07-1.76,7.03-5.18,1.97-3.44,3.43-8.1,4.96-13.03l.04-.13c1.48-4.77,3.04-9.8,5.23-13.62,2.23-3.89,5.38-7,10.17-7s7.9,1.78,10.37,4.41c2.39,2.54,4.01,5.88,5.44,8.92.08.16.15.32.23.48,1.4,2.96,2.64,5.6,4.3,7.58,1.66,1.98,3.65,3.19,6.62,3.19,1,0,1.81.81,1.81,1.81s-.81,1.8-1.81,1.8c-4.24,0-7.18-1.85-9.39-4.49-1.97-2.35-3.41-5.4-4.74-8.23-.1-.21-.19-.41-.29-.61-1.47-3.11-2.87-5.92-4.81-7.99-1.85-1.98-4.21-3.27-7.73-3.27-2.88,0-5.07,1.76-7.03,5.18-1.97,3.44-3.43,8.1-4.95,13.03l-.04.13c-1.48,4.77-3.04,9.8-5.23,13.62-2.23,3.89-5.38,7-10.17,7-2.68,0-4.78-1.49-6.39-3.58-1.59-2.06-2.86-4.9-3.92-8.1-2.14-6.41-3.65-14.91-5.13-23.21l-.05-.29c-1.47-8.29-2.91-16.38-4.86-22.43-.99-3.06-2.07-5.45-3.26-7.04-1.17-1.57-2.27-2.14-3.35-2.14-2.48,0-4.62,2.08-6.6,6.79-1.87,4.45-3.23,10.4-4.66,16.61l-.11.48c-1.44,6.27-2.96,12.78-5.15,17.71Z" style="fill: url(#linear-gradient-4); fill-rule: evenodd; opacity: .44;"/>
  <path d="m73.57,124.8c-2.48,0-4.96-.67-7.18-2.02-4.21-2.54-6.71-6.99-6.71-11.9v-55.84c0-5.1,2.65-9.63,7.1-12.12,4.45-2.49,9.7-2.4,14.04.26l49.14,29.99c4.33,2.64,6.81,7.24,6.65,12.31-.16,5.07-2.94,9.5-7.42,11.86l-49.14,25.85c-2.05,1.08-4.27,1.61-6.48,1.61Zm.01-80.68c-1.83,0-3.66.47-5.34,1.42-3.49,1.96-5.57,5.51-5.57,9.51v55.84c0,3.85,1.97,7.34,5.27,9.33,3.3,1.99,7.3,2.11,10.71.32l49.14-25.85c3.52-1.85,5.69-5.33,5.82-9.3s-1.82-7.58-5.21-9.65l-49.14-29.99c-1.76-1.08-3.72-1.62-5.67-1.62Z" style="fill: url(#linear-gradient-5);"/>
  <path d="m68.1,99.82v-55.84c0-9.68,10.6-15.63,18.86-10.58l49.14,29.99c8.22,5.02,7.83,17.08-.69,21.56l-49.14,25.85c-8.26,4.34-18.17-1.64-18.17-10.97Z" style="fill: url(#radial-gradient-3); fill-opacity: .8;"/>
</svg>