<svg width="518" height="115" fill="none" xmlns="http://www.w3.org/2000/svg"><path fill-rule="evenodd" clip-rule="evenodd" d="M-8 12.366C-8 5.536-2.124 0 5.125 0h57.75C70.124 0 76 5.536 76 12.366v90.268C76 109.464 70.124 115 62.875 115H5.125C-2.124 115-8 109.464-8 102.634V12.366zM14.969 24.73c0-1.707 1.469-3.091 3.281-3.091h24.938c1.812 0 3.28 1.384 3.28 3.091v2.473c0 1.708-1.468 3.092-3.28 3.092H18.25c-1.812 0-3.281-1.384-3.281-3.092v-2.473zm3.281 11.747c-1.812 0-3.281 1.385-3.281 3.092v2.473c0 1.707 1.469 3.091 3.281 3.091h11.813c1.812 0 3.28-1.384 3.28-3.091V39.57c0-1.707-1.468-3.092-3.28-3.092H18.25zm16.406 48.226c0-1.707 1.47-3.091 3.282-3.091H49.75c1.812 0 3.281 1.384 3.281 3.091v2.473c0 1.708-1.469 3.092-3.281 3.092H37.937c-1.812 0-3.28-1.384-3.28-3.092v-2.473zM18.25 69.866c-1.812 0-3.281 1.384-3.281 3.091v2.473c0 1.707 1.469 3.091 3.281 3.091h31.5c1.812 0 3.281-1.384 3.281-3.09v-2.474c0-1.707-1.469-3.091-3.281-3.091h-31.5z" fill="url(#a)" fill-opacity=".5"/><path fill-rule="evenodd" clip-rule="evenodd" d="M96 12.366C96 5.536 101.876 0 109.125 0h57.75C174.124 0 180 5.536 180 12.366v90.268c0 6.83-5.876 12.366-13.125 12.366h-57.75C101.876 115 96 109.464 96 102.634V12.366zm22.969 12.365c0-1.707 1.469-3.091 3.281-3.091h24.938c1.812 0 3.281 1.384 3.281 3.091v2.473c0 1.708-1.469 3.092-3.281 3.092H122.25c-1.812 0-3.281-1.384-3.281-3.092v-2.473zm3.281 11.747c-1.812 0-3.281 1.385-3.281 3.092v2.473c0 1.707 1.469 3.091 3.281 3.091h11.812c1.813 0 3.282-1.384 3.282-3.091V39.57c0-1.707-1.469-3.092-3.282-3.092H122.25zm16.406 48.226c0-1.707 1.469-3.091 3.282-3.091h11.812c1.812 0 3.281 1.384 3.281 3.091v2.473c0 1.708-1.469 3.092-3.281 3.092h-11.812c-1.813 0-3.282-1.384-3.282-3.092v-2.473zM122.25 69.866c-1.812 0-3.281 1.384-3.281 3.091v2.473c0 1.707 1.469 3.091 3.281 3.091h31.5c1.812 0 3.281-1.384 3.281-3.09v-2.474c0-1.707-1.469-3.091-3.281-3.091h-31.5z" fill="url(#b)" fill-opacity=".5"/><path fill-rule="evenodd" clip-rule="evenodd" d="M200 12.366C200 5.536 205.946 0 213.281 0h58.438C279.054 0 285 5.536 285 12.366v90.268c0 6.83-5.946 12.366-13.281 12.366h-58.438c-7.335 0-13.281-5.536-13.281-12.366V12.366zm23.242 12.365c0-1.707 1.487-3.091 3.32-3.091h25.235c1.834 0 3.32 1.384 3.32 3.091v2.473c0 1.708-1.486 3.092-3.32 3.092h-25.235c-1.833 0-3.32-1.384-3.32-3.092v-2.473zm3.32 11.747c-1.833 0-3.32 1.385-3.32 3.092v2.473c0 1.707 1.487 3.091 3.32 3.091h11.954c1.833 0 3.32-1.384 3.32-3.091V39.57c0-1.707-1.487-3.092-3.32-3.092h-11.954zm16.602 48.226c0-1.707 1.487-3.091 3.32-3.091h11.954c1.833 0 3.32 1.384 3.32 3.091v2.473c0 1.708-1.487 3.092-3.32 3.092h-11.954c-1.833 0-3.32-1.384-3.32-3.092v-2.473zm-16.602-14.838c-1.833 0-3.32 1.384-3.32 3.091v2.473c0 1.707 1.487 3.091 3.32 3.091h31.876c1.833 0 3.32-1.384 3.32-3.09v-2.474c0-1.707-1.487-3.091-3.32-3.091h-31.876z" fill="url(#c)" fill-opacity=".5"/><path fill-rule="evenodd" clip-rule="evenodd" d="M305 12.366C305 5.536 310.876 0 318.125 0h57.75C383.124 0 389 5.536 389 12.366v90.268c0 6.83-5.876 12.366-13.125 12.366h-57.75c-7.249 0-13.125-5.536-13.125-12.366V12.366zm22.969 12.365c0-1.707 1.469-3.091 3.281-3.091h24.938c1.812 0 3.281 1.384 3.281 3.091v2.473c0 1.708-1.469 3.092-3.281 3.092H331.25c-1.812 0-3.281-1.384-3.281-3.092v-2.473zm3.281 11.747c-1.812 0-3.281 1.385-3.281 3.092v2.473c0 1.707 1.469 3.091 3.281 3.091h11.812c1.813 0 3.282-1.384 3.282-3.091V39.57c0-1.707-1.469-3.092-3.282-3.092H331.25zm16.406 48.226c0-1.707 1.469-3.091 3.282-3.091h11.812c1.812 0 3.281 1.384 3.281 3.091v2.473c0 1.708-1.469 3.092-3.281 3.092h-11.812c-1.813 0-3.282-1.384-3.282-3.092v-2.473zM331.25 69.866c-1.812 0-3.281 1.384-3.281 3.091v2.473c0 1.707 1.469 3.091 3.281 3.091h31.5c1.812 0 3.281-1.384 3.281-3.09v-2.474c0-1.707-1.469-3.091-3.281-3.091h-31.5z" fill="url(#d)" fill-opacity=".5"/><path fill-rule="evenodd" clip-rule="evenodd" d="M409 12.366C409 5.536 414.876 0 422.125 0h57.75C487.124 0 493 5.536 493 12.366v90.268c0 6.83-5.876 12.366-13.125 12.366h-57.75c-7.249 0-13.125-5.536-13.125-12.366V12.366zm22.969 12.365c0-1.707 1.469-3.091 3.281-3.091h24.938c1.812 0 3.281 1.384 3.281 3.091v2.473c0 1.708-1.469 3.092-3.281 3.092H435.25c-1.812 0-3.281-1.384-3.281-3.092v-2.473zm3.281 11.747c-1.812 0-3.281 1.385-3.281 3.092v2.473c0 1.707 1.469 3.091 3.281 3.091h11.812c1.813 0 3.282-1.384 3.282-3.091V39.57c0-1.707-1.469-3.092-3.282-3.092H435.25zm16.406 48.226c0-1.707 1.469-3.091 3.282-3.091h11.812c1.812 0 3.281 1.384 3.281 3.091v2.473c0 1.708-1.469 3.092-3.281 3.092h-11.812c-1.813 0-3.282-1.384-3.282-3.092v-2.473zM435.25 69.866c-1.812 0-3.281 1.384-3.281 3.091v2.473c0 1.707 1.469 3.091 3.281 3.091h31.5c1.812 0 3.281-1.384 3.281-3.09v-2.474c0-1.707-1.469-3.091-3.281-3.091h-31.5z" fill="url(#e)" fill-opacity=".5"/><defs><radialGradient id="a" cx="0" cy="0" r="1" gradientUnits="userSpaceOnUse" gradientTransform="rotate(46.017 .01 -32.652) scale(178.962 698.436)"><stop stop-color="#CA72B7"/><stop offset=".43" stop-color="#914680"/><stop offset="1" stop-color="#3F2660"/></radialGradient><radialGradient id="b" cx="0" cy="0" r="1" gradientUnits="userSpaceOnUse" gradientTransform="rotate(46.017 52.01 89.8) scale(178.962 698.436)"><stop stop-color="#CA72B7"/><stop offset=".43" stop-color="#914680"/><stop offset="1" stop-color="#3F2660"/></radialGradient><radialGradient id="c" cx="0" cy="0" r="1" gradientUnits="userSpaceOnUse" gradientTransform="matrix(125.7582 128.7725 -502.73595 490.9679 184.324 -9.985)"><stop stop-color="#CA72B7"/><stop offset=".43" stop-color="#914680"/><stop offset="1" stop-color="#3F2660"/></radialGradient><radialGradient id="d" cx="0" cy="0" r="1" gradientUnits="userSpaceOnUse" gradientTransform="rotate(46.017 156.51 335.883) scale(178.962 698.436)"><stop stop-color="#CA72B7"/><stop offset=".43" stop-color="#914680"/><stop offset="1" stop-color="#3F2660"/></radialGradient><radialGradient id="e" cx="0" cy="0" r="1" gradientUnits="userSpaceOnUse" gradientTransform="rotate(46.017 208.51 458.335) scale(178.962 698.436)"><stop stop-color="#CA72B7"/><stop offset=".43" stop-color="#914680"/><stop offset="1" stop-color="#3F2660"/></radialGradient></defs></svg>