<svg width="457" height="457" fill="none" xmlns="http://www.w3.org/2000/svg"><path fill-rule="evenodd" clip-rule="evenodd" d="M58.139 452.944a4.056 4.056 0 0 0 8.112 0v-54.085h74.815v54.085a4.056 4.056 0 0 0 8.113 0v-54.085h74.814v54.085a4.056 4.056 0 0 0 8.113 0v-54.085h.013l.437.001.438-.001h73.926v54.085a4.056 4.056 0 0 0 8.113 0v-54.085h75.715v54.085a4.056 4.056 0 0 0 8.113 0v-47.708l41.783 41.784a4.057 4.057 0 0 0 5.737-5.737l-42.424-42.424h48.987a4.056 4.056 0 0 0 0-8.112h-54.083v-75.715h54.083a4.056 4.056 0 0 0 0-8.113h-54.083v-41.297a170.729 170.729 0 0 0 4.019-33.516h50.064a4.056 4.056 0 0 0 0-8.113h-50.085a170.653 170.653 0 0 0-3.998-32.617v-42.197h54.083a4.056 4.056 0 0 0 0-8.113h-54.083V66.25h54.083a4.056 4.056 0 0 0 0-8.112h-48.982l43.72-43.72a4.056 4.056 0 1 0-5.737-5.736l-43.084 43.084V4.056a4.056 4.056 0 0 0-8.113 0v54.082h-75.715V4.056a4.056 4.056 0 0 0-8.113 0v54.082H232.106V4.056a4.056 4.056 0 0 0-8.113 0v54.082h-74.814V4.056a4.056 4.056 0 0 0-8.113 0v54.082H66.251V4.056a4.056 4.056 0 0 0-8.112 0v48.986L15.718 10.62a4.056 4.056 0 0 0-5.736 5.736l41.78 41.781H4.057a4.056 4.056 0 1 0 0 8.113H58.14v74.815H4.056a4.056 4.056 0 1 0 0 8.113H58.14v74.814H4.056a4.056 4.056 0 1 0 0 8.113H58.14v74.813H4.056a4.056 4.056 0 1 0 0 8.113H58.14v75.715H4.056a4.056 4.056 0 1 0 0 8.112h47.712L8.68 441.946a4.057 4.057 0 0 0 5.736 5.737l43.722-43.722v48.983zM306.92 66.25h-22.269a169.188 169.188 0 0 1 22.269 8.932v-8.931zm0 15.634a163.196 163.196 0 0 0-47.942-15.633h-26.872v74.815h74.814V81.884zm8.113 53.71V86.298a164.916 164.916 0 0 1 28.414 20.883l-28.414 28.413zm-8.113 19.586-12.657 12.656a86.852 86.852 0 0 1 12.657 16.39V155.18zm8.113 47.061v-53.062h61.512a163.362 163.362 0 0 1 14.203 34.558v40.256h-71.774a86.314 86.314 0 0 0-3.941-21.752zm-8.113 29.865v27.36a80.653 80.653 0 0 1-16.9 25.457l-52.817-52.817h69.717zm0-34.572v26.459h-68.813l51.914-51.914a80.641 80.641 0 0 1 16.899 25.455zm0 75.241v29.048l-12.657-12.658a86.893 86.893 0 0 0 12.657-16.39zm8.113 34.144V254.76a86.28 86.28 0 0 0 3.982-22.654h71.733v41.155a163.283 163.283 0 0 1-13.71 33.658h-62.005zm-8.113 8.113h-73.871l-.286.001h-.207l-.45-.001v75.715h26.875a163.166 163.166 0 0 0 47.939-15.633v-60.082zm8.113 55.668v-49.292l28.411 28.412a164.937 164.937 0 0 1-28.411 20.88zm-8.113 11.116a169.131 169.131 0 0 1-22.267 8.931h22.267v-8.931zm8.113 8.931V377.6a170.806 170.806 0 0 0 32.658-23.534l36.681 36.681h-69.339zm0-311.35V66.25h69.344l-36.684 36.684a170.851 170.851 0 0 0-32.66-23.536zm-134.574 311.35h-31.28v-13.65a169.393 169.393 0 0 0 31.28 13.65zm-39.393 0v-18.513a171.124 171.124 0 0 1-28.45-22.75l-41.263 41.263h69.713zm65.066 0a163.255 163.255 0 0 1-56.953-20.575v-55.14h74.814v75.715h-17.861zm-65.066-25.684v-44.029l-24.207 24.207a165.085 165.085 0 0 0 24.207 19.822zm25.309-80.811-17.196 17.197v-49.714a86.302 86.302 0 0 0 17.196 32.517zm-25.309 22.667v-74.813H68.234c.583 27.052 7.701 52.496 19.84 74.813h52.992zm25.308-134.169a86.31 86.31 0 0 0-17.195 32.516v-49.712l17.195 17.196zm-25.308 51.243v-74.814H88.567c-12.303 22.286-19.582 47.733-20.311 74.814h72.81zm82.927-82.927h-74.814v-54.24a163.273 163.273 0 0 1 56.956-20.575h17.858v74.815zm-82.927-5.097V91.935a165.165 165.165 0 0 0-24.209 19.824l24.209 24.21zm39.395-69.718a169.387 169.387 0 0 0-31.282 13.65v-13.65h31.282zm-39.395 18.513V66.251H71.348l41.266 41.266a171.15 171.15 0 0 1 28.452-22.753zm249.682-13.412-37.207 37.207a171.09 171.09 0 0 1 25.259 32.507h11.948V71.351zm0 77.827h-7.384a169.656 169.656 0 0 1 7.384 15.967v-15.967zm0 142.673a169.578 169.578 0 0 1-6.913 15.067h6.913v-15.067zm0 23.18h-11.413a171.013 171.013 0 0 1-25.796 33.409l37.209 37.21v-70.619zm-18.428 0a165.109 165.109 0 0 1-23.024 29.167l-29.167-29.167h52.191zm-71.776-8.113-12.237-12.236a86.572 86.572 0 0 1-19.118 12.236h31.355zm-16.496-16.496-51.942-51.942v68.438h18.86a80.264 80.264 0 0 0 33.082-16.496zm-60.055-141.244v69.717l-47.859-47.859c11.376-11.17 26.053-18.989 42.434-21.858h5.425zm-6.375 74.814-46.985-46.984c-10.722 12.881-17.502 29.16-18.485 46.984h65.47zm-19.698-74.814a86.67 86.67 0 0 0-26.029 17.615l-17.615-17.615h43.644zm-63.229-8.113-23.455-23.455a165.009 165.009 0 0 0-17.881 23.455h41.336zm-27.702-27.702L66.251 72.627v68.439h20.062a170.946 170.946 0 0 1 20.676-27.702zm28.606 201.668-24.357 24.357a164.922 164.922 0 0 1-18.446-24.357h42.803zm19.586-8.113h40.743a86.705 86.705 0 0 1-24.032-16.712l-16.711 16.712zm20.954-20.954c10.342 10.155 23.413 17.54 38.012 20.954h9.846v-68.812l-47.858 47.858zm42.386-53.859-47.887 47.887c-10.904-13.098-17.73-29.71-18.531-47.887h66.418zm65.528-65.528-51.943 51.943v-69.342h14.439c14.104 2.47 26.946 8.61 37.504 17.399zm17.4-17.399-13.141 13.14a86.555 86.555 0 0 0-21.115-13.14h34.256zm19.585-8.113h50.724a165.076 165.076 0 0 0-22.46-28.264l-28.264 28.264zm-214.043 202.57-40.74 40.74v-69.344h19.526a170.92 170.92 0 0 0 21.214 28.604zm-40.74-36.717h15.027A169.16 169.16 0 0 1 66.25 265.62v41.299zm0-115.541a169.16 169.16 0 0 1 15.498-42.199H66.25v42.199z" fill="#2C2939"/></svg>