<svg width="300" height="300" fill="none" xmlns="http://www.w3.org/2000/svg"><circle cx="150" cy="150" r="150" fill="url(#a)"/><g opacity=".8"><path d="M94.096 43.59a4.66 4.66 0 0 0-5.494 0c-14.135 10.384-28.37 11.55-35.72 11.298-2.659-.091-5.107 1.993-5.107 4.654v60.239a29.117 29.117 0 0 0 4.206 15.087 29.092 29.092 0 0 0 11.412 10.721l25.987 13.578a4.218 4.218 0 0 0 3.904.001l25.993-13.579a29.114 29.114 0 0 0 15.618-25.808V59.544c0-2.662-2.449-4.746-5.109-4.656-7.343.25-21.559-.917-35.69-11.298z" fill="url(#b)" fill-opacity=".3"/><path fill-rule="evenodd" clip-rule="evenodd" d="M51.99 119.783a24.9 24.9 0 0 0 13.356 22.071l25.986 13.577 25.992-13.577a24.89 24.89 0 0 0 13.355-22.071v-60.24c0-.008 0-.02-.013-.047a.555.555 0 0 0-.134-.166.899.899 0 0 0-.602-.229c-7.937.27-23.193-.994-38.33-12.113a.42.42 0 0 0-.25-.078.421.421 0 0 0-.252.078C75.956 58.11 60.68 59.373 52.738 59.1a.896.896 0 0 0-.6.228.554.554 0 0 0-.134.166c-.013.027-.013.038-.013.047v60.241zm36.612-76.192a4.66 4.66 0 0 1 5.494 0c14.131 10.38 28.347 11.547 35.69 11.297 2.66-.09 5.109 1.994 5.109 4.656v60.237a29.114 29.114 0 0 1-15.618 25.808l-25.993 13.579a4.218 4.218 0 0 1-3.904-.001l-25.987-13.578a29.092 29.092 0 0 1-11.412-10.721 29.117 29.117 0 0 1-4.206-15.087V59.542c0-2.66 2.448-4.745 5.108-4.654 7.349.251 21.584-.914 35.72-11.297z" fill="url(#c)"/><path fill-rule="evenodd" clip-rule="evenodd" d="M47.872 99.713v20.068a29.14 29.14 0 0 0 4.2 15.087 29.072 29.072 0 0 0 11.4 10.721l25.955 13.576a4.213 4.213 0 0 0 1.956.481V99.713h43.512V59.545c0-2.662-2.449-4.747-5.109-4.657-7.336.25-21.53-.92-35.64-11.294-.817-.6-1.79-.9-2.763-.897v57.016H47.872z" fill="url(#d)" fill-opacity=".3"/><path fill-rule="evenodd" clip-rule="evenodd" d="M91.378 159.646h.005V99.713h43.512V59.545c0-2.662-2.449-4.747-5.109-4.657-7.085.241-20.564-.842-34.187-10.258-.484-.335-.969-.68-1.453-1.036a4.636 4.636 0 0 0-2.734-.897h-.029v57.016H47.872v20.068a29.14 29.14 0 0 0 4.2 15.087 29.072 29.072 0 0 0 11.4 10.721l25.955 13.576c.611.32 1.281.48 1.951.481zm-4.21-6.42v-49.297H52.087v15.854a24.924 24.924 0 0 0 3.593 12.904 24.863 24.863 0 0 0 9.746 9.167l.001.001 21.74 11.371zm8.43-57.728h35.082V59.545c0-.009-.001-.02-.014-.048a.554.554 0 0 0-.134-.166.901.901 0 0 0-.603-.23c-7.24.246-20.565-.788-34.33-9.424v45.82z" fill="url(#e)"/></g><path fill-rule="evenodd" clip-rule="evenodd" d="M150 225.527c41.713 0 75.527-33.815 75.527-75.527 0-41.713-33.814-75.527-75.527-75.527-41.712 0-75.527 33.814-75.527 75.527 0 41.712 33.815 75.527 75.527 75.527zm0 2.81c43.265 0 78.338-35.073 78.338-78.337 0-43.265-35.073-78.337-78.338-78.337-43.264 0-78.337 35.072-78.337 78.337 0 43.264 35.073 78.337 78.337 78.337z" fill="url(#f)" fill-opacity=".4"/><path d="M94.145 173.536c0-.776.63-1.405 1.406-1.405h9.836c.776 0 1.405.629 1.405 1.405v1.405c0 .776-.629 1.406-1.405 1.406h-9.836c-.776 0-1.406-.63-1.406-1.406v-1.405z" fill="url(#g)"/><path d="M139.812 173.536c0-.776.63-1.405 1.406-1.405h9.836c.776 0 1.405.629 1.405 1.405v1.405c0 .776-.629 1.406-1.405 1.406h-9.836c-.776 0-1.406-.63-1.406-1.406v-1.405z" fill="url(#h)"/><path fill-rule="evenodd" clip-rule="evenodd" d="M141.029 123.845c-8.674-6.879-14.919-15.186-17.998-20.983l3.723-1.977c2.814 5.298 8.688 13.15 16.894 19.657 8.196 6.498 18.569 11.542 30.425 11.542v4.216c-13.088 0-24.358-5.568-33.044-12.455z" fill="url(#i)"/><path fill-rule="evenodd" clip-rule="evenodd" d="M207.117 123.845c8.674-6.879 14.919-15.186 17.998-20.983l-3.723-1.977c-2.814 5.298-8.688 13.15-16.894 19.657-8.196 6.498-18.569 11.542-30.425 11.542v4.216c13.088 0 24.358-5.568 33.044-12.455z" fill="url(#j)"/><path fill-rule="evenodd" clip-rule="evenodd" d="M196.3 107.52c0 12.275-9.951 22.227-22.227 22.227-12.275 0-22.227-9.952-22.227-22.227 0-12.276 9.952-22.227 22.227-22.227 12.276 0 22.227 9.951 22.227 22.227zm-12.225 0c0 5.524-4.478 10.002-10.002 10.002-5.524 0-10.002-4.478-10.002-10.002 0-1.025.154-2.015.441-2.946a5.002 5.002 0 1 0 6.616-6.616 9.998 9.998 0 0 1 2.945-.44c5.524 0 10.002 4.478 10.002 10.002z" fill="url(#k)" fill-opacity=".7"/><path fill-rule="evenodd" clip-rule="evenodd" d="M174.073 73.068c-29.671 0-46.444 22.146-51.122 29.778 14.561 0 20.884-2.059 27.046-4.067 5.858-1.908 11.571-3.77 24.076-3.77V73.069zm0 0c29.671 0 46.444 22.146 51.122 29.778-14.56 0-20.883-2.059-27.046-4.067-5.858-1.908-11.571-3.77-24.076-3.77V73.069z" fill="url(#l)"/><path fill-rule="evenodd" clip-rule="evenodd" d="M90.632 176.346c-5.82 0-10.538 4.719-10.538 10.539v39.344c0 5.821 4.718 10.539 10.538 10.539h64.637c5.821 0 10.539-4.718 10.539-10.539v-39.344c0-5.82-4.718-10.539-10.539-10.539H90.632zm36.686 20.527c0 1.717-.99 3.202-2.431 3.916l1.995 7.876h-7.862l1.995-7.876a4.367 4.367 0 1 1 6.303-3.916z" fill="url(#m)" fill-opacity=".5"/><path fill-rule="evenodd" clip-rule="evenodd" d="M95.2 147.892c0-15.521 12.581-28.103 28.102-28.103s28.103 12.582 28.103 28.103v28.454h-10.538v-28.454c0-9.7-7.864-17.564-17.565-17.564-9.7 0-17.564 7.864-17.564 17.564v28.454H95.199v-28.454z" fill="url(#n)" fill-opacity=".6"/><path fill-rule="evenodd" clip-rule="evenodd" d="M98.36 230.445c0-5.433 4.404-9.836 9.836-9.836h28.806c5.432 0 9.836 4.403 9.836 9.836v6.323h-2.81v-6.323a7.026 7.026 0 0 0-7.026-7.026h-28.806a7.025 7.025 0 0 0-7.025 7.026v6.323h-2.81v-6.323z" fill="url(#o)"/><path fill-rule="evenodd" clip-rule="evenodd" d="M196.019 93.443c-5.433 0-9.836 4.403-9.836 9.836v101.873a9.835 9.835 0 0 0 9.836 9.836h49.18c5.432 0 9.836-4.403 9.836-9.836V103.279c0-5.433-4.404-9.836-9.836-9.836h-49.18zm2.107 5.62a6.323 6.323 0 0 0-6.323 6.323v86.417a6.323 6.323 0 0 0 6.323 6.323h44.965a6.323 6.323 0 0 0 6.323-6.323v-86.417a6.323 6.323 0 0 0-6.323-6.323h-44.965z" fill="url(#p)"/><path d="M191.803 105.386a6.323 6.323 0 0 1 6.323-6.323h44.965a6.323 6.323 0 0 1 6.323 6.323v86.417a6.323 6.323 0 0 1-6.323 6.323h-44.965a6.323 6.323 0 0 1-6.323-6.323v-86.417z" fill="#181818" fill-opacity=".5"/><path fill-rule="evenodd" clip-rule="evenodd" d="M220.609 204.45a2.107 2.107 0 1 0-.001 4.215 2.107 2.107 0 0 0 .001-4.215zm-4.918 2.107a4.918 4.918 0 1 1 9.836 0 4.918 4.918 0 0 1-9.836 0z" fill="url(#q)"/><path fill-rule="evenodd" clip-rule="evenodd" d="M227.635 141.218a7.025 7.025 0 0 1-3.912 6.299l3.209 12.67h-12.646l3.208-12.67a7.026 7.026 0 1 1 10.141-6.299z" fill="url(#r)"/><defs><radialGradient id="a" cx="0" cy="0" r="1" gradientUnits="userSpaceOnUse" gradientTransform="rotate(90 0 150) scale(150)"><stop stop-color="#1D1B24"/><stop offset="1" stop-color="#312E3E" stop-opacity="0"/></radialGradient><radialGradient id="r" cx="0" cy="0" r="1" gradientUnits="userSpaceOnUse" gradientTransform="matrix(21.42854 32.66977 -27.76066 18.20858 212.529 133.841)"><stop stop-color="#CA72B7"/><stop offset=".238" stop-color="#914680"/><stop offset="1" stop-color="#3F2660"/></radialGradient><radialGradient id="p" cx="0" cy="0" r="1" gradientUnits="userSpaceOnUse" gradientTransform="rotate(53.186 3.954 214.716) scale(170.002 636.964)"><stop stop-color="#CA72B7"/><stop offset=".43" stop-color="#914680"/><stop offset="1" stop-color="#3F2660"/></radialGradient><radialGradient id="d" cx="0" cy="0" r="1" gradientUnits="userSpaceOnUse" gradientTransform="rotate(35.091 -72.071 84.252) scale(138.91 566.757)"><stop stop-color="#CA72B7"/><stop offset=".378" stop-color="#914680"/><stop offset="1" stop-color="#3F2660"/></radialGradient><radialGradient id="m" cx="0" cy="0" r="1" gradientUnits="userSpaceOnUse" gradientTransform="rotate(28.081 -309.954 214.083) scale(143.734 466.225)"><stop stop-color="#CA72B7"/><stop offset=".43" stop-color="#914680"/><stop offset="1" stop-color="#3F2660"/></radialGradient><radialGradient id="l" cx="0" cy="0" r="1" gradientUnits="userSpaceOnUse" gradientTransform="matrix(113.86255 29.2559 -50.86518 197.96477 126.669 81.95)"><stop stop-color="#CA72B7"/><stop offset=".43" stop-color="#914680"/><stop offset="1" stop-color="#3F2660"/></radialGradient><radialGradient id="g" cx="0" cy="0" r="1" gradientUnits="userSpaceOnUse" gradientTransform="matrix(26.69782 2.62848 -2.66522 27.07102 94.146 173.718)"><stop stop-color="#CA72B7"/><stop offset=".43" stop-color="#914680"/><stop offset="1" stop-color="#3F2660"/></radialGradient><radialGradient id="h" cx="0" cy="0" r="1" gradientUnits="userSpaceOnUse" gradientTransform="matrix(26.69782 2.62848 -2.66522 27.07102 139.813 173.718)"><stop stop-color="#CA72B7"/><stop offset=".43" stop-color="#914680"/><stop offset="1" stop-color="#3F2660"/></radialGradient><radialGradient id="k" cx="0" cy="0" r="1" gradientUnits="userSpaceOnUse" gradientTransform="matrix(49.50553 43.67403 -156.2894 177.1577 153.463 98.55)"><stop stop-color="#CA72B7"/><stop offset=".43" stop-color="#914680"/><stop offset="1" stop-color="#3F2660"/></radialGradient><radialGradient id="b" cx="0" cy="0" r="1" gradientUnits="userSpaceOnUse" gradientTransform="matrix(113.78662 79.79655 -325.36652 463.9594 35.225 56.797)"><stop stop-color="#CA72B7"/><stop offset=".378" stop-color="#914680"/><stop offset="1" stop-color="#3F2660"/></radialGradient><linearGradient id="i" x1="124.894" y1="118.153" x2="181.351" y2="118.164" gradientUnits="userSpaceOnUse"><stop offset=".498" stop-color="#B361A1"/><stop offset="1" stop-color="#4D2B65"/></linearGradient><linearGradient id="f" x1="108.488" y1="110.496" x2="260.476" y2="188.164" gradientUnits="userSpaceOnUse"><stop stop-color="#CE88BF"/><stop offset=".259" stop-color="#B361A1"/><stop offset="1" stop-color="#4D2B65"/></linearGradient><linearGradient id="e" x1="47.873" y1="101.246" x2="147.772" y2="101.255" gradientUnits="userSpaceOnUse"><stop offset=".498" stop-color="#B361A1"/><stop offset="1" stop-color="#4D2B65"/></linearGradient><linearGradient id="n" x1="100.469" y1="179.433" x2="147.778" y2="179.433" gradientUnits="userSpaceOnUse"><stop offset=".285" stop-color="#B361A1"/><stop offset="1" stop-color="#4D2B65"/></linearGradient><linearGradient id="o" x1="99.766" y1="231.373" x2="152.191" y2="231.389" gradientUnits="userSpaceOnUse"><stop offset=".498" stop-color="#B361A1"/><stop offset="1" stop-color="#4D2B65"/></linearGradient><linearGradient id="c" x1="47.777" y1="101.263" x2="147.786" y2="101.272" gradientUnits="userSpaceOnUse"><stop offset=".498" stop-color="#B361A1"/><stop offset="1" stop-color="#4D2B65"/></linearGradient><linearGradient id="q" x1="212.529" y1="199.18" x2="233.266" y2="216.029" gradientUnits="userSpaceOnUse"><stop stop-color="#B361A1"/><stop offset="1" stop-color="#4D2B65"/></linearGradient><linearGradient id="j" x1="223.252" y1="118.153" x2="166.795" y2="118.164" gradientUnits="userSpaceOnUse"><stop offset=".498" stop-color="#B361A1"/><stop offset="1" stop-color="#4D2B65"/></linearGradient></defs></svg>