<svg width="300" height="300" fill="none" xmlns="http://www.w3.org/2000/svg"><circle cx="150" cy="150" r="150" fill="url(#a)"/><path fill-rule="evenodd" clip-rule="evenodd" d="M150.5 235.202c41.267 0 74.72-33.669 74.72-75.202s-33.453-75.202-74.72-75.202c-41.267 0-74.72 33.669-74.72 75.202s33.453 75.202 74.72 75.202zm0 2.798c42.802 0 77.5-34.922 77.5-78s-34.698-78-77.5-78S73 116.922 73 160s34.698 78 77.5 78z" fill="url(#b)" fill-opacity=".4"/><path fill-rule="evenodd" clip-rule="evenodd" d="M51 110.086C51 102.307 57.366 96 65.219 96h62.562c7.853 0 14.219 6.307 14.219 14.086v102.828c0 7.779-6.366 14.086-14.219 14.086H65.219C57.366 227 51 220.693 51 212.914V110.086zm24.883 14.086c0-1.945 1.591-3.521 3.555-3.521h27.015c1.963 0 3.555 1.576 3.555 3.521v2.817c0 1.945-1.592 3.522-3.555 3.522H79.437c-1.963 0-3.554-1.577-3.554-3.522v-2.817zm3.555 13.382c-1.964 0-3.555 1.576-3.555 3.521v2.817c0 1.945 1.591 3.522 3.555 3.522h12.796c1.964 0 3.555-1.577 3.555-3.522v-2.817c0-1.945-1.591-3.521-3.555-3.521H79.438zm17.773 54.935c0-1.945 1.591-3.521 3.555-3.521h12.796c1.964 0 3.555 1.576 3.555 3.521v2.817c0 1.945-1.591 3.522-3.555 3.522h-12.796c-1.964 0-3.555-1.577-3.555-3.522v-2.817zm-17.773-16.903c-1.964 0-3.555 1.577-3.555 3.522v2.817c0 1.945 1.591 3.521 3.555 3.521h34.124c1.964 0 3.555-1.576 3.555-3.521v-2.817c0-1.945-1.591-3.522-3.555-3.522H79.438z" fill="url(#c)" fill-opacity=".5"/><path fill-rule="evenodd" clip-rule="evenodd" d="M120.25 113.765h-46.5c-2.724 0-4.932 2.166-4.932 4.838v31.794c0 2.672 2.208 4.838 4.932 4.838h46.5c2.724 0 4.932-2.166 4.932-4.838v-31.794c0-2.672-2.208-4.838-4.932-4.838zM73.75 111c-4.28 0-7.75 3.404-7.75 7.603v31.794c0 4.199 3.47 7.603 7.75 7.603h46.5c4.28 0 7.75-3.404 7.75-7.603v-31.794c0-4.199-3.47-7.603-7.75-7.603h-46.5z" fill="url(#d)"/><path fill-rule="evenodd" clip-rule="evenodd" d="M120.25 168.765h-46.5c-2.724 0-4.932 2.166-4.932 4.838v31.794c0 2.672 2.208 4.838 4.932 4.838h46.5c2.724 0 4.932-2.166 4.932-4.838v-31.794c0-2.672-2.208-4.838-4.932-4.838zM73.75 166c-4.28 0-7.75 3.404-7.75 7.603v31.794c0 4.199 3.47 7.603 7.75 7.603h46.5c4.28 0 7.75-3.404 7.75-7.603v-31.794c0-4.199-3.47-7.603-7.75-7.603h-46.5z" fill="url(#e)"/><path fill-rule="evenodd" clip-rule="evenodd" d="M123 93.403c0-.775.629-1.403 1.406-1.403 3.837 0 6.652 1.168 8.908 2.943 2.142 1.685 3.746 3.9 5.222 5.937l.111.154c1.55 2.138 2.981 4.081 4.858 5.521 1.82 1.398 4.105 2.351 7.407 2.351 3.711 0 6.42.372 8.618.952 2.198.58 3.832 1.357 5.346 2.085l.103.049c1.475.71 2.829 1.362 4.609 1.856 1.814.503 4.119.854 7.43.854 2.939 0 4.927-1.188 6.524-3.055 1.662-1.944 2.866-4.584 4.138-7.459l.146-.332c1.189-2.69 2.463-5.574 4.25-7.786 1.928-2.387 4.512-4.07 8.235-4.07 4.05 0 6.643 2.977 8.455 6.586 1.787 3.559 3.073 8.232 4.314 12.742l.083.3c1.292 4.691 2.548 9.184 4.268 12.514 1.728 3.346 3.674 5.051 6.174 5.051 2.59 0 4.523-1.552 6.217-4.438 1.711-2.916 2.971-6.854 4.291-11.006l.033-.104c1.281-4.028 2.625-8.257 4.512-11.472 1.92-3.272 4.606-5.826 8.643-5.826 4.199 0 7.016 2.507 9.02 5.808 1.978 3.256 3.329 7.538 4.573 11.609l.212.693c1.192 3.908 2.312 7.576 3.809 10.339 1.579 2.912 3.342 4.397 5.679 4.397a1.404 1.404 0 1 1 0 2.807c-3.888 0-6.391-2.621-8.151-5.868-1.639-3.022-2.836-6.951-3.996-10.756l-.242-.793c-1.265-4.14-2.525-8.07-4.287-10.972-1.736-2.858-3.789-4.457-6.617-4.457-2.59 0-4.523 1.552-6.218 4.438-1.711 2.916-2.97 6.854-4.29 11.006l-.034.105c-1.28 4.028-2.624 8.256-4.511 11.471-1.921 3.272-4.606 5.826-8.643 5.826-4.126 0-6.799-2.944-8.673-6.572-1.882-3.643-3.211-8.449-4.48-13.056l-.032-.116c-1.281-4.654-2.506-9.104-4.168-12.412-1.689-3.365-3.564-5.037-5.941-5.037-2.703 0-4.536 1.155-6.047 3.025-1.548 1.917-2.69 4.498-3.941 7.328l-.071.162c-1.239 2.799-2.595 5.836-4.572 8.148-2.044 2.39-4.775 4.039-8.662 4.039-3.517 0-6.082-.373-8.183-.957-2.025-.562-3.575-1.308-5.028-2.007l-.151-.073c-1.498-.721-2.926-1.393-4.845-1.9-1.919-.507-4.38-.859-7.899-.859-3.926 0-6.813-1.16-9.121-2.932-2.253-1.73-3.909-4.014-5.421-6.102l-.004-.005c-1.555-2.145-2.961-4.086-4.792-5.527-1.772-1.394-3.978-2.34-7.168-2.34A1.404 1.404 0 0 1 123 93.403z" fill="url(#f)" fill-opacity=".5"/><path fill-rule="evenodd" clip-rule="evenodd" d="m206.312 223.13 51.501-23.43.002-.001a.63.63 0 0 0 0-1.143h-.002l-51.501-23.431a11.612 11.612 0 0 0-9.624 0l-51.509 23.434a.622.622 0 0 0-.364.569.628.628 0 0 0 .364.568l.004.002 51.505 23.432a11.613 11.613 0 0 0 9.624 0zm52.674-20.875a3.444 3.444 0 0 0 2.009-3.127 3.441 3.441 0 0 0-2.009-3.127l-51.505-23.433a14.447 14.447 0 0 0-11.962 0l-51.504 23.433a3.437 3.437 0 0 0-2.017 3.127 3.427 3.427 0 0 0 2.017 3.127l51.504 23.432a14.436 14.436 0 0 0 11.962 0l51.505-23.432z" fill="url(#g)"/><path d="m258.986 187.091-51.505 23.432a14.436 14.436 0 0 1-11.962 0l-51.504-23.432a3.436 3.436 0 0 1-1.468-4.991 3.433 3.433 0 0 1 1.468-1.268l51.504-23.433a14.45 14.45 0 0 1 11.962 0l51.505 23.433a3.443 3.443 0 0 1 0 6.259z" fill="url(#h)" fill-opacity=".8"/><path fill-rule="evenodd" clip-rule="evenodd" d="m206.312 193.86 51.501-23.431.001-.001a.622.622 0 0 0 .364-.571.633.633 0 0 0-.364-.572h-.001l-51.501-23.436a11.615 11.615 0 0 0-9.624 0l-51.51 23.44a.628.628 0 0 0 0 1.136l.005.002 51.505 23.433a11.627 11.627 0 0 0 9.624 0zm52.673-20.876a3.438 3.438 0 0 0 0-6.254l-51.505-23.438a14.446 14.446 0 0 0-11.961 0l-51.505 23.438a3.437 3.437 0 0 0-1.469 1.266 3.44 3.44 0 0 0 0 3.721c.358.555.868.995 1.469 1.267l51.505 23.432a14.433 14.433 0 0 0 11.961 0l51.505-23.432z" fill="url(#i)"/><path fill-rule="evenodd" clip-rule="evenodd" d="M159.5 148c22.368 0 40.5-18.356 40.5-41s-18.132-41-40.5-41S119 84.356 119 107s18.132 41 40.5 41zm0-10.097c-16.859 0-30.527-13.836-30.527-30.903s13.668-30.903 30.527-30.903S190.027 89.933 190.027 107s-13.668 30.903-30.527 30.903z" fill="url(#j)" fill-opacity=".5"/><path fill-rule="evenodd" clip-rule="evenodd" d="M154.078 137.453a30.344 30.344 0 0 1-11.523-4.716 30.844 30.844 0 0 1-11.25-13.878 31.272 31.272 0 0 1-1.738-17.866 31.036 31.036 0 0 1 8.359-15.833 30.435 30.435 0 0 1 15.64-8.463 30.202 30.202 0 0 1 17.649 1.76 30.63 30.63 0 0 1 13.708 11.389A31.132 31.132 0 0 1 190 104.923c.012.177.044.35.093.514.273.912 1.084 1.589 2.056 1.589h5.823c1.148 0 2.084-.943 2.025-2.103a41.273 41.273 0 0 0-.635-5.427 41.305 41.305 0 0 0-6.141-15.263 40.637 40.637 0 0 0-18.187-15.11 40.068 40.068 0 0 0-23.415-2.335 40.372 40.372 0 0 0-20.749 11.228 41.177 41.177 0 0 0-11.091 21.006 41.494 41.494 0 0 0 2.306 23.703 40.914 40.914 0 0 0 14.926 18.412 40.237 40.237 0 0 0 19.759 6.819c.226.016.452.03.678.041 1.146.06 2.077-.888 2.077-2.05v-5.895c0-.984-.668-1.805-1.569-2.081a2.238 2.238 0 0 0-.507-.094 30.2 30.2 0 0 1-3.371-.424z" fill="url(#k)"/><path fill-rule="evenodd" clip-rule="evenodd" d="M191.139 130.307c-1.676 3.77-4.15 7.01-8.158 7.01-3.644 0-6.218-1.803-8.168-4.274-1.828-2.315-3.204-5.338-4.498-8.182l-.149-.328c-1.379-3.026-2.69-5.834-4.409-7.905-1.665-2.006-3.633-3.226-6.378-3.226-5.641 0-8.082 3.841-10.906 8.553a39.25 39.25 0 0 1-.163.273c-2.658 4.441-5.779 9.654-12.896 9.654a1.412 1.412 0 0 1-1.414-1.41c0-.779.633-1.41 1.414-1.41 5.444 0 7.79-3.81 10.633-8.554l.051-.086c2.703-4.51 5.897-9.841 13.281-9.841 3.791 0 6.498 1.769 8.555 4.248 2.003 2.413 3.461 5.584 4.805 8.537l.076.166c1.356 2.977 2.607 5.724 4.219 7.766 1.59 2.013 3.418 3.199 5.947 3.199 2.166 0 3.958-1.697 5.573-5.333 1.579-3.553 2.709-8.346 3.852-13.32l.119-.517c1.086-4.729 2.201-9.585 3.756-13.29 1.563-3.723 3.888-7.037 7.761-7.037 2.065 0 3.668 1.184 4.883 2.81 1.203 1.61 2.161 3.822 2.97 6.32 1.589 4.91 2.738 11.387 3.867 17.755l.066.369c1.163 6.555 2.315 12.965 3.904 17.738.796 2.391 1.665 4.254 2.622 5.496.943 1.223 1.844 1.691 2.748 1.691 2.25 0 3.962-1.375 5.49-4.045 1.541-2.69 2.677-6.329 3.872-10.18l.032-.104c1.156-3.727 2.373-7.653 4.085-10.642 1.739-3.037 4.203-5.467 7.945-5.467 3.603 0 6.168 1.389 8.101 3.447 1.866 1.987 3.13 4.591 4.252 6.965l.178.376c1.092 2.313 2.066 4.376 3.361 5.922 1.294 1.544 2.849 2.495 5.168 2.495.781 0 1.414.632 1.414 1.411s-.633 1.41-1.414 1.41c-3.309 0-5.612-1.449-7.336-3.506-1.541-1.838-2.662-4.219-3.702-6.426l-.226-.479c-1.147-2.428-2.243-4.626-3.758-6.239-1.449-1.543-3.287-2.555-6.038-2.555-2.25 0-3.962 1.376-5.49 4.045-1.541 2.691-2.677 6.33-3.871 10.181l-.033.103c-1.156 3.728-2.373 7.654-4.085 10.642-1.739 3.038-4.203 5.467-7.945 5.467-2.091 0-3.732-1.162-4.989-2.793-1.243-1.611-2.232-3.825-3.064-6.326-1.668-5.01-2.854-11.646-4.005-18.135l-.041-.228c-1.149-6.479-2.27-12.798-3.799-17.521-.774-2.394-1.618-4.26-2.546-5.502-.917-1.228-1.777-1.675-2.616-1.675-1.938 0-3.607 1.624-5.153 5.306-1.459 3.477-2.527 8.125-3.642 12.975l-.085.373c-1.126 4.899-2.312 9.981-4.023 13.833z" fill="url(#l)"/><defs><linearGradient id="g" x1="142" y1="199.336" x2="294.095" y2="198.899" gradientUnits="userSpaceOnUse"><stop offset=".337" stop-color="#B361A1"/><stop offset=".884" stop-color="#4D2B65"/></linearGradient><linearGradient id="l" x1="135.416" y1="122.695" x2="272.34" y2="122.695" gradientUnits="userSpaceOnUse"><stop offset=".285" stop-color="#B361A1"/><stop offset="1" stop-color="#4D2B65"/></linearGradient><linearGradient id="k" x1="138.05" y1="86.338" x2="217.073" y2="126.227" gradientUnits="userSpaceOnUse"><stop stop-color="#CE88BF"/><stop offset=".259" stop-color="#B361A1"/><stop offset="1" stop-color="#4D2B65"/></linearGradient><linearGradient id="d" x1="66.001" y1="134.675" x2="137.175" y2="134.687" gradientUnits="userSpaceOnUse"><stop offset=".498" stop-color="#B361A1"/><stop offset="1" stop-color="#4D2B65"/></linearGradient><linearGradient id="e" x1="66.001" y1="189.675" x2="137.175" y2="189.687" gradientUnits="userSpaceOnUse"><stop offset=".498" stop-color="#B361A1"/><stop offset="1" stop-color="#4D2B65"/></linearGradient><linearGradient id="f" x1="124.408" y1="111.005" x2="275.852" y2="111.005" gradientUnits="userSpaceOnUse"><stop offset=".285" stop-color="#B361A1"/><stop offset="1" stop-color="#4D2B65"/></linearGradient><linearGradient id="b" x1="109.432" y1="120.667" x2="260.194" y2="197.214" gradientUnits="userSpaceOnUse"><stop stop-color="#CE88BF"/><stop offset=".259" stop-color="#B361A1"/><stop offset="1" stop-color="#4D2B65"/></linearGradient><linearGradient id="j" x1="78.154" y1="38.316" x2="215.484" y2="146.358" gradientUnits="userSpaceOnUse"><stop stop-color="#B361A1"/><stop offset="1" stop-color="#4D2B65"/></linearGradient><linearGradient id="i" x1="142" y1="170.062" x2="278.604" y2="170.099" gradientUnits="userSpaceOnUse"><stop offset=".498" stop-color="#B361A1"/><stop offset="1" stop-color="#4D2B65"/></linearGradient><radialGradient id="h" cx="0" cy="0" r="1" gradientUnits="userSpaceOnUse" gradientTransform="matrix(128.7867 11.77633 -16.7049 182.68584 142 177.078)"><stop stop-color="#CA72B7"/><stop offset=".43" stop-color="#914680"/><stop offset="1" stop-color="#3F2660"/></radialGradient><radialGradient id="c" cx="0" cy="0" r="1" gradientUnits="userSpaceOnUse" gradientTransform="matrix(134.6357 146.68886 -570.7427 523.84578 34.217 84.626)"><stop stop-color="#CA72B7"/><stop offset=".43" stop-color="#914680"/><stop offset="1" stop-color="#3F2660"/></radialGradient><radialGradient id="a" cx="0" cy="0" r="1" gradientUnits="userSpaceOnUse" gradientTransform="rotate(90 0 150) scale(150)"><stop stop-color="#1D1B24"/><stop offset="1" stop-color="#312E3E" stop-opacity="0"/></radialGradient></defs></svg>