<svg width="300" height="300" viewBox="0 0 300 300" fill="none" xmlns="http://www.w3.org/2000/svg">
<circle cx="150" cy="150" r="150" fill="url(#paint0_radial_48_2784)"/>
<g opacity="0.8">
<path d="M94.0961 43.5904C92.4704 42.3962 90.2278 42.3963 88.6022 43.5906C74.4675 53.9743 60.232 55.1393 52.8825 54.8879C50.2232 54.7969 47.7754 56.8813 47.7754 59.5422V119.781C47.7731 125.1 49.2276 130.318 51.981 134.868C54.7344 139.418 58.6814 143.126 63.3932 145.589L89.3804 159.167C90.6033 159.806 92.0614 159.806 93.2843 159.168L119.277 145.589C123.989 143.126 127.936 139.418 130.689 134.868C133.443 130.318 134.897 125.1 134.895 119.781V59.5437C134.895 56.8823 132.446 54.7975 129.786 54.8882C122.443 55.1385 108.227 53.9705 94.0961 43.5904Z" fill="url(#paint1_radial_48_2784)" fill-opacity="0.3"/>
<path fill-rule="evenodd" clip-rule="evenodd" d="M51.9908 119.783C51.9889 124.332 53.2328 128.794 55.5875 132.685C57.9422 136.576 61.3174 139.747 65.3464 141.854L91.3325 155.431L117.324 141.854C121.353 139.747 124.728 136.576 127.083 132.685C129.437 128.794 130.681 124.332 130.679 119.783V59.5437C130.679 59.535 130.679 59.5236 130.666 59.4958C130.65 59.462 130.611 59.4002 130.532 59.3298C130.357 59.1739 130.124 59.0945 129.93 59.1012C121.993 59.3717 106.737 58.1066 91.6006 46.9878C91.5382 46.9419 91.4525 46.9103 91.3493 46.9103C91.2462 46.9103 91.1604 46.9419 91.0979 46.9879C75.9564 58.1113 60.6802 59.3726 52.7384 59.1009C52.5445 59.0942 52.312 59.1734 52.1377 59.3289C52.059 59.3991 52.0202 59.4608 52.0042 59.4945C51.991 59.5222 51.9908 59.5335 51.9908 59.5422V119.783ZM88.6022 43.5906C90.2278 42.3963 92.4704 42.3962 94.0961 43.5904C108.227 53.9705 122.443 55.1385 129.786 54.8882C132.446 54.7975 134.895 56.8823 134.895 59.5437V119.781C134.897 125.1 133.443 130.318 130.689 134.868C127.936 139.418 123.989 143.126 119.277 145.589L93.2843 159.168C92.0614 159.806 90.6033 159.806 89.3804 159.167L63.3932 145.589C58.6814 143.126 54.7344 139.418 51.981 134.868C49.2276 130.318 47.7731 125.1 47.7754 119.781V59.5422C47.7754 56.8813 50.2232 54.7969 52.8825 54.8879C60.232 55.1393 74.4675 53.9743 88.6022 43.5906Z" fill="url(#paint2_linear_48_2784)"/>
<path fill-rule="evenodd" clip-rule="evenodd" d="M47.8716 99.7133V119.781C47.8693 125.1 49.3222 130.318 52.0726 134.868C54.8229 139.418 58.7655 143.126 63.4722 145.589L89.4269 159.165C90.0396 159.486 90.7115 159.646 91.3833 159.646V99.7133L134.895 99.7134V59.5448C134.895 56.8831 132.446 54.798 129.786 54.8884C122.45 55.1377 108.256 53.9677 94.1463 43.5941C93.3291 42.9933 92.3558 42.6943 91.3833 42.6973V99.7133H47.8716Z" fill="url(#paint3_radial_48_2784)" fill-opacity="0.3"/>
<path fill-rule="evenodd" clip-rule="evenodd" d="M91.3782 159.646C91.3799 159.646 91.3816 159.646 91.3833 159.646V99.7133L134.895 99.7134V59.5448C134.895 56.8831 132.446 54.798 129.786 54.8884C122.701 55.1292 109.222 54.0463 95.5988 44.6298C95.1147 44.2952 94.6305 43.9501 94.1463 43.5941C93.3371 42.9991 92.3748 42.7002 91.4118 42.6973C91.4023 42.6973 91.3928 42.6973 91.3833 42.6973V99.7133H47.8716V119.781C47.8693 125.1 49.3222 130.318 52.0726 134.868C54.8229 139.418 58.7655 143.126 63.4722 145.589L89.4269 159.165C90.0381 159.485 90.7081 159.645 91.3782 159.646ZM87.1678 153.226V103.929H52.087V119.783C52.0851 124.333 53.3279 128.796 55.6801 132.687C58.0321 136.578 61.403 139.748 65.426 141.854C65.4263 141.854 65.4267 141.855 65.4271 141.855L87.1678 153.226ZM95.5988 95.4979L130.68 95.4979V59.5448C130.68 59.5361 130.679 59.5247 130.666 59.4969C130.65 59.4629 130.611 59.401 130.532 59.3305C130.357 59.1744 130.123 59.0948 129.929 59.1014C122.689 59.3475 109.364 58.3125 95.5988 49.6769V95.4979Z" fill="url(#paint4_linear_48_2784)"/>
</g>
<path fill-rule="evenodd" clip-rule="evenodd" d="M150 225.527C191.713 225.527 225.527 191.712 225.527 150C225.527 108.287 191.713 74.4729 150 74.4729C108.288 74.4729 74.4734 108.287 74.4734 150C74.4734 191.712 108.288 225.527 150 225.527ZM150 228.337C193.265 228.337 228.338 193.264 228.338 150C228.338 106.735 193.265 71.6626 150 71.6626C106.736 71.6626 71.6631 106.735 71.6631 150C71.6631 193.264 106.736 228.337 150 228.337Z" fill="url(#paint5_linear_48_2784)" fill-opacity="0.4"/>
<path d="M94.1455 173.536C94.1455 172.76 94.7746 172.131 95.5507 172.131H105.387C106.163 172.131 106.792 172.76 106.792 173.536V174.941C106.792 175.717 106.163 176.347 105.387 176.347H95.5507C94.7746 176.347 94.1455 175.717 94.1455 174.941V173.536Z" fill="url(#paint6_radial_48_2784)"/>
<path d="M139.812 173.536C139.812 172.76 140.442 172.131 141.218 172.131H151.054C151.83 172.131 152.459 172.76 152.459 173.536V174.941C152.459 175.717 151.83 176.347 151.054 176.347H141.218C140.442 176.347 139.812 175.717 139.812 174.941V173.536Z" fill="url(#paint7_radial_48_2784)"/>
<path fill-rule="evenodd" clip-rule="evenodd" d="M141.029 123.845C132.355 116.966 126.11 108.659 123.031 102.862L126.754 100.885C129.568 106.183 135.442 114.035 143.648 120.542C151.844 127.04 162.217 132.084 174.073 132.084V136.3C160.985 136.3 149.715 130.732 141.029 123.845Z" fill="url(#paint8_linear_48_2784)"/>
<path fill-rule="evenodd" clip-rule="evenodd" d="M207.117 123.845C215.791 116.966 222.036 108.659 225.115 102.862L221.392 100.885C218.578 106.183 212.704 114.035 204.498 120.542C196.302 127.04 185.929 132.084 174.073 132.084V136.3C187.161 136.3 198.431 130.732 207.117 123.845Z" fill="url(#paint9_linear_48_2784)"/>
<path fill-rule="evenodd" clip-rule="evenodd" d="M196.3 107.52C196.3 119.795 186.349 129.747 174.073 129.747C161.798 129.747 151.846 119.795 151.846 107.52C151.846 95.2441 161.798 85.2927 174.073 85.2927C186.349 85.2927 196.3 95.2441 196.3 107.52ZM184.075 107.52C184.075 113.044 179.597 117.522 174.073 117.522C168.549 117.522 164.071 113.044 164.071 107.52C164.071 106.495 164.225 105.505 164.512 104.574C165.296 106.311 167.043 107.52 169.072 107.52C171.834 107.52 174.073 105.281 174.073 102.519C174.073 100.489 172.865 98.7424 171.128 97.9583C172.059 97.6718 173.048 97.5176 174.073 97.5176C179.597 97.5176 184.075 101.996 184.075 107.52Z" fill="url(#paint10_radial_48_2784)" fill-opacity="0.7"/>
<path fill-rule="evenodd" clip-rule="evenodd" d="M174.073 73.0679C144.402 73.0679 127.629 95.2143 122.951 102.846C137.512 102.846 143.835 100.787 149.997 98.7791C155.855 96.8709 161.568 95.0099 174.073 95.0099V73.0679ZM174.073 73.0679C203.744 73.0679 220.517 95.2143 225.195 102.846C210.635 102.846 204.312 100.787 198.149 98.7791C192.291 96.8709 186.578 95.0099 174.073 95.0099V73.0679Z" fill="url(#paint11_radial_48_2784)"/>
<path fill-rule="evenodd" clip-rule="evenodd" d="M90.6324 176.346C84.8121 176.346 80.0938 181.065 80.0938 186.885V226.229C80.0938 232.05 84.8121 236.768 90.6324 236.768H155.269C161.09 236.768 165.808 232.05 165.808 226.229V186.885C165.808 181.065 161.09 176.346 155.269 176.346H90.6324ZM127.318 196.873C127.318 198.59 126.328 200.075 124.887 200.789L126.882 208.665H122.951H119.02L121.015 200.789C119.574 200.075 118.584 198.59 118.584 196.873C118.584 194.461 120.539 192.506 122.951 192.506C125.363 192.506 127.318 194.461 127.318 196.873Z" fill="url(#paint12_radial_48_2784)" fill-opacity="0.5"/>
<path fill-rule="evenodd" clip-rule="evenodd" d="M95.1992 147.892C95.1992 132.371 107.781 119.789 123.302 119.789C138.823 119.789 151.405 132.371 151.405 147.892V176.346H140.867V147.892C140.867 138.192 133.003 130.328 123.302 130.328C113.602 130.328 105.738 138.192 105.738 147.892V176.346H95.1992V147.892Z" fill="url(#paint13_linear_48_2784)" fill-opacity="0.6"/>
<path fill-rule="evenodd" clip-rule="evenodd" d="M98.3604 230.445C98.3604 225.012 102.764 220.609 108.196 220.609H137.002C142.434 220.609 146.838 225.012 146.838 230.445V236.768H144.028V230.445C144.028 226.564 140.882 223.419 137.002 223.419H108.196C104.316 223.419 101.171 226.564 101.171 230.445V236.768H98.3604V230.445Z" fill="url(#paint14_linear_48_2784)"/>
<path fill-rule="evenodd" clip-rule="evenodd" d="M196.019 93.4426C190.586 93.4426 186.183 97.8464 186.183 103.279V205.152C186.183 210.585 190.586 214.988 196.019 214.988H245.199C250.631 214.988 255.035 210.585 255.035 205.152V103.279C255.035 97.8464 250.631 93.4426 245.199 93.4426H196.019ZM198.126 99.0632C194.634 99.0632 191.803 101.894 191.803 105.386V191.803C191.803 195.295 194.634 198.126 198.126 198.126H243.091C246.583 198.126 249.414 195.295 249.414 191.803V105.386C249.414 101.894 246.583 99.0632 243.091 99.0632H198.126Z" fill="url(#paint15_radial_48_2784)"/>
<path d="M191.803 105.386C191.803 101.894 194.634 99.0632 198.126 99.0632H243.091C246.583 99.0632 249.414 101.894 249.414 105.386V191.803C249.414 195.295 246.583 198.126 243.091 198.126H198.126C194.634 198.126 191.803 195.295 191.803 191.803V105.386Z" fill="#181818" fill-opacity="0.5"/>
<path fill-rule="evenodd" clip-rule="evenodd" d="M220.609 204.45C219.445 204.45 218.501 205.393 218.501 206.557C218.501 207.722 219.445 208.665 220.609 208.665C221.773 208.665 222.717 207.722 222.717 206.557C222.717 205.393 221.773 204.45 220.609 204.45ZM215.691 206.557C215.691 203.841 217.893 201.639 220.609 201.639C223.325 201.639 225.527 203.841 225.527 206.557C225.527 209.274 223.325 211.475 220.609 211.475C217.893 211.475 215.691 209.274 215.691 206.557Z" fill="url(#paint16_linear_48_2784)"/>
<path fill-rule="evenodd" clip-rule="evenodd" d="M227.635 141.218C227.635 143.98 226.041 146.369 223.723 147.517L226.932 160.187H220.609H214.286L217.494 147.517C215.177 146.369 213.583 143.98 213.583 141.218C213.583 137.338 216.729 134.192 220.609 134.192C224.489 134.192 227.635 137.338 227.635 141.218Z" fill="url(#paint17_radial_48_2784)"/>
<defs>
<radialGradient id="paint0_radial_48_2784" cx="0" cy="0" r="1" gradientUnits="userSpaceOnUse" gradientTransform="translate(150 150) rotate(90) scale(150)">
<stop stop-color="#1D1B24"/>
<stop offset="1" stop-color="#312E3E" stop-opacity="0"/>
</radialGradient>
<radialGradient id="paint1_radial_48_2784" cx="0" cy="0" r="1" gradientUnits="userSpaceOnUse" gradientTransform="translate(35.2253 56.7975) rotate(35.0413) scale(138.978 566.676)">
<stop stop-color="#CA72B7"/>
<stop offset="0.377912" stop-color="#914680"/>
<stop offset="1" stop-color="#3F2660"/>
</radialGradient>
<linearGradient id="paint2_linear_48_2784" x1="47.777" y1="101.263" x2="147.786" y2="101.272" gradientUnits="userSpaceOnUse">
<stop offset="0.498067" stop-color="#B361A1"/>
<stop offset="1" stop-color="#4D2B65"/>
</linearGradient>
<radialGradient id="paint3_radial_48_2784" cx="0" cy="0" r="1" gradientUnits="userSpaceOnUse" gradientTransform="translate(35.3353 56.7466) rotate(35.0914) scale(138.91 566.757)">
<stop stop-color="#CA72B7"/>
<stop offset="0.377912" stop-color="#914680"/>
<stop offset="1" stop-color="#3F2660"/>
</radialGradient>
<linearGradient id="paint4_linear_48_2784" x1="47.8731" y1="101.246" x2="147.772" y2="101.255" gradientUnits="userSpaceOnUse">
<stop offset="0.498067" stop-color="#B361A1"/>
<stop offset="1" stop-color="#4D2B65"/>
</linearGradient>
<linearGradient id="paint5_linear_48_2784" x1="108.488" y1="110.496" x2="260.476" y2="188.164" gradientUnits="userSpaceOnUse">
<stop stop-color="#CE88BF"/>
<stop offset="0.25868" stop-color="#B361A1"/>
<stop offset="1" stop-color="#4D2B65"/>
</linearGradient>
<radialGradient id="paint6_radial_48_2784" cx="0" cy="0" r="1" gradientUnits="userSpaceOnUse" gradientTransform="translate(94.1456 173.718) rotate(5.62281) scale(26.8269 27.2019)">
<stop stop-color="#CA72B7"/>
<stop offset="0.430152" stop-color="#914680"/>
<stop offset="1" stop-color="#3F2660"/>
</radialGradient>
<radialGradient id="paint7_radial_48_2784" cx="0" cy="0" r="1" gradientUnits="userSpaceOnUse" gradientTransform="translate(139.813 173.718) rotate(5.62281) scale(26.8269 27.2019)">
<stop stop-color="#CA72B7"/>
<stop offset="0.430152" stop-color="#914680"/>
<stop offset="1" stop-color="#3F2660"/>
</radialGradient>
<linearGradient id="paint8_linear_48_2784" x1="124.894" y1="118.153" x2="181.351" y2="118.164" gradientUnits="userSpaceOnUse">
<stop offset="0.498067" stop-color="#B361A1"/>
<stop offset="1" stop-color="#4D2B65"/>
</linearGradient>
<linearGradient id="paint9_linear_48_2784" x1="223.252" y1="118.153" x2="166.795" y2="118.164" gradientUnits="userSpaceOnUse">
<stop offset="0.498067" stop-color="#B361A1"/>
<stop offset="1" stop-color="#4D2B65"/>
</linearGradient>
<radialGradient id="paint10_radial_48_2784" cx="0" cy="0" r="1" gradientUnits="userSpaceOnUse" gradientTransform="translate(153.463 98.5509) rotate(41.4189) scale(66.0168 236.244)">
<stop stop-color="#CA72B7"/>
<stop offset="0.430152" stop-color="#914680"/>
<stop offset="1" stop-color="#3F2660"/>
</radialGradient>
<radialGradient id="paint11_radial_48_2784" cx="0" cy="0" r="1" gradientUnits="userSpaceOnUse" gradientTransform="translate(126.669 81.9492) rotate(14.4099) scale(117.561 204.395)">
<stop stop-color="#CA72B7"/>
<stop offset="0.430152" stop-color="#914680"/>
<stop offset="1" stop-color="#3F2660"/>
</radialGradient>
<radialGradient id="paint12_radial_48_2784" cx="0" cy="0" r="1" gradientUnits="userSpaceOnUse" gradientTransform="translate(64.2858 171.1) rotate(28.0806) scale(143.734 466.225)">
<stop stop-color="#CA72B7"/>
<stop offset="0.430152" stop-color="#914680"/>
<stop offset="1" stop-color="#3F2660"/>
</radialGradient>
<linearGradient id="paint13_linear_48_2784" x1="100.469" y1="179.433" x2="147.778" y2="179.433" gradientUnits="userSpaceOnUse">
<stop offset="0.284722" stop-color="#B361A1"/>
<stop offset="1" stop-color="#4D2B65"/>
</linearGradient>
<linearGradient id="paint14_linear_48_2784" x1="99.7663" y1="231.373" x2="152.191" y2="231.389" gradientUnits="userSpaceOnUse">
<stop offset="0.498067" stop-color="#B361A1"/>
<stop offset="1" stop-color="#4D2B65"/>
</linearGradient>
<radialGradient id="paint15_radial_48_2784" cx="0" cy="0" r="1" gradientUnits="userSpaceOnUse" gradientTransform="translate(173.484 82.8893) rotate(53.1864) scale(170.002 636.964)">
<stop stop-color="#CA72B7"/>
<stop offset="0.430152" stop-color="#914680"/>
<stop offset="1" stop-color="#3F2660"/>
</radialGradient>
<linearGradient id="paint16_linear_48_2784" x1="212.529" y1="199.18" x2="233.266" y2="216.029" gradientUnits="userSpaceOnUse">
<stop stop-color="#B361A1"/>
<stop offset="1" stop-color="#4D2B65"/>
</linearGradient>
<radialGradient id="paint17_radial_48_2784" cx="0" cy="0" r="1" gradientUnits="userSpaceOnUse" gradientTransform="translate(212.529 133.841) rotate(56.7386) scale(39.0704 33.1995)">
<stop stop-color="#CA72B7"/>
<stop offset="0.237847" stop-color="#914680"/>
<stop offset="1" stop-color="#3F2660"/>
</radialGradient>
</defs>
</svg>
