<svg width="624" height="503" fill="none" xmlns="http://www.w3.org/2000/svg"><g clip-path="url(#a)"><path d="M573.287 633.232c80.916-148.505 44.686-268.049-23.669-298.891-68.356-30.842-134.456 13.716-182.651-67.023-48.195-80.739 19.145-112.815 33.637-133.844 14.492-21.028.31-51.92-29.004-52.977-12.082-.409-13.592 1.254-20.55-.54 8.632 11.215 15.19 8.866 25.822 11.81 10.632 2.944 19.229 21.362-12.419 34.593-31.648 13.23-77.183 48.274-77.377 109.621-.227 73.081 44.137 155.183 127.317 169.052 83.18 13.869 88.929 53.951 64.782 105.915" fill="url(#b)"/><path d="M414.762 405.522c-83.2-13.909-127.605-96.061-127.409-169.171.17-61.37 45.699-96.41 77.347-109.632 20.686-8.627 24.159-19.512 21.154-26.859 11.812 15.349-3.464 29.556-43.817 55.379-42.966 27.501-56.794 77.754-23.915 146.452 32.141 67.123 113.739 57.212 179.834 81.502 66.095 24.29 62.403 124.558 38.124 201.7l-56.508-73.423c24.157-51.939 18.391-92.039-64.81-105.948z" fill="url(#c)" fill-opacity=".4"/><path d="M67.115 244.342c-60.764 58.62-104 189 10 380l286-10c-74.5-57.833-209.8-197.5-155-293.5 68.5-120 31.5-187.5 0-220s-65.668-49.574-53-68c2.759-4.013 12.589-6.677 19-1.5 6.369 5.145 9.33 18.101 8.5 23.5 9.167-6.333 21-28 2-45.5-29.935-27.57-90 10-45 59s-30 135-72.5 176z" fill="url(#d)"/><path fill-rule="evenodd" clip-rule="evenodd" d="M183.084 54.507c1.592-4.031 3.33-9.871 3.031-14.664-.5-8-8-25-25.5-21s-20 21.5-8.5 33.5c.62.647 1.411 1.445 2.349 2.39 16.443 16.58 78.044 78.695 58.651 176.61-7.017 35.427-25.282 64.176-45.189 95.51-38.252 60.209-82.57 129.965-64.811 274.99.92 7.517 2.098 14.668 3.514 21.468l256.486-8.968c-74.5-57.834-209.8-197.5-155-293.5 68.5-120 31.5-187.5 0-220-9.379-9.676-18.993-17.985-27.538-25.37-20.156-17.417-34.359-29.69-25.462-42.63 2.759-4.013 12.589-6.678 19-1.5 6.369 5.144 9.33 18.1 8.5 23.5.155-.108.312-.22.469-.336z" fill="url(#e)" fill-opacity=".4"/><path d="M4.855 507.591C70.48 598 183.022 627.17 264.247 585.476c64.447-33.035 122.692-117.596 95.356-199.405-19.653-58.818-116.95-57.364-129.943-105.77-3.913-14.58-2.328-28.651 10.341-36.799 8.325-5.364 23.722-3.928 25.708 5.046 1.986 8.974-7.031 16.601-7.031 16.601a20.416 20.416 0 0 0 14.477-9.407c7.127-11.11 4.479-24.485-11.487-29.096-23.91-6.908-46.796-.139-61.821 23.047-17.305 26.74-10.572 65.587 8.846 87.734 24.832 28.296 44.362 25.338 63.126 52.001 16.886 23.93 21.32 49.487 8.559 71.26-22.092 37.736-71.617 56.431-125.504 44.295L4.855 507.591z" fill="url(#f)"/><path d="m154.942 504.86-97.097 1.688c10.194 8.7 69.166 57.171 147.357 43.199 14.451-2.576 84.299-14.754 105.049-71.384 9.081-24.722 10.197-59.648-6.991-85.91-18.825-28.703-43.234-22.293-74.395-62.772-11.362-14.758-18.842-29.692-20.979-47.227-1.122-9.719-2.91-25.064 6.66-38.556 11.841-16.68 32.66-18.744 39.748-18.996-21.136-3.531-40.87 4.042-54.309 24.741-17.33 26.733-10.589 65.568 8.855 87.708 24.865 28.287 44.422 25.33 63.212 51.984 16.909 23.923 21.348 49.472 8.568 71.239-22.123 37.726-71.717 56.417-125.678 44.286z" fill="url(#g)" fill-opacity=".4"/></g><defs><radialGradient id="b" cx="0" cy="0" r="1" gradientUnits="userSpaceOnUse" gradientTransform="matrix(-464.92466 -218.72738 288.2004 -612.59578 609.054 352.351)"><stop stop-color="#CA72B7"/><stop offset=".238" stop-color="#914680"/><stop offset="1" stop-color="#3F2660"/></radialGradient><radialGradient id="d" cx="0" cy="0" r="1" gradientUnits="userSpaceOnUse" gradientTransform="rotate(67.389 84.805 85.267) scale(739.359 849.992)"><stop stop-color="#CA72B7"/><stop offset=".238" stop-color="#914680"/><stop offset="1" stop-color="#3F2660"/></radialGradient><radialGradient id="f" cx="0" cy="0" r="1" gradientUnits="userSpaceOnUse" gradientTransform="rotate(-125.887 279.46 247.384) scale(505.125 767.691)"><stop stop-color="#CA72B7"/><stop offset=".238" stop-color="#914680"/><stop offset="1" stop-color="#3F2660"/></radialGradient><linearGradient id="c" x1="531.011" y1="288.469" x2="326.508" y2="429.877" gradientUnits="userSpaceOnUse"><stop stop-color="#272531"/><stop offset="1" stop-color="#272531" stop-opacity="0"/></linearGradient><linearGradient id="e" x1="231.096" y1="18.242" x2="423.782" y2="714.33" gradientUnits="userSpaceOnUse"><stop stop-color="#272531"/><stop offset="1" stop-color="#272531" stop-opacity="0"/></linearGradient><linearGradient id="g" x1="188.656" y1="552.08" x2="121.641" y2="157.306" gradientUnits="userSpaceOnUse"><stop stop-color="#272531"/><stop offset="1" stop-color="#272531" stop-opacity="0"/></linearGradient><clipPath id="a"><path fill="#fff" d="M0 0h624v503H0z"/></clipPath></defs></svg>