<svg width="223" height="376" fill="none" xmlns="http://www.w3.org/2000/svg"><path d="M0 98.095C17.186 12.144 142.472-38.88 202.13 37.01c59.98 76.281-50.693 151.37-8.077 214.115 42.616 62.746 34.128 116.099.699 122.549-42.295 8.055-46.988-22.025-46.988-22.025s29.069 21.168 33.729-8.188c4.66-29.357-40.142-44.174-67.314-101.705-21.78-46.134 7.989-92.335 7.989-120.432 0-32.12-24.31-23.229-24.31-23.229H0z" fill="url(#a)"/><path d="M153.5 266c-18.551-20.377-10.359-57.602-5-98.5s16.056-71.939-14-95c-30.057-23.062-68.107-1.143-86.292 25.595h49.65s24.31-8.913 24.31 23.229c0 28.097-29.768 74.298-7.989 120.432 25.83 54.735 67.569 70.711 67.68 97.393 1.054-25.245-10.796-53.909-28.359-73.149z" fill="url(#b)" fill-opacity=".4"/><defs><radialGradient id="a" cx="0" cy="0" r="1" gradientUnits="userSpaceOnUse" gradientTransform="rotate(66.591 50.8 51.632) scale(446.773 527.63)"><stop stop-color="#CA72B7"/><stop offset=".238" stop-color="#914680"/><stop offset="1" stop-color="#3F2660"/></radialGradient><linearGradient id="b" x1="115.066" y1="62.803" x2="195.5" y2="385" gradientUnits="userSpaceOnUse"><stop stop-color="#272531"/><stop offset="1" stop-color="#272531" stop-opacity="0"/></linearGradient></defs></svg>