<?xml version="1.0" encoding="utf-8"?>
<!-- Generator: Adobe Illustrator 26.0.1, SVG Export Plug-In . SVG Version: 6.00 Build 0)  -->
<svg version="1.1" id="Layer_1" xmlns="http://www.w3.org/2000/svg" xmlns:xlink="http://www.w3.org/1999/xlink" x="0px" y="0px"
	 viewBox="0 0 184 29.9" style="enable-background:new 0 0 184 29.9;" xml:space="preserve">
<style type="text/css">
	.st0{fill:#FFFFFF;}
</style>
<path class="st0" d="M62.4,10.4C62.4,3.9,57.6,0,50,0H38v29.1h5.4v-8.5H50c0.4,0,0.8,0,1.1,0l6,8.5h5.8l-6.7-9.6
	C60.1,18,62.4,14.8,62.4,10.4z M49.7,16.2h-6.3V4.6h6.3c4.7,0,7.2,2.1,7.2,5.8C56.9,14,54.5,16.2,49.7,16.2z"/>
<path class="st0" d="M85.8,4.7c1.5,0,2.9,0.3,4.3,0.9c1.3,0.6,2.5,1.5,3.5,2.6L97,4.9C94.3,1.7,90.2,0,85.5,0
	c-8.9,0-15.6,6.3-15.6,15c0,8.7,6.7,15,15.6,15c4.8,0,8.9-1.7,11.6-4.9l-3.5-3.3c-1,1.1-2.2,2-3.5,2.6c-1.3,0.6-2.8,0.9-4.3,0.9
	c-6,0-10.4-4.2-10.4-10.2C75.3,9,79.7,4.7,85.8,4.7z"/>
<path class="st0" d="M124.5,12h-15.1V0H104v29.1h5.4V16.6h15.1v12.5h5.4V0h-5.4V12z"/>
<path class="st0" d="M145.3,0h-5.4v29.1h5.4V0z"/>
<path class="st0" d="M168.1,0h-12.7v29.1h12.7c9.5,0,15.9-5.8,15.9-14.6C184,5.8,177.5,0,168.1,0z M167.8,24.6h-7.1v-20h7.1
	c6.5,0,10.7,4,10.7,10C178.5,20.6,174.3,24.6,167.8,24.6z"/>
<g>
	<path class="st0" d="M27,9.2c-3.4,3.2-8.2,3.8-12.7,4.3c-3.3,0.4-7,1.1-9.1,3.9c-1.9,2.5-1.3,6.1,0.7,8.3c0.4,0.6,1.7,1.7,1.9,1.6
		c-1.8-2.5-1.8-6.5,0.8-8.5c2.7-2.2,6.3-2.1,9.6-2.9c1.9-0.4,4-1,5.7-1.6c-2.5,2.2-5.8,3.1-8.9,4.1c-2.6,0.9-5.1,3.1-5.2,6
		c-0.1,2,0.9,4.5,3,5.1c5.6,1.3,11.7-1,15.1-5.5c3.8-4.8,4.1-12,0.7-17.2C28.2,7.8,27.6,8.6,27,9.2L27,9.2z"/>
	<path class="st0" d="M1,15c0,1.3,0.4,4.2,0.8,4.4C2.2,15.9,4.9,13.2,8,12c5.4-2.1,11.6-0.9,16.7-3.9c1.6-0.7,2.8-2.8,1.3-4.2
		c-0.7-0.5-1.8-1.7-1.1-0.2c0.2,1.9-1.6,3-3.2,3.5c-3.3,1-6.7,0.9-10.1,1.5C11.1,8.7,9.9,9,11.1,8.4c3.1-1.5,7.1-1.3,9.8-3.7
		c1.4-1.1,0.8-3.4-0.7-4c-1.9-0.8-4-0.8-6-0.6C8.2,0.8,2.9,5.4,1.5,11.2C1.2,12.5,1,13.7,1,15z"/>
</g>
</svg>
