<svg version="1.1" id="Layer_1" xmlns="http://www.w3.org/2000/svg" x="0" y="0" viewBox="0 0 184 29.9" style="enable-background:new 0 0 184 29.9" xml:space="preserve"><style>.st0{fill:#fff}</style><path class="st0" d="M62.4 10.4C62.4 3.9 57.6 0 50 0H38v29.1h5.4v-8.5H51.1l6 8.5h5.8l-6.7-9.6c3.9-1.5 6.2-4.7 6.2-9.1zm-12.7 5.8h-6.3V4.6h6.3c4.7 0 7.2 2.1 7.2 5.8 0 3.6-2.4 5.8-7.2 5.8zM85.8 4.7c1.5 0 2.9.3 4.3.9 1.3.6 2.5 1.5 3.5 2.6L97 4.9C94.3 1.7 90.2 0 85.5 0c-8.9 0-15.6 6.3-15.6 15s6.7 15 15.6 15c4.8 0 8.9-1.7 11.6-4.9l-3.5-3.3c-1 1.1-2.2 2-3.5 2.6-1.3.6-2.8.9-4.3.9-6 0-10.4-4.2-10.4-10.2C75.3 9 79.7 4.7 85.8 4.7zM124.5 12h-15.1V0H104v29.1h5.4V16.6h15.1v12.5h5.4V0h-5.4v12zM145.3 0h-5.4v29.1h5.4V0zM168.1 0h-12.7v29.1h12.7c9.5 0 15.9-5.8 15.9-14.6C184 5.8 177.5 0 168.1 0zm-.3 24.6h-7.1v-20h7.1c6.5 0 10.7 4 10.7 10s-4.2 10-10.7 10zM27 9.2c-3.4 3.2-8.2 3.8-12.7 4.3-3.3.4-7 1.1-9.1 3.9-1.9 2.5-1.3 6.1.7 8.3.4.6 1.7 1.7 1.9 1.6-1.8-2.5-1.8-6.5.8-8.5 2.7-2.2 6.3-2.1 9.6-2.9 1.9-.4 4-1 5.7-1.6-2.5 2.2-5.8 3.1-8.9 4.1-2.6.9-5.1 3.1-5.2 6-.1 2 .9 4.5 3 5.1 5.6 1.3 11.7-1 15.1-5.5 3.8-4.8 4.1-12 .7-17.2-.4 1-1 1.8-1.6 2.4z"/><path class="st0" d="M1 15c0 1.3.4 4.2.8 4.4.4-3.5 3.1-6.2 6.2-7.4 5.4-2.1 11.6-.9 16.7-3.9 1.6-.7 2.8-2.8 1.3-4.2-.7-.5-1.8-1.7-1.1-.2.2 1.9-1.6 3-3.2 3.5-3.3 1-6.7.9-10.1 1.5-.5 0-1.7.3-.5-.3 3.1-1.5 7.1-1.3 9.8-3.7 1.4-1.1.8-3.4-.7-4-1.9-.8-4-.8-6-.6C8.2.8 2.9 5.4 1.5 11.2 1.2 12.5 1 13.7 1 15z"/></svg>