<svg width="358" height="625" fill="none" xmlns="http://www.w3.org/2000/svg"><path d="M61.115 244.342c-60.764 58.62-104 189 10 380l286-10c-74.5-57.833-209.8-197.5-155-293.5 68.5-120 31.5-187.5 0-220s-65.668-49.574-53-68c2.759-4.013 12.589-6.677 19-1.5 6.369 5.145 9.33 18.101 8.5 23.5 9.167-6.333 21-28 2-45.5-29.935-27.57-90 10-45 59s-30 135-72.5 176z" fill="url(#a)" fill-opacity=".2"/><path fill-rule="evenodd" clip-rule="evenodd" d="M177.085 54.507c1.592-4.031 3.33-9.871 3.031-14.664-.5-8-8-25-25.5-21s-20 21.5-8.5 33.5c.62.647 1.411 1.445 2.349 2.39 16.443 16.58 78.044 78.695 58.651 176.61-7.017 35.427-25.282 64.176-45.189 95.51-38.252 60.209-82.57 129.965-64.811 274.99.92 7.517 2.097 14.668 3.514 21.468l256.486-8.968c-74.5-57.834-209.8-197.5-155-293.5 68.5-120 31.5-187.5 0-220-9.379-9.676-18.993-17.985-27.538-25.37-20.156-17.417-34.359-29.69-25.462-42.63 2.759-4.013 12.589-6.678 19-1.5 6.369 5.144 9.33 18.1 8.5 23.5.155-.108.312-.22.469-.336z" fill="#fff" fill-opacity=".1"/><defs><linearGradient id="a" x1="-9.885" y1="374.342" x2="266.615" y2="374.342" gradientUnits="userSpaceOnUse"><stop stop-color="#fff" stop-opacity="0"/><stop offset="1" stop-color="#fff"/></linearGradient></defs></svg>