<svg width="571" height="545" viewBox="0 0 571 545" fill="none" xmlns="http://www.w3.org/2000/svg">
<path d="M442.465 526.106C495.332 365.462 438.179 254.391 365.389 236.355C292.599 218.319 235.597 274.046 173.658 203.3C111.719 132.553 172.187 88.8807 182.657 65.5877C193.128 42.2948 173.617 14.4589 144.592 18.6957C132.633 20.4683 131.448 22.375 124.28 21.8628C134.789 31.3414 140.818 27.8504 151.806 28.8329C162.794 29.8154 174.566 46.3853 145.816 65.0955C117.066 83.8057 78.5816 126.473 89.4311 186.853C102.361 258.781 160.777 331.558 245.095 330.23C329.413 328.902 342.282 367.295 327.881 422.756" fill="url(#paint0_linear_48_2849)" fill-opacity="0.2"/>
<path d="M245.547 330.645C161.202 331.938 102.736 259.119 89.7713 187.167C78.8928 126.769 117.372 84.107 146.123 65.4044C164.919 53.1951 166.376 41.863 162.098 35.1774C176.48 48.1496 164.01 64.8736 128.964 97.538C91.6484 132.322 87.0907 184.244 131.797 245.903C175.494 306.145 253.976 281.71 323.364 293.708C392.751 305.705 407.165 405.001 397.166 485.253L328.367 423.199C342.782 367.76 329.892 329.353 245.547 330.645Z" fill="white" fill-opacity="0.1"/>
<defs>
<linearGradient id="paint0_linear_48_2849" x1="452" y1="255.5" x2="-8.66729e-06" y2="290.5" gradientUnits="userSpaceOnUse">
<stop stop-color="white" stop-opacity="0"/>
<stop offset="1" stop-color="white"/>
</linearGradient>
</defs>
</svg>
