<svg width="213" height="291" fill="none" xmlns="http://www.w3.org/2000/svg"><path d="M113.25 2.228a11.234 11.234 0 0 0-13.432 0C65.26 28.067 30.455 30.965 12.486 30.339 5.985 30.113 0 35.299 0 41.92v149.886c-.006 13.235 3.55 26.218 10.282 37.539 6.732 11.321 16.382 20.548 27.902 26.678l63.537 33.785a10.15 10.15 0 0 0 9.544 0l63.55-33.785c11.52-6.13 21.17-15.357 27.902-26.678 6.732-11.321 10.288-24.304 10.283-37.539V41.923c0-6.622-5.987-11.81-12.49-11.584-17.953.623-52.71-2.283-87.26-28.11z" fill="url(#a)" fill-opacity=".3"/><defs><radialGradient id="a" cx="0" cy="0" r="1" gradientUnits="userSpaceOnUse" gradientTransform="matrix(278.19877 198.55083 -814.32649 1140.9906 -30.684 35.09)"><stop stop-color="#CA72B7"/><stop offset=".378" stop-color="#914680"/><stop offset="1" stop-color="#3F2660"/></radialGradient></defs></svg>