<?xml version="1.0" encoding="utf-8"?>
<!-- Generator: Adobe Illustrator 26.0.1, SVG Export Plug-In . SVG Version: 6.00 Build 0)  -->
<svg version="1.1" id="Layer_1" xmlns="http://www.w3.org/2000/svg" xmlns:xlink="http://www.w3.org/1999/xlink" x="0px" y="0px"
	 viewBox="0 0 650 424" style="enable-background:new 0 0 650 424;" xml:space="preserve">
<style type="text/css">
	.st0{fill:url(#SVGID_1_);}
	.st1{fill:url(#SVGID_00000037679404499604572780000003675223641262124181_);}
	.st2{fill:url(#SVGID_00000049219042758106730610000015112349042746514096_);}
	.st3{fill:url(#SVGID_00000015329835241464812520000007750461354923507369_);}
	.st4{fill:url(#SVGID_00000117658282433625270060000002495789616413142920_);}
	.st5{opacity:0.3;}
	.st6{fill:#B58ABF;}
	.st7{fill:url(#SVGID_00000150079082367636479590000006586561816141925769_);}
	.st8{opacity:5.000000e-02;}
	.st9{fill:#B59478;}
	.st10{fill:#C6A78B;}
	.st11{fill:#A38066;}
	.st12{fill:#B7977D;}
	.st13{fill:#C6AB99;}
	.st14{fill:#D8B79C;}
	.st15{fill:#BA9B85;}
	.st16{fill:url(#SVGID_00000173868850420293815250000001604286962624173755_);}
	.st17{fill:url(#SVGID_00000005261946303471246960000005238987849005990317_);}
	.st18{clip-path:url(#SVGID_00000178889393661089457120000018181059070357956757_);}
</style>
<radialGradient id="SVGID_1_" cx="-632.187" cy="753.9641" r="1" gradientTransform="matrix(148.4957 285.1457 378.384 -197.0515 -191234.3438 328939.8125)" gradientUnits="userSpaceOnUse">
	<stop  offset="0" style="stop-color:#CA72B7"/>
	<stop  offset="0.2378" style="stop-color:#914680"/>
	<stop  offset="1" style="stop-color:#3F2660"/>
</radialGradient>
<path class="st0" d="M297.9,167.7c-44-63.8-131.5-65.5-162.3-25c-30.8,40.5,0,81,14.6,102.1c14.6,21.1,42.8,63.7,14.9,93.4
	c-27.9,29.7-40.8,13.5-36,2.2c4.9-11.3,16.2-4.9,16.2-4.9c-1.1-2.9-3.1-5.4-5.7-7.2c-2.6-1.7-5.7-2.6-8.8-2.5
	c-11.3,0-19.4,11.3-19.4,25.9c0,13.4,13,32.4,58.3,21.1s33-93.2,33-93.2l13.7-63.2L297.9,167.7z"/>
<radialGradient id="SVGID_00000142134753499161874070000016796114703258208433_" cx="-627.8099" cy="749.8083" r="1" gradientTransform="matrix(102.422 0 0 -102.452 64536.7773 76940.0859)" gradientUnits="userSpaceOnUse">
	<stop  offset="0" style="stop-color:#000000"/>
	<stop  offset="1" style="stop-color:#413463;stop-opacity:0"/>
</radialGradient>
<path style="fill:url(#SVGID_00000142134753499161874070000016796114703258208433_);" d="M251.2,195.6l18.9-56.7
	c-46.2-34.2-109.3-29.2-134.4,3.9c-2.4,3.2-4.6,6.6-6.5,10.2l42.5,52.2l62,1L251.2,195.6z"/>
<radialGradient id="SVGID_00000051359924431779830910000011989327933284624818_" cx="-632.7333" cy="753.394" r="1" gradientTransform="matrix(304.3956 405.4257 630.5459 -473.4169 -282047.9062 613233.125)" gradientUnits="userSpaceOnUse">
	<stop  offset="0" style="stop-color:#CA72B7"/>
	<stop  offset="0.2378" style="stop-color:#914680"/>
	<stop  offset="1" style="stop-color:#3F2660"/>
</radialGradient>
<path style="fill:url(#SVGID_00000051359924431779830910000011989327933284624818_);" d="M266.6,164.7
	C327.4,32.8,441.1,27.9,480.4,95.3c39.3,67.4-29.8,222.2,45.5,267.7c57.4,34.6,68.2-27.7,62.4-58.8c-5.8-31,45.1-61.4,57.8-35.6
	c7.5,15.3,1.3,29.7-31.1,27.1c0,0,30.5-3,17.9-18.3c-4.2-5.1-17.6-6.2-23.7,12.5c-6.1,18.7,23.5,63,8.2,94.3
	c-16,32.7-63.6,57-121.9,22.6c-7.1-4.2-13.5-9.5-19.1-15.6L459.6,373"/>
<radialGradient id="SVGID_00000167379424392863945220000001186662080344121513_" cx="-633.9218" cy="752.949" r="1" gradientTransform="matrix(8105.73 0 0 -6411.7798 5168766 4840618)" gradientUnits="userSpaceOnUse">
	<stop  offset="0" style="stop-color:#000000"/>
	<stop  offset="1" style="stop-color:#413463;stop-opacity:0"/>
</radialGradient>
<path style="fill:url(#SVGID_00000167379424392863945220000001186662080344121513_);" d="M387.9,54c-22.5,3.7-46.1,15-68,35
	l31.6,47.5l58.3,13.4l31.4-5l-35.6-63.1L387.9,54z"/>
<radialGradient id="SVGID_00000096757638962835375830000007203353832739568826_" cx="-632.592" cy="753.3448" r="1" gradientTransform="matrix(310.9012 354.4899 569.2208 -499.2284 -232009.3281 600325.125)" gradientUnits="userSpaceOnUse">
	<stop  offset="0" style="stop-color:#CA72B7"/>
	<stop  offset="0.2378" style="stop-color:#914680"/>
	<stop  offset="1" style="stop-color:#3F2660"/>
</radialGradient>
<path style="fill:url(#SVGID_00000096757638962835375830000007203353832739568826_);" d="M390.6,169.4C294.4-4.7,147-42,51.4,45.5
	c-95.6,87.5-34,188-4.9,220.4S30.3,321,23.9,308c-10.4-20.8,16.2-22.7,16.2-22.7s-16.2-17.8-32.4,0c-10.1,11.1-4.9,40.5,34,38.9
	c38.9-1.6,69.7-34,42.1-128c-21.5-73.5,77.8-97.4,136.1-24.3"/>
<g class="st5">
	<path class="st6" d="M310.6,170.3C223.1,77.9,122.7,82.8,87,115.2c-35.6,32.4-21.1,87.5-6.5,126.4c14.6,38.9-4.9,69.7-38.9,82.6
		c38.9-1.6,69.7-34,42.1-128c-21.5-73.5,77.8-97.4,136.1-24.3l91-1.3L310.6,170.3z"/>
</g>
<radialGradient id="SVGID_00000107551388560708856740000017973720558492264373_" cx="-633.9407" cy="752.9356" r="1" gradientTransform="matrix(10689.9004 0 0 -5075.9702 6825655 3835087)" gradientUnits="userSpaceOnUse">
	<stop  offset="0" style="stop-color:#000000"/>
	<stop  offset="1" style="stop-color:#413463;stop-opacity:0"/>
</radialGradient>
<path style="fill:url(#SVGID_00000107551388560708856740000017973720558492264373_);" d="M336.9,91.6L222.2,133l18.5,38.5l149.9-2.2
	C375.5,141.6,357.5,115.6,336.9,91.6z"/>
<g class="st8">
	<path d="M478.6,393.6c7.2-7.5,25-23.2,50.9-28.6c-1.2-0.6-2.4-1.3-3.6-2.1c-49.4-29.8-36.6-106.9-33.1-175.4L476,171.1v219.7
		l0.4,0.5C477.1,392.1,477.9,392.8,478.6,393.6z"/>
</g>
<g class="st5">
	<path class="st6" d="M597.6,397.1c-19.2,20.5-69.9,15.3-125.3-54l-39,1.6l43.2,46.6c5.5,6,11.9,11.3,18.9,15.5
		c58.3,34.5,106,10.2,122-22.5c4.4-9.1,5.2-20.2,4.1-31.6C617.5,369.3,609.2,384.6,597.6,397.1z"/>
</g>
<g class="st5">
	<path class="st6" d="M23,277.4c-4.7,0-10.1,2.1-15.4,7.9c-7.1,7.8-6.6,25,8.3,33.7C3.2,300.8,9.7,286.4,23,277.4z"/>
</g>
<path class="st9" d="M165.1,174.5v211.6L305.2,424V167.7L165.1,174.5z"/>
<path class="st10" d="M305.2,167.7l170.8,3.4v223.3L305.2,424V167.7z"/>
<path class="st11" d="M165.1,276.4L271,290.7l34.2-123l-102.5,44.4l-37.6,37.6V276.4z"/>
<path class="st12" d="M305.2,167.7l24.2,123l146.6-6.9V171.1L305.2,167.7z"/>
<path class="st13" d="M165.1,174.5l-37.6,88.8l133.2,13.7l44.4-109.4L165.1,174.5z"/>
<path class="st14" d="M305.2,167.7l27.3,105.9l170.8-6.8L476,171.1L305.2,167.7z"/>
<path class="st15" d="M410.1,251.3l-22-37.8l8-20.4l-4.4-19l-4.9-4.9l-28.9-0.6c7.7,4.7,15.9,21.6,13.4,32
	c-2.5,10.4,5.7,32.5,10.2,37.8c4.6,5.3,19.9,27.6,18.6,32.4c0,0.2,10.1-0.4,10.1-0.4L410.1,251.3z"/>
<radialGradient id="SVGID_00000121255811368249595800000017353055511328265368_" cx="-632.4533" cy="755.4467" r="1" gradientTransform="matrix(4.699 220.0708 256.1576 -5.4695 -190112.5469 143387.9531)" gradientUnits="userSpaceOnUse">
	<stop  offset="0" style="stop-color:#CA72B7"/>
	<stop  offset="0.2378" style="stop-color:#914680"/>
	<stop  offset="1" style="stop-color:#3F2660"/>
</radialGradient>
<path style="fill:url(#SVGID_00000121255811368249595800000017353055511328265368_);" d="M330.7,168.2c7-34.7,57.7-54.5,81.9-23.9
	c24.2,30.6-21.6,59.5-4.3,84.9c17.3,25.3,15.6,46.4-0.5,52.9c-16.2,6.5-27.7-10.4-27.7-10.4l10.5-0.4c0,0,11.8,8.6,13.7-3.2
	s-16.2-17.8-27.3-41c-8.8-18.6,3.2-37.3,3.2-48.6c0-13-9.8-9.4-9.8-9.4"/>
<radialGradient id="SVGID_00000058567173536476950080000007883197016963286682_" cx="-631.0089" cy="755.1379" r="1" gradientTransform="matrix(71.5412 168.8254 196.456 -83.2498 -102846.0859 169518.1719)" gradientUnits="userSpaceOnUse">
	<stop  offset="0" style="stop-color:#CA72B7"/>
	<stop  offset="0.2378" style="stop-color:#914680"/>
	<stop  offset="1" style="stop-color:#3F2660"/>
</radialGradient>
<path style="fill:url(#SVGID_00000058567173536476950080000007883197016963286682_);" d="M408.3,229.2
	c-17.3-25.3,28.6-54.1,4.3-84.9c-24.3-30.8-74.9-10.8-81.9,23.9l19.5,0.4c7.4-10.8,20.4-19.4,32.5-10.2c12.1,9.2,0.7,25-1.5,41.5
	c-2.2,16.5-0.5,29.9,7,38.1c7.2,7.9,16.8,18.4,16.1,28.7c0,0.4-0.1,0.9-0.1,1.3c-1.9,11.9-13.7,3.2-13.7,3.2l-10.5,0.4
	c0,0,11.5,16.9,27.7,10.4C424,275.6,425.6,254.5,408.3,229.2z"/>
<g>
	<path class="st11" d="M416.6,335.8c-0.6,0.2-1.1,0.5-1.7,0.7c-6.8,3.4-13.7,6.3-21,8.6c-4.3,1.4-8.7,2.8-12.8,4.6
		c-4.9,2.1-9,5.4-11.7,10c-2.6,4.4-3.3,9.2-2.6,14.3c0.4,3.4,1.6,6.6,3.4,9.6c0.1,0.2,0.2,0.4,0.4,0.9c-0.6-0.3-1.1-0.5-1.4-0.8
		c-5.3-3.9-8.6-9.1-9.7-15.6c-1.7-10.1,2.4-17.7,10.5-23.4c4.7-3.3,10-5.3,15.5-6.9c5.5-1.7,11.1-3.1,16.6-4.9
		c6.6-2.2,12.8-5.2,18.2-9.8c4-3.4,7.4-7.3,9.4-12.2c0.1-0.3,0.3-0.5,0.5-0.9c0.3,0.4,0.6,0.7,0.8,1c3.7,5.7,5.8,12,6.8,18.7
		c0.6,3.8,0.7,7.6,0.5,11.4c-0.5,7.9-2.5,15.5-6.2,22.5c-4.3,8.1-10.1,14.7-17.8,19.6c-6,3.9-12.5,6.4-19.7,7
		c-2.6,0.2-5.3,0.2-8-0.1c-2.5-0.2-4.5-1.8-6-3.8c-2.4-3.1-3.6-6.6-3.9-10.4c-0.6-8.9,3.7-15.3,10.5-20.5c1.6-1.2,3.3-2.2,5.1-3.1
		c5.3-2.7,10.7-5.1,15.6-8.6c2.7-1.9,5.1-4.1,7.6-6.2c0.5-0.4,0.9-1,1.3-1.5C416.8,335.9,416.7,335.8,416.6,335.8z"/>
	<path class="st11" d="M376.8,322.2c0.3,0,0.7,0,1-0.1c7.5-2,15.1-3.9,22.6-6c4.2-1.1,8.2-2.6,11.9-4.9c2.3-1.4,4.2-3.3,5.4-5.7
		c1.1-2.1,1.4-4.3,0.5-6.6c-0.1-0.3-0.1-0.6-0.2-0.9c0.2,0,0.3-0.1,0.4-0.1c2.6,1.5,5.1,3.2,5.4,6.5c0.3,2.7-0.8,5.2-2.5,7.3
		c-2.1,2.6-4.9,4.4-7.7,6.1c-5.1,3.1-10.7,5-16.4,6.6c-6.2,1.8-12.5,3.4-18.7,5.3c-5.5,1.8-10.7,4.3-15.2,8.2
		c-6.5,5.6-10.6,12.6-11.5,21.3c0,0.2-0.1,0.3-0.4,0.6c-0.2-0.6-0.5-1.1-0.7-1.7c-1.7-6.2-2.2-12.4-1.8-18.8
		c0.6-7.6,2.6-14.9,6.3-21.6c5.9-10.9,14.2-19.1,25.8-23.8c5.4-2.2,11.2-3.2,17.1-2.8c1.6,0.1,3.2,0.4,4.7,0.9
		c5.2,1.6,7.1,8.1,3.6,12.4c-2.5,3.1-5.5,5.5-9.1,7.2c-4,1.9-8.2,3.5-12.2,5.4c-2.6,1.2-5.1,2.6-7.6,4c-0.4,0.2-0.8,0.6-1.2,0.9
		C376.8,322,376.8,322.1,376.8,322.2z"/>
</g>
<g>
	<defs>
		<rect id="SVGID_00000152257314375591506680000003820258933053978760_" x="189.8" y="290.4" width="85" height="93"/>
	</defs>
	<clipPath id="SVGID_00000042708100541490343810000006149423424475087030_">
		<use xlink:href="#SVGID_00000152257314375591506680000003820258933053978760_"  style="overflow:visible;"/>
	</clipPath>
	<g style="clip-path:url(#SVGID_00000042708100541490343810000006149423424475087030_);">
		<path class="st11" d="M225.8,290.4h2.9c16.1,0.9,28.2,8.6,37.1,21.5c6.2,9,9.3,19.8,8.8,30.7c-0.1,9.8-3.3,19.4-9.2,27.3
			c-4.8,6.5-11.8,11.1-19.6,13.2l-1,0.2c-0.4,0.1-0.9,0.2-1.3,0.1c-0.4-0.1-0.8-0.3-1.2-0.6c-0.3-0.3-0.6-0.6-0.8-1.1
			c-0.2-0.4-0.2-0.9-0.2-1.3c0.1-3.6,0.3-7.2,0.4-10.7c0.3-2.7,0.3-5.5,0-8.3c-0.2-1.6-0.8-3.2-1.7-4.6c-0.5-0.9-0.5-1,0.6-1
			c2.3,0.1,4.6,0,6.8-0.3c2.6-0.2,5.1-1.3,7.1-3c2-1.7,3.4-4,4-6.5c1.1-3.7,1.5-7.7,1-11.5c-0.4-2.4-1.4-4.8-2.9-6.8
			c-0.3-0.4-0.5-0.8-0.6-1.3c-0.1-0.5,0-1,0.1-1.4c0.9-3.4,0.9-7-0.1-10.4c-0.1-0.3-0.3-0.7-0.5-0.9c-0.3-0.2-0.6-0.3-1-0.3
			c-1.3-0.1-2.5,0.1-3.7,0.5c-2.1,0.7-4.1,1.5-6,2.6c-0.3,0.2-0.6,0.3-0.9,0.3c-0.3,0-0.7,0-1-0.2c-4.5-2-9.3-3.1-14.2-3.3
			c-1.6,0-3.2,0-4.9,0.3c-0.5,0.1-0.9,0.1-1.4-0.1c-0.5-0.1-0.9-0.4-1.2-0.7c-2.1-2-4.5-3.7-7-5.1c-0.7-0.4-1.5-0.6-2.3-0.8
			c-0.2-0.1-0.3-0.1-0.5-0.1c-0.2,0-0.3,0.1-0.5,0.1c-0.1,0.1-0.3,0.2-0.4,0.3c-0.1,0.1-0.2,0.3-0.2,0.5c-1.3,3.4-1.5,7-0.8,10.6
			c0.1,0.4,0.1,0.8,0,1.2c-0.1,0.4-0.3,0.8-0.6,1.1c-2.2,2.4-3.4,5.4-3.5,8.6c-0.4,4.3,0.2,8.7,1.7,12.8c0.9,2.1,2.2,4.1,3.9,5.7
			c1.7,1.6,3.7,2.8,5.9,3.6c1.9,0.8,3.9,1.4,5.9,1.9c0.9,0.3,1,0.4,0.4,1.1c-1,1.3-1.7,2.7-2,4.3c0,0.3-0.2,0.6-0.4,0.8
			c-0.2,0.2-0.5,0.3-0.8,0.4c-2.1,0.6-4.3,0.5-6.2-0.4c-2-0.9-3.5-2.4-4.5-4.3c-0.6-1.3-1.4-2.6-2.3-3.8c-1-1.2-2.4-2.2-3.8-2.9
			c-0.5-0.3-1.1-0.4-1.7-0.5c-0.9,0-1.2,0.6-0.8,1.3c0.3,0.5,0.7,1,1.1,1.4c2.1,1.8,3.6,4.2,4.3,6.9c1.7,6.2,6.5,8,11.6,8.4
			c0.7,0,1.4,0,2.1,0c0.7,0,1,0.2,1,0.9c-0.1,3.5-0.2,7-0.4,10.6c0,1.9-1.6,2.6-3.4,1.7c-2.4-1.2-4.6-2.6-6.7-4.3
			c-10.6-8.4-17.6-20.3-19.7-33.5c-0.4-2.5-0.7-5-0.7-7.5v-3.1c0.1-7.5,2-14.9,5.6-21.5c2.6-5,6.5-9.3,11.2-12.6s10.1-5.3,15.8-6
			C223.5,290.5,224.7,290.5,225.8,290.4z"/>
		<path class="st11" d="M209.7,357.3c0.3,0.1,0.5,0.2,0.7,0.4c0.2,0.2,0.3,0.5,0.3,0.7c0,0.3-0.1,0.6-0.4,0.6c-0.7,0-1-0.5-1.1-1.1
			C209.1,357.4,209.3,357.4,209.7,357.3z"/>
		<path class="st11" d="M217.2,361.7c0,0.1,0,0.2-0.1,0.3c0,0.1-0.1,0.2-0.2,0.2c-0.1,0.1-0.2,0.1-0.3,0.1c-0.1,0-0.2,0-0.3,0
			c-0.5,0-0.9-0.2-1-0.8s0.4-0.6,0.8-0.6c0.2,0,0.5,0,0.6,0.2C217,361.3,217.1,361.5,217.2,361.7L217.2,361.7z"/>
		<path class="st11" d="M219.5,362.4c-0.4,0-0.8-0.2-0.8-0.7c0-0.5,0.4-0.7,0.9-0.7s0.8,0.2,0.8,0.7
			C220.4,362.2,220,362.4,219.5,362.4z"/>
		<path class="st11" d="M213.7,360.7c0,0.5-0.3,0.6-0.6,0.5c-0.3-0.1-1-0.3-1.1-0.9c0-0.6,0.4-0.5,0.7-0.5c0.2,0,0.5,0.1,0.6,0.3
			C213.5,360.2,213.6,360.4,213.7,360.7z"/>
		<path class="st11" d="M208.5,355.4c0,0.4,0,0.7-0.4,0.7c-0.4,0-0.8-0.5-0.9-1c-0.1-0.5,0.1-0.7,0.5-0.6
			C208.1,354.5,208.4,355,208.5,355.4z"/>
		<path class="st11" d="M206.4,353c-0.2,0-0.4-0.1-0.5-0.3c-0.1-0.1-0.2-0.3-0.2-0.5c0-0.3,0.1-0.5,0.4-0.5c0.2,0,0.4,0.1,0.5,0.3
			c0.1,0.1,0.2,0.3,0.2,0.5C206.9,352.8,206.7,353,206.4,353z"/>
		<path class="st11" d="M204.4,349.9c0.2,0,0.3,0.1,0.4,0.2c0.1,0.1,0.2,0.3,0.2,0.4c0,0.3-0.1,0.4-0.4,0.4c-0.2,0-0.3-0.1-0.4-0.2
			c-0.1-0.1-0.2-0.3-0.2-0.4C204,350,204.1,349.9,204.4,349.9z"/>
	</g>
</g>
</svg>
