<svg id="Layer_1" data-name="Layer 1" xmlns="http://www.w3.org/2000/svg" xmlns:xlink="http://www.w3.org/1999/xlink" viewBox="0 0 207.25 122.1"><defs><style>.cls-1{fill:#2e2e2e}.cls-2{fill:url(#linear-gradient)}.cls-3{fill:url(#linear-gradient-2)}</style><linearGradient id="linear-gradient" x1="47.92" y1="-281.31" x2="8.13" y2="-323.37" gradientTransform="matrix(1 0 0 -1 0 -237.71)" gradientUnits="userSpaceOnUse"><stop offset="0" stop-color="#ac5ca0"/><stop offset="1" stop-color="#2e2e2e"/></linearGradient><linearGradient id="linear-gradient-2" x1="36.03" y1="-270.07" x2="-3.76" y2="-312.13" xlink:href="#linear-gradient"/></defs><path class="cls-1" d="M80.37 63.65a15 15 0 0 1-1.25 6.2 9.69 9.69 0 0 1-16 2.34c-1.84-2.13-2.76-5-2.76-8.65V60.9a14.69 14.69 0 0 1 1.24-6.2 9.19 9.19 0 0 1 8.72-5.59 9.5 9.5 0 0 1 5.22 1.42 9.39 9.39 0 0 1 3.49 4 14.6 14.6 0 0 1 1.28 6zm-2.16-2.77a11.25 11.25 0 0 0-2.09-7.23 7.51 7.51 0 0 0-10.59-.82 7.06 7.06 0 0 0-.82.82c-1.42 1.75-2.12 4.2-2.12 7.34v2.66a11.3 11.3 0 0 0 2.11 7.22 7 7 0 0 0 5.73 2.66 6.83 6.83 0 0 0 5.69-2.65c1.38-1.75 2.06-4.19 2.06-7.32zm15.91-3.06a8.42 8.42 0 0 0-1.42-.12 5.22 5.22 0 0 0-3.33 1.1 6 6 0 0 0-1.94 3.2v13.05h-2.09v-19h2v3a5.59 5.59 0 0 1 5.4-3.4 3.45 3.45 0 0 1 1.39.23zm10 15.83a5.61 5.61 0 0 0 3.69-1.24 4.42 4.42 0 0 0 1.61-3.21h2a6 6 0 0 1-1.09 3.17 6.68 6.68 0 0 1-2.67 2.24 7.94 7.94 0 0 1-3.56.81 7.34 7.34 0 0 1-5.93-2.6 10.46 10.46 0 0 1-2.19-7v-.64a11.62 11.62 0 0 1 1-5 7.47 7.47 0 0 1 2.82-3.34 7.69 7.69 0 0 1 4.32-1.19 7.34 7.34 0 0 1 5.16 1.86 6.82 6.82 0 0 1 2.17 4.91h-2a5.47 5.47 0 0 0-5.93-5 5.54 5.54 0 0 0-3.8 2 9.34 9.34 0 0 0-1.6 5.76v.61a9 9 0 0 0 1.58 5.68 5.25 5.25 0 0 0 4.42 2.18zm13.62-14.4a7.34 7.34 0 0 1 2.65-2.6 7 7 0 0 1 3.54-.93 5.72 5.72 0 0 1 4.58 1.72 7.73 7.73 0 0 1 1.49 5.17v12.44h-2.09v-12.5a5.83 5.83 0 0 0-1.08-3.79 4.18 4.18 0 0 0-3.4-1.25 5.4 5.4 0 0 0-3.43 1.22 7.06 7.06 0 0 0-2.22 3.3V75h-2.09V48h2.09zm17.54-8.71a1.39 1.39 0 0 1 .39-1 1.37 1.37 0 0 1 1-.41 1.42 1.42 0 0 1 1.07.41 1.48 1.48 0 0 1 .39 1 1.39 1.39 0 0 1-.39 1 1.51 1.51 0 0 1-2.07 0 1.33 1.33 0 0 1-.39-1zm2.48 24.51h-2.11v-19h2.11zm4.87-9.68a11.44 11.44 0 0 1 2-7.06 6.35 6.35 0 0 1 5.37-2.66 6.63 6.63 0 0 1 5.87 3v-10.6H158v27h-2l-.09-2.53a6.8 6.8 0 0 1-5.94 2.88 6.35 6.35 0 0 1-5.3-2.64 11.57 11.57 0 0 1-2-7.15zm2.13.37a9.9 9.9 0 0 0 1.46 5.73 4.7 4.7 0 0 0 4.11 2.1 5.67 5.67 0 0 0 5.52-3.42v-8.93a5.61 5.61 0 0 0-5.49-3.71 4.76 4.76 0 0 0-4.13 2.08 10.69 10.69 0 0 0-1.47 6.15z"/><path class="cls-2" d="M41.26 49a22.4 22.4 0 0 1-23.73 33.91c-3.12-1-4.58-4.6-4.5-7.64.1-4.43 3.92-7.63 7.81-9 4.62-1.52 9.58-2.83 13.3-6.16a82.34 82.34 0 0 1-8.6 2.39c-4.85 1.16-10.32 1-14.34 4.34-3.8 3-3.83 9-1.16 12.72-.31.18-2.26-1.47-2.86-2.38-2.91-3.36-3.79-8.73-1-12.44 3.22-4.15 8.75-5.17 13.65-5.85 6.63-.8 13.87-1.67 18.94-6.46A11.31 11.31 0 0 0 41.26 49z"/><path class="cls-3" d="M0 61.05a22.4 22.4 0 0 1 19.54-22.22 18.85 18.85 0 0 1 9 .82c2.32 1 3.23 4.33 1.08 6C25.57 49.29 19.73 49 15 51.26c-1.72.8.07.4.93.27 5-.87 10.17-.72 15.05-2.22 2.31-.71 5.13-2.42 4.76-5.21-1-2.25.69-.47 1.66.31 2.2 2.08.36 5.3-2 6.33-7.56 4.51-16.89 2.73-24.91 5.91-4.76 1.66-8.79 5.8-9.33 11C.56 67.26-.06 63 0 61z"/><path class="cls-1" d="M175.53 55.74a4.06 4.06 0 0 1-.64 2.09 3.78 3.78 0 0 1-1.64 1.41 5.51 5.51 0 0 1-2.42.5 4.45 4.45 0 0 1-3.53-1.46 6 6 0 0 1-1.3-4.12v-.57a7 7 0 0 1 .58-2.92 4.43 4.43 0 0 1 1.68-1.94 4.72 4.72 0 0 1 2.53-.68 4.89 4.89 0 0 1 3.33 1.09 4.31 4.31 0 0 1 1.43 3h-2.74a2 2 0 0 0-.52-1.49 2.17 2.17 0 0 0-1.5-.45 1.64 1.64 0 0 0-1.5.76 5 5 0 0 0-.5 2.45v.8a5.35 5.35 0 0 0 .46 2.6 1.67 1.67 0 0 0 1.57.78 2.11 2.11 0 0 0 1.45-.44 1.9 1.9 0 0 0 .53-1.41zm5.53-.18h-1.49v4h-2.74V48.21h4.48a5 5 0 0 1 3.16.9 3 3 0 0 1 1.14 2.54 3.67 3.67 0 0 1-.48 2 3.47 3.47 0 0 1-1.5 1.27l2.37 4.55v.12h-2.93zm-1.49-2.11h1.74a1.52 1.52 0 0 0 1.17-.41 1.54 1.54 0 0 0 .4-1.14 1.59 1.59 0 0 0-.4-1.16 1.55 1.55 0 0 0-1.17-.42h-1.74zm16.62-5.24v7.45a4.28 4.28 0 0 1-.54 2.19 3.43 3.43 0 0 1-1.55 1.41 5.46 5.46 0 0 1-2.38.48 4.75 4.75 0 0 1-3.27-1.07 3.87 3.87 0 0 1-1.22-3v-7.5H190v7.56c0 1.24.61 1.86 1.73 1.86a1.68 1.68 0 0 0 1.29-.46 2.24 2.24 0 0 0 .44-1.53v-7.39zm1.71 11.38V48.21h3.67a5.38 5.38 0 0 1 2.71.69 4.73 4.73 0 0 1 1.88 1.93 5.87 5.87 0 0 1 .68 2.79v.52a5.85 5.85 0 0 1-.66 2.8 4.83 4.83 0 0 1-1.86 1.94 5.28 5.28 0 0 1-2.68.71zm2.74-9.26v7.15h1a2.13 2.13 0 0 0 1.81-.84 4.13 4.13 0 0 0 .63-2.5v-.49a4.06 4.06 0 0 0-.63-2.48 2.17 2.17 0 0 0-1.84-.84z"/></svg>