<svg id="Layer_1" data-name="Layer 1" xmlns="http://www.w3.org/2000/svg" viewBox="0 0 310.5 64"><defs><style>.cls-1{fill:#333;}.cls-2,.cls-4{fill:#2e2e2e;}.cls-2{fill-rule:evenodd;}.cls-3{fill:#fff;}</style></defs><title>orchid2</title><rect class="cls-1" width="64" height="64" rx="15"/><path class="cls-2" d="M91.27,41.76h11.2V46H86V20.41h5.27V41.76ZM116.18,46a6,6,0,0,1-.51-1.71,6.15,6.15,0,0,1-4.8,2.06,6.74,6.74,0,0,1-4.63-1.62,5.19,5.19,0,0,1-1.84-4.07A5.37,5.37,0,0,1,106.64,36a11.06,11.06,0,0,1,6.48-1.64h2.34V33.29a3.15,3.15,0,0,0-.68-2.11,2.68,2.68,0,0,0-2.13-.79,3,3,0,0,0-2,.62,2.1,2.1,0,0,0-.73,1.68h-5.08a5.06,5.06,0,0,1,1-3,6.68,6.68,0,0,1,2.89-2.21,10.53,10.53,0,0,1,4.18-.8,8.3,8.3,0,0,1,5.58,1.77,6.15,6.15,0,0,1,2.07,5v8.25a9.08,9.08,0,0,0,.75,4.09V46ZM112,42.47a4.4,4.4,0,0,0,2.07-.5,3.35,3.35,0,0,0,1.41-1.35V37.35h-1.9c-2.54,0-3.9.88-4.06,2.64l0,.3a2,2,0,0,0,.67,1.56,2.62,2.62,0,0,0,1.83.62Zm23.17-10.73a14.43,14.43,0,0,0-1.83-.14q-2.88,0-3.78,1.95V46h-5.08V27h4.8l.14,2.27a4.7,4.7,0,0,1,4.24-2.62,5.07,5.07,0,0,1,1.58.23ZM148.08,46a6,6,0,0,1-.51-1.71,6.15,6.15,0,0,1-4.79,2.06,6.72,6.72,0,0,1-4.63-1.62,5.16,5.16,0,0,1-1.84-4.07A5.34,5.34,0,0,1,138.55,36,11,11,0,0,1,145,34.38h2.33V33.29a3.14,3.14,0,0,0-.67-2.11,2.68,2.68,0,0,0-2.14-.79,3,3,0,0,0-2,.62,2.07,2.07,0,0,0-.73,1.68h-5.08a5.06,5.06,0,0,1,1-3,6.71,6.71,0,0,1,2.88-2.21,10.58,10.58,0,0,1,4.19-.8,8.3,8.3,0,0,1,5.58,1.77,6.18,6.18,0,0,1,2.06,5v8.25a9.06,9.06,0,0,0,.76,4.09V46h-5.14Zm-4.2-3.53A4.47,4.47,0,0,0,146,42a3.32,3.32,0,0,0,1.4-1.35V37.35h-1.89q-3.83,0-4.06,2.64l0,.3a2,2,0,0,0,.67,1.56,2.57,2.57,0,0,0,1.82.62Zm19.34-2.68L166.75,27h5.31l-6.41,19h-4.86l-6.41-19h5.31Zm19.6,6.56A9.29,9.29,0,0,1,176,43.78,9.12,9.12,0,0,1,173.38,37v-.5a11.46,11.46,0,0,1,1.11-5.12,8.17,8.17,0,0,1,3.14-3.48,8.82,8.82,0,0,1,4.63-1.22,7.88,7.88,0,0,1,6.14,2.46c1.5,1.64,2.24,4,2.24,7v2.07H178.53a4.67,4.67,0,0,0,1.49,3,4.47,4.47,0,0,0,3.13,1.13,5.48,5.48,0,0,0,4.59-2.13l2.5,2.79a7.69,7.69,0,0,1-3.1,2.53,10.19,10.19,0,0,1-4.32.9Zm-.58-15.61a3.16,3.16,0,0,0-2.45,1,5.27,5.27,0,0,0-1.21,2.92h7.07v-.41a3.74,3.74,0,0,0-.92-2.61,3.28,3.28,0,0,0-2.49-.92ZM198.88,46h-5.09V19h5.09Z"/><path class="cls-3" d="M19.54,44.45a1.05,1.05,0,0,1-.74-.31l-5.51-5.5a1.05,1.05,0,1,1,1.49-1.49l5.5,5.51a1.05,1.05,0,0,1-.74,1.79Z"/><path class="cls-3" d="M44.46,44.45a1.05,1.05,0,0,1-.74-1.79l5.5-5.51a1,1,0,0,1,1.48,0,1.06,1.06,0,0,1,0,1.49l-5.5,5.5A1.05,1.05,0,0,1,44.46,44.45Z"/><path class="cls-3" d="M32,44.18a1.05,1.05,0,0,1-.74-.3L14.77,27.39,9.15,33a1,1,0,0,1-1.48-1.48L14,25.16a1.06,1.06,0,0,1,1.48,0L32,41.65,48.49,25.16a1.06,1.06,0,0,1,1.48,0l6.36,6.37A1,1,0,0,1,54.85,33l-5.62-5.62L32.74,43.88A1.07,1.07,0,0,1,32,44.18Z"/><path class="cls-3" d="M38.36,26a1,1,0,0,1-.74-.31L32,20.08,26.38,25.7a1,1,0,0,1-1.48-1.48l6.36-6.36a1,1,0,0,1,1.48,0l6.36,6.36a1,1,0,0,1,0,1.48A1,1,0,0,1,38.36,26Z"/><path class="cls-4" d="M232.86,34.59a14.86,14.86,0,0,1-1.22,6.21,9.36,9.36,0,0,1-3.49,4.11,9.56,9.56,0,0,1-5.24,1.44,9.08,9.08,0,0,1-7.24-3.21c-1.84-2.13-2.76-5-2.76-8.65V31.85a14.67,14.67,0,0,1,1.24-6.2,9.2,9.2,0,0,1,8.72-5.59,9.59,9.59,0,0,1,5.22,1.42,9.38,9.38,0,0,1,3.49,4,14.53,14.53,0,0,1,1.28,6Zm-2.16-2.77a11.3,11.3,0,0,0-2.1-7.25,7.51,7.51,0,0,0-11.41,0q-2.12,2.63-2.12,7.34v2.67a11.3,11.3,0,0,0,2.11,7.22,6.94,6.94,0,0,0,5.73,2.66,6.84,6.84,0,0,0,5.73-2.63q2.06-2.62,2.06-7.32Z"/><path class="cls-4" d="M246.6,28.77a8,8,0,0,0-1.42-.12,5.16,5.16,0,0,0-3.33,1.1,6,6,0,0,0-1.94,3.19V46h-2.09V27h2.05l0,3a5.59,5.59,0,0,1,5.36-3.38,3.53,3.53,0,0,1,1.39.23Z"/><path class="cls-4" d="M256.62,44.58a5.6,5.6,0,0,0,3.69-1.24,4.41,4.41,0,0,0,1.61-3.21h2a6,6,0,0,1-1.09,3.17,6.73,6.73,0,0,1-2.67,2.24,8,8,0,0,1-3.56.81,7.33,7.33,0,0,1-5.93-2.6,10.49,10.49,0,0,1-2.19-7v-.64a11.82,11.82,0,0,1,1-5,7.49,7.49,0,0,1,2.82-3.34,7.75,7.75,0,0,1,4.3-1.18,7.37,7.37,0,0,1,5.16,1.86,6.85,6.85,0,0,1,2.17,4.91h-2a5.47,5.47,0,0,0-9.73-2.92,9.29,9.29,0,0,0-1.58,5.77v.61a9.09,9.09,0,0,0,1.58,5.68A5.25,5.25,0,0,0,256.62,44.58Z"/><path class="cls-4" d="M270.23,30.2a7.44,7.44,0,0,1,2.65-2.64,7,7,0,0,1,3.54-.93A5.7,5.7,0,0,1,281,28.35a7.74,7.74,0,0,1,1.51,5.17V46h-2.09V33.5a5.77,5.77,0,0,0-1.08-3.79,4.21,4.21,0,0,0-3.4-1.25,5.38,5.38,0,0,0-3.46,1.22,7.11,7.11,0,0,0-2.22,3.3V46h-2.09V19h2.09Z"/><path class="cls-4" d="M287.77,21.49a1.42,1.42,0,0,1,.39-1,1.39,1.39,0,0,1,1-.41,1.44,1.44,0,0,1,1.07.41,1.42,1.42,0,0,1,.39,1,1.36,1.36,0,0,1-.39,1,1.44,1.44,0,0,1-1.07.41,1.39,1.39,0,0,1-1-.41A1.36,1.36,0,0,1,287.77,21.49ZM290.25,46h-2.11V27h2.11Z"/><path class="cls-4" d="M295.12,36.32a11.44,11.44,0,0,1,2-7.06,6.38,6.38,0,0,1,5.37-2.63,6.62,6.62,0,0,1,5.87,3V19h2.09V46h-2l-.09-2.53a6.78,6.78,0,0,1-5.94,2.88,6.35,6.35,0,0,1-5.3-2.64,11.56,11.56,0,0,1-2-7.15Zm2.13.37a9.84,9.84,0,0,0,1.46,5.73,4.71,4.71,0,0,0,4.11,2.1,5.66,5.66,0,0,0,5.52-3.42V32.17a5.61,5.61,0,0,0-5.49-3.71,4.79,4.79,0,0,0-4.13,2.08A10.66,10.66,0,0,0,297.25,36.69Z"/></svg>