<svg xmlns="http://www.w3.org/2000/svg" width="256" height="256" preserveAspectRatio="xMinYMin meet"><path fill="#F35045" d="M160.44 208c2 2.9 3.23 2.67 4.78 2 1.56-.67 81.56-27.67 84-28.56 2.45-.88 1.67-1.66.9-2.88-.8-1.23-27.45-37.45-28.8-39.56-1.32-2.1-2-1.67-4.1-1l-84.8 22.07s26.02 45.04 28.02 47.93zM256 171.12v-42.4c-9.54 2.54-21.6 5.75-26.37 7.02 7.18 9.62 18.42 24.66 26.37 35.38zm-26.45-87.6c-1.3.3-30.25 5.53-32.03 5.77-1.8.2-1.2 1.2-.48 2.22l25.47 34.95s31.17-7.74 33.07-8.16c.15-.02.3-.06.45-.1v-4.62c-5.65-7.18-21.07-26.7-22.4-28.54-1.6-2.2-2.74-1.85-4.04-1.55zm-182.1-54.9c6.27-.27 6.84 1.16 9.6 5.24L126.2 149.5l86.97-20.84c-4.83-6.83-26.7-37.84-28.82-40.8-2.37-3.33.06-4.87 3.92-5.53 3.87-.65 37.14-6.24 40-6.65 2.85-.42 5.1-1.43 9.74 4.16 2.4 2.86 10.47 12.86 18 22.26V48c0-13.22-4.7-24.53-14.07-33.92C232.53 4.68 221.23 0 208 0H48C34.78 0 23.47 4.7 14.08 14.08c-5.38 5.4-9.2 11.4-11.5 18.05 15.67-1.28 40.5-3.3 44.88-3.5zM168.3 223.57c-7.35 2.23-10.63 3.33-15.4-3.34-3.6-5-22.94-39.84-32.43-57.02-17.95 4.7-50.8 13.3-60.28 15.56-9.28 2.23-13.2-3.32-14.75-6.74C44.4 169.64 17.3 111.18 0 73.67V208c0 13.22 4.7 24.53 14.08 33.92C23.48 251.32 34.78 256 48 256h160c13.22 0 24.53-4.7 33.92-14.08 9.4-9.4 14.08-20.7 14.08-33.92v-15.78c-19.64 7.18-82.77 29.85-87.7 31.34zM60.4 165.3c2.6-.6 51.32-12.27 52.36-12.5 1.04-.2 1.7-.8.6-2.74-1.12-1.93-64.93-112.08-64.93-112.08-.6-1.02-.43-1.35-2.03-1.27-1.42.1-37.53 3.3-45.9 4-.24 1.77-.4 3.54-.46 5.36 8.5 17.37 57.2 117.83 57.48 118.65.3.9.3 1.2 2.9.6z"/></svg>