<svg xmlns="http://www.w3.org/2000/svg" viewBox="0 0 117.5 64.125">
    <g fill="#ffffff">
        <path d="M29.04 64.13c-.64 0-1.28-.25-1.77-.74L14.15 50.26c-.98-.98-.98-2.56 0-3.54.97-.97 2.56-.97 3.53 0L30.8 59.86c1 .97 1 2.56 0 3.53-.48.48-1.12.73-1.76.73zM88.46 64.13c-.64 0-1.28-.25-1.77-.74-1-.98-1-2.57 0-3.54l13.1-13.13c1-.97 2.57-.97 3.55 0s.98 2.56 0 3.54L90.23 63.4c-.5.48-1.13.73-1.77.73zM58.75 63.5c-.66 0-1.3-.26-1.77-.73l-39.3-39.32-13.4 13.4c-1 .98-2.57.98-3.55 0-.97-.98-.97-2.56 0-3.53L15.9 18.15c.98-.98 2.56-.98 3.54 0l39.3 39.32 39.33-39.32c.97-.98 2.56-.98 3.53 0l15.17 15.17c.98.97.98 2.56 0 3.53s-2.56.98-3.54 0l-13.4-13.4-39.3 39.32c-.48.47-1.12.73-1.78.73zM73.92 20.17c-.64 0-1.28-.25-1.77-.74l-13.4-13.4-13.4 13.4c-.98.98-2.56.98-3.53 0-.98-.97-.98-2.55 0-3.53L56.98.73c.98-.98 2.56-.98 3.54 0L75.68 15.9c.98.97.98 2.56 0 3.53-.48.5-1.12.74-1.76.74z"/>
    </g>
</svg>