<svg xmlns="http://www.w3.org/2000/svg" viewBox="0 0 550.301 67.707"><g fill="#0a1015"><path d="M29.04 65.92c-.64 0-1.28-.25-1.77-.74L14.15 52.06c-.98-.98-.98-2.56 0-3.54.97-.97 2.56-.97 3.53 0L30.8 61.65c1 .98 1 2.56 0 3.53-.48.5-1.12.74-1.76.74zM88.46 65.92c-.64 0-1.28-.25-1.77-.74-1-.97-1-2.56 0-3.53l13.1-13.13c1-.97 2.57-.97 3.55 0s.98 2.56 0 3.54L90.23 65.18c-.5.5-1.13.74-1.77.74zM58.75 65.3c-.66 0-1.3-.27-1.77-.74l-39.3-39.32-13.4 13.4c-1 .98-2.57.98-3.55 0-.97-.97-.97-2.56 0-3.53L15.9 19.95c.97-.98 2.56-.98 3.53 0l39.32 39.32 39.32-39.32c.97-.98 2.56-.98 3.53 0l15.17 15.17c.98.98.98 2.57 0 3.54s-2.56.98-3.54 0l-13.4-13.4-39.3 39.32c-.48.47-1.12.73-1.78.73zM73.92 21.96c-.64 0-1.28-.25-1.77-.73l-13.4-13.4-13.4 13.4c-.98.97-2.56.97-3.53 0-.98-.98-.98-2.56 0-3.54L56.98 2.5c.98-.97 2.56-.97 3.54 0L75.68 17.7c.98.97.98 2.55 0 3.53-.48.48-1.12.73-1.76.73z"/></g><g fill="#0a1015"><path d="M202.24 67.6c-4.95 0-9.48-.96-13.56-2.9-4.1-1.94-7.6-4.47-10.55-7.6-2.95-3.13-5.23-6.73-6.83-10.8-1.6-4.07-2.42-8.24-2.42-12.5 0-4.44.86-8.7 2.57-12.76 1.7-4.07 4.05-7.67 7.03-10.8 2.98-3.13 6.5-5.62 10.55-7.47C193.08.93 197.5 0 202.23 0c4.97 0 9.5 1 13.58 2.96 4.1 1.97 7.6 4.55 10.5 7.75 2.92 3.2 5.18 6.8 6.8 10.85 1.6 4.04 2.4 8.12 2.4 12.26 0 4.52-.85 8.8-2.56 12.87-1.7 4.07-4.05 7.66-7.03 10.75-2.97 3.1-6.5 5.58-10.54 7.42-4.06 1.85-8.43 2.77-13.12 2.77zM172.4 33.8c0 4 .74 7.86 2.2 11.56 1.5 3.7 3.54 6.96 6.2 9.8 2.64 2.86 5.78 5.13 9.44 6.82 3.65 1.7 7.65 2.54 12 2.54 4.5 0 8.56-.9 12.2-2.68 3.66-1.8 6.8-4.12 9.4-7 2.62-2.88 4.63-6.16 6.04-9.86 1.4-3.7 2.1-7.42 2.1-11.17 0-4-.75-7.85-2.26-11.54-1.5-3.7-3.58-6.97-6.22-9.82-2.65-2.84-5.8-5.12-9.45-6.8-3.65-1.7-7.6-2.54-11.8-2.54-4.5 0-8.56.9-12.2 2.67-3.67 1.8-6.8 4.12-9.4 7-2.62 2.88-4.65 6.15-6.1 9.8-1.43 3.68-2.15 7.42-2.15 11.24zM252.28 67.14V.47h29.34c2.95 0 5.68.6 8.2 1.78 2.5 1.2 4.66 2.74 6.47 4.65 1.8 1.9 3.2 4.1 4.2 6.53 1.02 2.44 1.52 4.9 1.52 7.42 0 2.56-.42 5-1.26 7.32-.83 2.32-2.02 4.38-3.56 6.2-1.54 1.82-3.4 3.32-5.53 4.5-2.14 1.2-4.52 1.92-7.13 2.17l17.88 26.1h-4.02L280.72 41.4H255.8v25.74h-3.52zm3.52-28.73h26.42c2.48 0 4.74-.5 6.8-1.5 2.03-1 3.76-2.3 5.16-3.94 1.4-1.63 2.5-3.5 3.27-5.63s1.15-4.3 1.15-6.48c0-2.26-.45-4.43-1.35-6.53-.9-2.1-2.13-3.94-3.67-5.54s-3.35-2.88-5.43-3.85c-2.07-.97-4.28-1.46-6.63-1.46H255.8V38.4zM314.58 33.34c0-4 .75-7.98 2.26-11.93s3.7-7.5 6.58-10.65c2.88-3.16 6.42-5.73 10.6-7.7 4.2-1.97 8.96-2.96 14.32-2.96 6.36 0 11.77 1.36 16.23 4.08 4.45 2.72 7.75 6.2 9.9 10.47l-3.02 1.3c-1.34-2.36-2.9-4.37-4.67-6C365 8.33 363.08 7 361 6s-4.22-1.7-6.43-2.15c-2.2-.44-4.42-.66-6.63-.66-4.76 0-9 .88-12.7 2.67-3.73 1.78-6.86 4.12-9.4 7-2.55 2.87-4.48 6.13-5.78 9.76-1.3 3.63-1.96 7.3-1.96 11 0 4.06.77 7.97 2.3 11.73 1.55 3.75 3.67 7.06 6.4 9.9 2.7 2.85 5.9 5.12 9.58 6.8 3.7 1.7 7.64 2.55 11.86 2.55 2.28 0 4.6-.26 6.93-.8 2.35-.52 4.63-1.34 6.84-2.43 2.22-1.1 4.26-2.5 6.14-4.18 1.87-1.7 3.48-3.74 4.82-6.12l3.1 1.13c-1.2 2.5-2.83 4.74-4.9 6.68-2.1 1.94-4.4 3.57-6.94 4.88-2.55 1.3-5.25 2.3-8.1 2.96-2.84.66-5.6.98-8.28.98-4.9 0-9.36-1-13.42-3-4.05-2-7.55-4.62-10.5-7.84-2.94-3.23-5.24-6.9-6.88-11-1.64-4.1-2.46-8.27-2.46-12.52zM446.2.47v66.67h-3.4V34.56h-47.44v32.58h-3.5V.47h3.5v31.08h47.43V.47h3.4zM468 67.14V.47h3.53v66.67H468zM493.33 67.14V.47h23.3c5.64 0 10.56.88 14.78 2.63 4.23 1.75 7.73 4.13 10.5 7.14 2.8 3 4.9 6.52 6.3 10.56 1.4 4.04 2.1 8.34 2.1 12.9 0 5.08-.8 9.67-2.36 13.77-1.57 4.1-3.82 7.6-6.73 10.52-2.9 2.9-6.44 5.15-10.6 6.75s-8.8 2.4-13.96 2.4h-23.3zm53.45-33.43c0-4.37-.65-8.4-1.95-12.1-1.3-3.7-3.25-6.9-5.83-9.58-2.58-2.7-5.75-4.8-9.5-6.3s-8.04-2.25-12.86-2.25h-19.8v60.67h19.8c4.96 0 9.3-.77 13.06-2.3 3.76-1.54 6.9-3.67 9.45-6.4 2.54-2.7 4.45-5.94 5.73-9.66 1.27-3.72 1.9-7.75 1.9-12.07z"/></g></svg>