<svg xmlns="http://www.w3.org/2000/svg" viewBox="0 0 450 450" enable-background="new 0 0 450 450"><style type="text/css">.st0{fill:#FFFFFF;stroke:#a3a5a5;stroke-miterlimit:10;} .st1{fill:#7a7a7c;stroke:#a3a5a5;stroke-miterlimit:10;} .st2{fill:#cdcfcf;stroke:#a3a5a5;stroke-linecap:round;stroke-miterlimit:10;} .st3{fill:none;stroke:#a3a5a5;stroke-miterlimit:10;} .st4{fill:#a3a5a5;stroke:#a3a5a5;stroke-miterlimit:10;} .st5{fill:#b8baba;stroke:#a3a5a5;stroke-miterlimit:10;} .st6{fill:#c1c2c2;} .st7{fill:#555656;} .st8{fill:none;stroke:#a3a5a5;stroke-linecap:round;stroke-miterlimit:10;} .st9{fill:#a3a5a5;stroke:#555656;stroke-miterlimit:10;} .st10{fill:#FFFFFF;stroke:#555656;stroke-linecap:round;stroke-miterlimit:10;} .st11{fill:#c3c5c5;stroke:#555656;stroke-linecap:round;stroke-miterlimit:10;} .st12{fill:none;stroke:#555656;stroke-linecap:round;stroke-miterlimit:10;} .st13{fill:#b8baba;stroke:#555656;stroke-miterlimit:10;} .st14{fill:none;stroke:#555656;stroke-miterlimit:10;} .st15{fill:#cdcfcf;stroke:#555656;stroke-linecap:round;stroke-miterlimit:10;} .st16{fill:#FFFFFF;} .st17{fill:#7a7a7c;stroke:#555656;stroke-miterlimit:10;} .st18{fill:#FFFFFF;stroke:#555656;stroke-miterlimit:10;} .st19{fill:#a3a5a5;stroke:#555656;stroke-linecap:round;stroke-miterlimit:10;}</style><g id="Calque_9"><path d="M228.4 111.2H371v109.3H228.4z" class="st0"/><path d="M225.5 105.1h148.3v6.1H225.5zM225.1 220.5h149.1v2.6H225.1z" class="st1"/><circle cx="265.8" cy="133.4" r="14.5" class="st2"/><path d="M299.8 144.4H350v2.6h-50.2z" class="st3"/><path d="M302.7 124.4h11v20.1h-11z" class="st4"/><path d="M319.2 118.9h10.3v25.5h-10.3z" class="st5"/><path d="M334.7 122.5h10.8v21.9h-10.8z" class="st2"/><path d="M281.2 153.6h-31.4c-.3 0-.5-.2-.5-.5v-.3c0-.3.2-.5.5-.5h31.4c.3 0 .5.2.5.5v.3c0 .2-.2.5-.5.5zM349.4 153.6h-50.3c-.3 0-.5-.2-.5-.5v-.3c0-.3.2-.5.5-.5h50.3c.3 0 .5.2.5.5v.3c0 .2-.2.5-.5.5zM349.4 181.4h-99.7c-.3 0-.5-.2-.5-.5v-.3c0-.3.2-.5.5-.5h99.7c.3 0 .5.2.5.5v.3c0 .3-.2.5-.5.5zM349.4 157.3h-50.3c-.3 0-.5-.2-.5-.5v-.3c0-.3.2-.5.5-.5h50.3c.3 0 .5.2.5.5v.3c0 .3-.2.5-.5.5zM349.4 161h-50.3c-.3 0-.5-.2-.5-.5v-.3c0-.3.2-.5.5-.5h50.3c.3 0 .5.2.5.5v.3c0 .3-.2.5-.5.5zM349.4 164.7h-50.3c-.3 0-.5-.2-.5-.5v-.3c0-.3.2-.5.5-.5h50.3c.3 0 .5.2.5.5v.3c0 .3-.2.5-.5.5zM349.4 168.5h-50.3c-.3 0-.5-.2-.5-.5v-.3c0-.3.2-.5.5-.5h50.3c.3 0 .5.2.5.5v.3c0 .2-.2.5-.5.5zM329.6 172.2h-30.4c-.3 0-.5-.2-.5-.5v-.3c0-.3.2-.5.5-.5h30.4c.3 0 .5.2.5.5v.3c0 .2-.2.5-.5.5zM281.2 157.3h-31.4c-.3 0-.5-.2-.5-.5v-.3c0-.3.2-.5.5-.5h31.4c.3 0 .5.2.5.5v.3c0 .3-.2.5-.5.5zM281.2 161h-31.4c-.3 0-.5-.2-.5-.5v-.3c0-.3.2-.5.5-.5h31.4c.3 0 .5.2.5.5v.3c0 .3-.2.5-.5.5zM317.3 185.9h-67.5c-.3 0-.5-.2-.5-.5v-.3c0-.3.2-.5.5-.5h67.5c.3 0 .5.2.5.5v.3c0 .3-.2.5-.5.5zM266.1 164.7h-16.3c-.3 0-.5-.2-.5-.5v-.3c0-.3.2-.5.5-.5h16.3c.3 0 .5.2.5.5v.3c0 .3-.2.5-.5.5zM250.3 191h11.3v5.6h-11.3zM250.3 202.3h11.3v5.3h-11.3zM267.4 191h11.3v5.6h-11.3zM267.4 202.3h11.3v5.3h-11.3z" class="st6"/><path d="M284.4 191h11.3v5.6h-11.3zM284.4 202.3h11.3v5.3h-11.3z" class="st7"/><path d="M301.4 191h11.3v5.6h-11.3zM301.4 202.3h11.3v5.3h-11.3zM318.5 191h11.3v5.6h-11.3zM318.5 202.3h11.3v5.3h-11.3zM335.5 191h11.3v5.6h-11.3zM335.5 202.3h11.3v5.3h-11.3z" class="st6"/><circle cx="115.5" cy="130.4" r="17.4" class="st3"/><path d="M117.9 130.4c0 1.3-1.1 2.4-2.4 2.4s-2.4-1.1-2.4-2.4c0-1.3 1.1-2.4 2.4-2.4.5 0 .9.1 1.3.4.7.4 1.1 1.2 1.1 2z" class="st3"/><path d="M116.8 128.4l2.7-2.5M116.8 132.4l4.7 4.4" class="st8"/><circle cx="265.8" cy="133.4" r="9" class="st0"/><path d="M99.5 203.2s-4.4 2.5-5.7 1.6c-1.3-.9-2.1-5.1-2.3-6.7-.2-1.5-2-5.3-1.9-7.8.1-2.5 0-12.1 12.1-15 0 0 5.8-1.2 15.9-.6 0 0 1.5.6 0 4.9 0 0 2.2 3.3 1.8 6.3-.4 3-2.8 10.3-2.8 10.3l-9.7 2.4-7.4 4.6z" class="st9"/><path d="M99.5 214.7l1.2-9.9 8.7 1.7 1 .7-.5 8.4z" class="st10"/><path d="M113.4 213.6s4.9-2.1 8.3-1.5 9.2 6.9 9.2 6.9l6.8 10.1-3.9 15.8-26.2-6.1 5.8-25.2z" class="st11"/><path d="M86.9 275.2s-2.4 11.5 10.7 18.9c0 0 4.2 1 6.5 1s35.6 0 35.6 0l16.8 44.7h20.9l-27.2-59.6-25-1.7-38.3-3.3zM169.7 121.5l12.7 7.3 16.7-6.7s-.1-8 0-12.2c.1-4.2-5.1-5.8-6.4-6.3-1.2-.5-10.5-1.6-10.5-1.6-.9-1.2-6.4-1.3-6.4-1.3v3.2c-4.7 1.2-5.9 4.6-5.9 4.6l-.3 13.5" class="st9"/><path d="M174.4 152.5l5.7-12.5h9.5l3.6 14.6-14.9 3.8z" class="st10"/><path d="M356.6 216.4l.4-30.6s2.3-12.3 15.5-13.6c0 0 14.2-.5 17.7 14v33.1l-14.7 2.3-16.7-2.4-2.2-2.8z" class="st9"/><path d="M368.7 203.5v11.7h10.7l-1.1-12.5z" class="st10"/><path d="M203.7 225.7l1 112.9h-13.4l-5.5-89.6-11 83.1v6.5l-10.9-1.3-1.7-115.5z" class="st9"/><path d="M177.3 110.9h14.6s5.4 2.8 4.9 6.1l-.3 16.7s-1.1 9.9-12 11.6c0 0-8.5.1-11.9-10.3l-.5-19.2c-.1-.1 1.3-4.9 5.2-4.9z" class="st10"/><path d="M172.2 121.6s-3.6-.5-3.8 3.2c-.2 3.7 1.4 5.5 1.4 5.5l2.4 1.4M196.7 121.5s3.6-.3 3.7 2.6c0 2.9-.6 5.5-.6 5.5s-1.1 2.1-3 2" class="st12"/><path d="M175.5 123.3l4.5-.1M188.5 123.3h5" class="st8"/><path d="M186.1 124.5v9.7s-3 2.7-3.5-.6" class="st12"/><circle cx="177.9" cy="127.1" r="1.1" class="st7"/><circle cx="190.7" cy="127.1" r="1" class="st7"/><path d="M180.7 138.4s2.8 1.3 7 0" class="st12"/><path d="M204 260.1s6.9-5.8 8.1-9.2-.6-12.1-.6-12.1h-6.7l.1 13.2s.2 3 2.9.5l.1-6.7" class="st10"/><path d="M204.7 349h-13.5l.1-10.5h13.4s2.3 5.2 2.7 7.3c.4 2.2 0 3.1 0 3.1h-2.7z" class="st13"/><path d="M176.7 107.8s-.8-2.1-.8-3.8" class="st14"/><path d="M325.3 252.2l25.9-35.5s5.3-6.6 9.2-2.4c3.9 4.2 2.9 13.2 2.9 13.2l-5.9 1.3-15 20.5h6l.1 11.1h-23.2s-3.7-5.1 0-8.2z" class="st11"/><path d="M392.4 248.1l.3-16.6 12.6 17.6-12.8-.5-4.9-.2v12l26.5.2c10.8-3.1 5.3-11.5 5.3-11.5L400.5 223c-4.5-9.7-12.8-11-12.8-11s-17.3.3-24.7 0c-7.4-.3-8.6 6.8-8.6 6.8v58.5h38.2l.2-16" class="st15"/><path d="M348.4 251.9s4-.7 5.4 0c1.5.7 6.8 4.5 7.8 7.5s0 1.3 0 1.3l-13.1-.3-.1-8.5zM329.5 295.1l-3.2 2.1-19.9 36.1.2 6.5s-15.2 3.5-16.4 3.2-2.1-2.2-2.1-2.2 5.9-6 8.7-8.1c2.7-2.1 14.9-46.5 14.9-46.5s13.8-8.9 16.2-9c2.4-.1 19.9 0 19.9 0l-2.6 8.5" class="st10"/><path d="M288 340.8s-5.7 3.9-6.1 4.9c-.3 1-.2 2.5-.2 2.5s20.5-1.3 24.1-2.7c3.6-1.4.7-5.8.7-5.8l-16.4 3.2c.1 0-2.5-1.7-2.1-2.1z" class="st13"/><path d="M394.5 301.6h-51c-.8 0-1.5-.7-1.5-1.5v-6c0-.8.7-1.5 1.5-1.5h51c.8 0 1.5.7 1.5 1.5v6c0 .8-.7 1.5-1.5 1.5zM374.5 310.9H364c-.2 0-.3-.1-.3-.3V302c0-.2.1-.3.3-.3h10.5c.2 0 .3.1.3.3v8.6c0 .1-.1.3-.3.3z" class="st15"/><path d="M364.9 310.9h8.2v18.3h-8.2z" class="st9"/><path d="M363.7 329.1h11.2v6.8h-11.2z" class="st15"/><path d="M344.6 339.9s-.1-3.3 3.5-3.7c3.6-.4 42.9-.3 42.9-.3s3.4 1.5 3 4h-49.4z" class="st9"/><circle cx="348.4" cy="344.8" r="3.7" class="st9"/><circle cx="369.3" cy="344.8" r="3.7" class="st9"/><circle cx="390" cy="344.8" r="3.7" class="st9"/><path d="M135.1 304.5h-51c-.8 0-1.5-.7-1.5-1.5v-6c0-.8.7-1.5 1.5-1.5h51c.8 0 1.5.7 1.5 1.5v6c0 .8-.7 1.5-1.5 1.5zM115.2 310.9h-10.5c-.2 0-.3-.1-.3-.3v-5.8c0-.2.1-.3.3-.3h10.5c.2 0 .3.1.3.3v5.8c0 .1-.2.3-.3.3z" class="st15"/><path d="M105.6 310.9h8.2v18.3h-8.2z" class="st9"/><path d="M104.3 329.1h11.2v6.8h-11.2z" class="st15"/><path d="M85.2 339.9s-.1-3.3 3.5-3.7 42.9-.3 42.9-.3 3.4 1.5 3 4H85.2z" class="st9"/><circle cx="89" cy="344.8" r="3.7" class="st9"/><circle cx="109.9" cy="344.8" r="3.7" class="st9"/><path d="M344 260.4s.6-4.8 5.8-4.8c5.2.1 41.8 0 41.8 0v5l-47.6-.2z" class="st10"/><circle cx="130.6" cy="344.8" r="3.7" class="st9"/><path d="M382 197.7l1.4-.1" class="st14"/><path d="M381.7 193l1.6-.2c-.3 0-2.5-.6-3.6-6-1-5.2-7.4-5.4-7.4-5.4-2.8 5.4-10 5.2-10 5.2v12.2s1.7 8.5 10.7 8.7c9.1.2 10.4-8.4 10.4-8.4v-1.6s2.4-.2 2-2.8c-.3-2.6-2.2-2-2.2-2" class="st10"/><path d="M374.8 190.6s2.4-.6 3.2 0M364.6 190.5s3.1-.4 3.5 0" class="st8"/><path d="M369.8 202.3s.8 1.3 4.5 0M369.8 197.7s.8.7 2.5 0" class="st14"/><circle cx="366.7" cy="193.7" r=".7" class="st7"/><circle cx="376.2" cy="193.7" r=".8" class="st7"/><path d="M372.3 178.3M360 186.5M385.2 189.7M370.8 181.8" class="st14"/><path d="M86.9 261.3V278l38.3.5v-58.9s1.3-6.2-7.1-7.7c-8.4-1.6-27 0-27 0s-5.2 1.5-10.1 8.1-20.9 29.4-20.9 29.4-3.7 5.1 1.3 8.9c0 0 0 1.1 4.2 2.3l26.5.2v-11.6l-17.7.2L87 232.3v16.6" class="st15"/><path d="M168.9 339.8l-9.3-26.9" class="st14"/><path d="M92 249.2h4.7l7.3 6.8s-.2 2.6-1.4 2.7-2.6 1.1-3.6.6c-1-.6-1.7.7-2.8.2s-2.3.6-2.3.6H92v-10.9z" class="st10"/><path d="M95.4 252.9l4.2 6.1M94.1 255.4l2 3.6" class="st14"/><path d="M120.4 260.8H168l8.2-35s-46.1-.3-48 0c-1.9.3-3.4 4.8-3.4 4.8l-5.2 30.2h-14.4l-.7-3.3 11.7-.3 5.4-28.4s1.3-5.5 11.5-3.9" class="st10"/><path d="M116.8 187.4l.5 6.8s2.4.4 2.1 2.7c-.3 2.4-2.6 2.9-2.6 2.9-.5 4.5-4 6.7-4 6.7s-4.4 3.4-10.3 1.9-7-9-7-9-1.1-.3-1.2-2.3c-.1-2 1.2-2.6 1.2-2.6l-.1-5.3s1.2-3.1 4.1-3.8c2.9-.7 7.6.6 11.1-.4 3.5-1.1 4-1.9 4-1.9s2.5 2.8 2.2 4.3z" class="st10"/><circle cx="103.6" cy="195.2" r=".9" class="st7"/><circle cx="112.7" cy="195.2" r=".9" class="st7"/><path d="M101.1 191.6h4.2M111.2 192h3.4" class="st8"/><path d="M108.7 192.6l1.7 5.7s.6 2.2-.3 2.2c-.9 0-2.2 0-2.2 0" class="st14"/><path d="M95.5 194.7h2.1M95.5 199.5H97" class="st12"/><path d="M114.6 183.3s1.2-1.1 1.7-2.2M104.5 203.1s2.1 1.8 4.9.4" class="st14"/><path d="M372.4 257.2l6.2-7.8h9.1v11l-6.2.2v-1.1s-1.8 0-2-1.5l-1.4 1.6s-2 .4-2.3-1.3c0 .1-3.5 1.5-3.4-1.1z" class="st10"/><path d="M375.8 258.4l4.1-5.5M379.4 258.1l3.7-5.2M381.5 259.6l3.6-4.8" class="st14"/><path d="M340.7 277.3h51.9s1.1 12.7-13.9 14.6h-38.1v-14.6z" class="st9"/><path d="M303.6 341.8s-5.7 2.5-5.9 4.5c-.2 2 5.9 1.9 5.9 1.9l14.7-2s6.5-4.4 7-4.9c.5-.6-3.1-5.6-3.2-6.1" class="st13"/><path d="M303.6 341.8s4.7-5.7 9.1-6.6l14.6-50.6s3.2-8.3 13.4-7.3v14.6s-18.3 40-18.5 41 0 3.1 0 3.1-11.1 7.1-15.3 7-3.3-1.2-3.3-1.2zM156.5 193.8l1.8-37.4s2.1-5.3 5.7-5.3 38.3 0 38.3 0 6.5 1.5 6.5 8.4c0 7 3.6 79.2 3.6 79.2h-7.1l-.5-5h-48.2v-39.9z" class="st10"/><path d="M202.7 160.9l2 72.9M165.1 164.4l-1.2 51.9" class="st12"/><path d="M182.8 159.7l-2.6-2.8s-.1-.7 0-1.9 3.6-2.5 3.6-2.5 3.7 1.6 3.6 3.3c-.1 1.7-2.3 3.8-2.3 3.8l1.5 2.5s-1.2 25.7-2.2 27.2-2.4-.6-2.4-.6-1.6-24.4-1.9-25.9c-.3-1.5 2.7-3.1 2.7-3.1z" class="st9"/><path d="M374.3 177s.3 2.2-2.3 4.9" class="st14"/><path d="M122.8 246.8s2.2-20.6 5.5-20.3c3.3.3 4.5 0 4.5 0l-7.5 20.6-2.5-.3z" class="st16"/><path d="M53.4 260h351.4v9.5H53.4z" class="st10"/><path d="M59.2 269.5v79.7M69.5 269.5v79.7M379.1 269.5v79.4M389.6 269.5v79.4" class="st12"/><path d="M334.4 203.2s7.1-.9 8.3 3.5v35.1s-2.2 5.3-7.7 3.5c-5.5-1.8-16.3-14.1-16.3-14.1l15.7-28z" class="st15"/><path d="M321.8 242.8v6.5l8 8.7.4 2h-34.4l8.7-19.4z" class="st12"/><path d="M277 209.2v36.1h58s4.9-.8 4-7l.1-31.4s-.8-3.9-4.7-3.8c-3.9.1-55 0-55 0s-2.5.9-2.5 3.5c.1 2.6.1 2.6.1 2.6z" class="st10"/><path d="M244.3 342.7l22.7-7.8h3.8l3.1 13.4-29.6.4z" class="st13"/><path d="M200.1 226.2s1.4-2 2.1-2.5c.7-.6 8.6-4.9 8.6-4.9s.6-.3 1.2 0 5.3-3.3 5.3-3.3 2.8-1.8 2.7 2.1c0 0-6.4 6.9-8.1 7.8s-4.3 2.4-4.3 2.4l-2.8 3.4-4.7-5z" class="st10"/><path d="M206.9 224.5l5.1-3.3s.7-1.7 0-2.5" class="st12"/><path d="M158.8 289.4l14.2-.5s-8.1 42.3-8.7 44c-.6 1.7 10.7 6.7 10 8.2-.6 1.5-16.8-2.4-16.8-2.4l-2-2.4s.9-41.8 1.8-43.3c1-1.5 1.2-4.1 1.2-4.1" class="st10"/><path d="M178.2 281.6s6.5-2.2 11.4 2.6c5 4.7-3.4 30.4-3.4 30.4l-3.3 18.3 9.4 8.4s-.4 1.4-2.9 1.4-15-5.8-15-5.8l1.8-50.3 2-5z" class="st10"/><path d="M155.5 336.3l-.6 12h3.1l1-4.3s11.4 6.3 20.7 4.5c0 0 1.8-3.9-2.2-6s-4.1-2.9-4.1-2.9 2.7 2-.6 1.7c-3.3-.3-15.2-2.7-15.2-2.7l-2.1-2.3z" class="st13"/><path d="M148.7 214.2v-14.4l-3.4-13.8 16.3-7.1 5.4.8 3.4 12.7-2.6 1.8s-.1 1.5-.4 2.4c-.3.9.4 5.3-5.2 6-5.6.8-1.5 2.3-1.5 2.3L160 215l-11.3-.8z" class="st10"/><path d="M167.4 174.5s-6.3-5.5-17.9-3.2c-11.6 2.3-13.4 20.3-13.4 20.3s-.3 11.3.6 14.6c0 0 25.3 1.9 29 .3 0 0-2.7-11.4-2.3-12.5 0 0-1.7-1.1-1.6-3.7.2-2.6 2.1-2.7 2.1-2.7s-.1-5.8 4.2-8.8c0 .1 1-2.3-.7-4.3z" class="st9"/><path d="M221.4 256.8s-.9 3.4 0 3.4 16.8 0 16.8 0v-2.7l-3.7-1.2-13.1.5z" class="st12"/><path d="M223.5 254.2c.4-.2 10.3-3.8 10.3-3.8l6.6.6.6 5.7s-4.1.8-6.6.5c-2.5-.3-6.1 1.1-6.1 1.1l-2.3-1-3.3-1.3.8-1.8zM225.2 257l9.3-3.4" class="st10"/><path d="M261.9 288l-1.5 48.9h12.3s6.1-46.4 5.2-50.2c-.9-3.9-16 1.3-16 1.3z" class="st17"/><path d="M218.9 345.1c.3-.4 24.5-9.6 24.5-9.6l7.1-.6 1.3 4.3v9.6l-32.2-.5c-.1 0-2.6-.9-.7-3.2z" class="st13"/><path d="M284.4 213.1l.4-6.6s-6.8-2.6-7.4-9.8c0 0-2.4-.9-2.7-2.4-.4-1.5 3.1-7.7 3.1-7.7l-1.1-2.1s-.4-6.3 2.7-8.1 16.8-1.9 16.8-1.9l5.8 5.6-.9 17.3-4.4 3.9-.1 13-11.4 1.2-.8-2.4z" class="st10"/><path d="M290.3 207.7s-4.8-.3-5.5-1.2M281.7 198.9s-.5 1-3.6.9" class="st12"/><path d="M278.8 184.5l5.2-.2" class="st8"/><circle cx="282" cy="188.5" r="1.2" class="st7"/><path d="M275.3 167.6s-2.7 7.8 3.9 10.8l11.6.4s4.9 5.7 3.3 9.7l-.1 1.2s5.9 2 .7 5.7c0 0-.3 5.8-1.1 7.2-.8 1.4 7.7 1 9.5-1.1 1.8-2.1 3.2-9.8 3.2-9.8s3.9-8.8-.5-16.1-12.3-8.4-12.3-8.4l-17.9-.2-.3.6zM129 275.5l-1.8 13.1 6.5 6.6h42l6.6-14.2s-28.6-4.9-33.5-5.5c-4.9-.6-13.7 0-13.7 0H129z" class="st9"/><path d="M174.4 336.9l-.4 11.3h3.8l.2-4.3s9.8 4.9 15.4 4.3c5.6-.5 5.6-.5 5.6-.5s.9-3.9-3.5-5.1-3.2-1.2-3.2-1.2-.8 1.5-2.9 1.4c-2.2-.2-15-5.9-15-5.9z" class="st13"/><path d="M239.4 337.9h12.9s4-40.9 3.9-42.7c-.2-1.8 56.6 0 56.6 0v-25.5l-36.7-1.3-5.4 10.1h-19.9s-10.3 5.3-9.4 13.5c1 8.3-2 45.9-2 45.9z" class="st9"/><path d="M270.7 278.5h43.9v-58.9s-.1-7.4-11.2-8.4c-11.2-1.1-28.8 0-28.8 0s-5.7 2.7-6.6 8.7c-.9 5.9-11.5 27.2-11.5 27.2s-14 2.5-18.8 1.9c0 0 .9 10.3.3 11s25.4.3 25.4.3 5.9-5 7.1-7.4c1.2-2.4 1.2 3.6 1.2 3.6l-1 22z" class="st15"/><path d="M282.6 228.1l-12.1 24.6M164.9 231l3.9 9.1" class="st12"/><path d="M125.2 282.1l9.3-63.2s3.8-7.2 10.5-7.4 24.9 0 24.9 0 4.6 2.4 5.6 5.9 10.8 24.3 10.8 24.3l11.9-17.6 7.8 7.9s-12.3 22.2-13.2 23.6-3.7 4.9-8.2 4.9c-4.5 0-7.9-3.8-7.9-3.8l-7.8-16.6s-3 5.7-5.9 7.2l-4.2 29.4-17.2-.5-16.4 5.9zM164.9 228.5l3.9 12.1" class="st15"/><path d="M129.1 301.1l.6 47.3h2.5l2.1-48.6zM158.9 301.3l1.7 47.7h2.5v-48.1z" class="st18"/><path d="M116.6 250.8l6 50.3s-.3 4.3 4.3 4h38.8s2.5-.7 2.5-3.6c.1-2.9 0-3.7 0-3.7s0-2.7-3.4-2.6c-3.4.1-6.3.2-6.3.2l-9.2-45.6s-.4-2.6-4.1-2.2c-3.8.4-26.9 0-26.9 0s-2.3.1-1.7 3.2z" class="st13"/><path d="M159.4 299.2l-.9-3.8" class="st14"/><path d="M318.9 304.9h-47.8s-3.3-.1-3-3.3c.3-3.2 0-3.5 0-3.5s.2-3 3.5-2.7c3.3.3 14.5 0 14.5 0l9.5-45.5s.7-2.4 3.2-2.3c2.5.2 28.3.4 28.3.4s1.7.2 1.2 3.3c-.5 3.1-6.3 50.8-6.3 50.8s0 3.1-3.1 2.8z" class="st13"/><path d="M285 298.9l1.1-3.5" class="st14"/><path d="M300.2 311.9h-10.5c-.1 0-.3-.1-.3-.3v-6.4c0-.1.1-.3.3-.3h10.5c.1 0 .3.1.3.3v6.4c0 .2-.2.3-.3.3z" class="st13"/><path d="M291 311.9h8.1v17.9H291z" class="st9"/><path d="M300 336.4h-10.2c-.2 0-.4-.2-.4-.4v-5.8c0-.2.2-.4.4-.4H300c.2 0 .4.2.4.4v5.8c.1.2-.1.4-.4.4zM270.4 340.7s1.2-4.3 4.1-4.3 42.3 0 42.3 0 2.8 1.3 3.1 4.1l-49.5.2z" class="st13"/><circle cx="274.4" cy="344.7" r="3.2" class="st13"/><circle cx="295.2" cy="344.7" r="3.2" class="st13"/><circle cx="315.9" cy="344.7" r="3.2" class="st13"/><path d="M15 349.2h420" class="st19"/></g></svg>