<svg width="377" height="80" viewBox="0 0 377 80" fill="none" xmlns="http://www.w3.org/2000/svg">
    <g clip-path="url(#clip0_1946_7226)">
        <path d="M39.341 0L27.5391 23.5784L35.407 39.2974L39.341 46.9187L43.275 39.2974L51.1429 23.5784L39.341 0Z" fill="#2269FF"/>
        <path d="M62.9317 47.1565L55.0638 31.4375L39.3279 62.8754L23.592 31.4375L15.724 47.1565L0 78.5825H5.98442C11.9569 78.5825 17.4049 75.2124 20.0752 69.8656L23.592 62.8397V62.8635L31.4718 78.5825H47.2077L55.0757 62.8635V62.8397L58.6044 69.8656C61.2628 75.2005 66.7227 78.5825 72.6952 78.5825H78.6796L62.9437 47.1446L62.9317 47.1565Z" fill="#515151"/>
        <path d="M110.25 20.6133L110.369 21.9113L106.638 30.0089H100.117L114.506 0L128.895 29.997H122.326L118.678 22.1375L118.762 20.6847L114.506 10.8485L110.25 20.6014V20.6133ZM107.782 18.9937H121.396L122.088 23.5665H107.091L107.782 18.9937Z" fill="#2269FF"/>
        <path d="M135.998 23.2434C136.713 24.0293 137.5 24.6367 138.37 25.0654C139.24 25.4941 140.17 25.7084 141.171 25.7084C142.328 25.7084 143.281 25.4107 144.009 24.8153C144.736 24.2199 145.105 23.4101 145.105 22.386C145.105 21.4929 144.879 20.7784 144.438 20.2425C143.997 19.7066 143.329 19.2184 142.447 18.8016C141.565 18.3848 140.492 17.9323 139.228 17.444C138.549 17.2059 137.774 16.8724 136.904 16.4557C136.021 16.0389 135.199 15.503 134.412 14.8361C133.625 14.1693 132.982 13.3595 132.469 12.4068C131.956 11.4542 131.694 10.2991 131.694 8.94151C131.694 7.32198 132.111 5.92871 132.934 4.74979C133.756 3.57087 134.877 2.66584 136.296 2.0347C137.714 1.40356 139.3 1.08203 141.064 1.08203C142.828 1.08203 144.438 1.37974 145.749 1.98706C147.06 2.59439 148.157 3.36843 149.027 4.29727C149.91 5.22612 150.589 6.19069 151.078 7.19099L146.536 9.70364C146.154 9.02487 145.701 8.41755 145.177 7.85786C144.652 7.31008 144.044 6.85756 143.377 6.52413C142.697 6.19069 141.934 6.02398 141.064 6.02398C139.932 6.02398 139.073 6.28596 138.513 6.80993C137.941 7.33389 137.667 7.95312 137.667 8.65571C137.667 9.3583 137.893 9.96563 138.358 10.5015C138.811 11.0255 139.514 11.5256 140.468 12.0019C141.422 12.4783 142.602 12.9546 144.032 13.4429C144.95 13.7644 145.833 14.1693 146.691 14.6575C147.537 15.1457 148.312 15.7292 149.004 16.4199C149.695 17.1106 150.231 17.9204 150.625 18.8492C151.018 19.7781 151.209 20.8498 151.209 22.0645C151.209 23.4458 150.935 24.6724 150.398 25.7441C149.862 26.8278 149.111 27.7328 148.169 28.4711C147.227 29.2094 146.166 29.781 144.986 30.174C143.806 30.567 142.578 30.7575 141.279 30.7575C139.55 30.7575 137.929 30.4241 136.439 29.7691C134.948 29.1142 133.637 28.2092 132.528 27.0779C131.42 25.9466 130.55 24.72 129.93 23.3982L134.066 20.4807C134.662 21.5286 135.318 22.4574 136.033 23.2315L135.998 23.2434Z" fill="#2269FF"/>
        <path d="M159.958 23.2434C160.674 24.0293 161.461 24.6367 162.331 25.0654C163.201 25.4941 164.131 25.7084 165.132 25.7084C166.289 25.7084 167.242 25.4107 167.969 24.8153C168.697 24.2199 169.066 23.4101 169.066 22.386C169.066 21.4929 168.84 20.7784 168.399 20.2425C167.958 19.7066 167.29 19.2184 166.408 18.8016C165.526 18.3848 164.453 17.9323 163.189 17.444C162.51 17.2059 161.735 16.8724 160.865 16.4557C159.982 16.0389 159.16 15.503 158.373 14.8361C157.586 14.1693 156.942 13.3595 156.43 12.4068C155.917 11.4542 155.655 10.2991 155.655 8.94151C155.655 7.32198 156.072 5.92871 156.895 4.74979C157.717 3.57087 158.838 2.66584 160.257 2.0347C161.675 1.40356 163.261 1.08203 165.025 1.08203C166.789 1.08203 168.399 1.37974 169.71 1.98706C171.021 2.59439 172.118 3.36843 172.988 4.29727C173.87 5.22612 174.55 6.19069 175.039 7.19099L170.497 9.70364C170.115 9.02487 169.662 8.41755 169.138 7.85786C168.613 7.31008 168.005 6.85756 167.338 6.52413C166.658 6.19069 165.895 6.02398 165.025 6.02398C163.892 6.02398 163.034 6.28596 162.474 6.80993C161.902 7.33389 161.627 7.95312 161.627 8.65571C161.627 9.3583 161.854 9.96563 162.319 10.5015C162.772 11.0255 163.475 11.5256 164.429 12.0019C165.383 12.4783 166.563 12.9546 167.993 13.4429C168.911 13.7644 169.793 14.1693 170.652 14.6575C171.498 15.1457 172.273 15.7292 172.964 16.4199C173.656 17.1106 174.192 17.9204 174.586 18.8492C174.979 19.7781 175.17 20.8498 175.17 22.0645C175.17 23.4458 174.896 24.6724 174.359 25.7441C173.823 26.8278 173.072 27.7328 172.13 28.4711C171.188 29.2094 170.127 29.781 168.947 30.174C167.767 30.567 166.539 30.7575 165.24 30.7575C163.511 30.7575 161.89 30.4241 160.4 29.7691C158.909 29.1142 157.598 28.2092 156.489 27.0779C155.381 25.9466 154.511 24.72 153.891 23.3982L158.027 20.4807C158.623 21.5286 159.279 22.4574 159.994 23.2315L159.958 23.2434Z" fill="#2269FF"/>
        <path d="M185.354 1.65625V29.998H179.477V1.65625H185.354Z" fill="#2269FF"/>
        <path d="M195.513 23.2434C196.228 24.0293 197.015 24.6367 197.885 25.0654C198.756 25.4941 199.686 25.7084 200.687 25.7084C201.843 25.7084 202.797 25.4107 203.524 24.8153C204.251 24.2199 204.621 23.4101 204.621 22.386C204.621 21.4929 204.394 20.7784 203.953 20.2425C203.512 19.7066 202.845 19.2184 201.963 18.8016C201.08 18.3848 200.007 17.9323 198.744 17.444C198.064 17.2059 197.289 16.8724 196.419 16.4557C195.537 16.0389 194.714 15.503 193.928 14.8361C193.141 14.1693 192.497 13.3595 191.985 12.4068C191.472 11.4542 191.21 10.2991 191.21 8.94151C191.21 7.32198 191.627 5.92871 192.449 4.74979C193.272 3.57087 194.393 2.66584 195.811 2.0347C197.23 1.40356 198.815 1.08203 200.58 1.08203C202.344 1.08203 203.953 1.37974 205.265 1.98706C206.576 2.59439 207.673 3.36843 208.543 4.29727C209.425 5.22612 210.105 6.19069 210.593 7.19099L206.051 9.70364C205.67 9.02487 205.217 8.41755 204.692 7.85786C204.168 7.31008 203.56 6.85756 202.892 6.52413C202.213 6.19069 201.45 6.02398 200.58 6.02398C199.447 6.02398 198.589 6.28596 198.029 6.80993C197.456 7.33389 197.182 7.95312 197.182 8.65571C197.182 9.3583 197.409 9.96563 197.874 10.5015C198.327 11.0255 199.03 11.5256 199.984 12.0019C200.937 12.4783 202.117 12.9546 203.548 13.4429C204.466 13.7644 205.348 14.1693 206.206 14.6575C207.053 15.1457 207.828 15.7292 208.519 16.4199C209.211 17.1106 209.747 17.9204 210.14 18.8492C210.534 19.7781 210.725 20.8498 210.725 22.0645C210.725 23.4458 210.45 24.6724 209.914 25.7441C209.377 26.8278 208.626 27.7328 207.685 28.4711C206.743 29.2094 205.682 29.781 204.502 30.174C203.322 30.567 202.094 30.7575 200.794 30.7575C199.066 30.7575 197.444 30.4241 195.954 29.7691C194.464 29.1142 193.153 28.2092 192.044 27.0779C190.935 25.9466 190.065 24.72 189.445 23.3982L193.582 20.4807C194.178 21.5286 194.834 22.4574 195.549 23.2315L195.513 23.2434Z" fill="#2269FF"/>
        <path d="M212.188 1.65625H233.264V6.884H225.599V29.998H219.805V6.884H212.188V1.65625Z" fill="#2269FF"/>
        <path d="M241.732 1.65625V29.998H236.141V1.65625H241.732ZM239.872 1.65625H254.177V6.56247H239.872V1.65625ZM239.872 12.5523H253.367V17.3752H239.872V12.5523ZM239.872 25.1037H254.177V29.998H239.872V25.1037Z" fill="#2269FF"/>
        <path d="M265.405 1.65625V29.998H259.492V1.65625H265.405ZM263.212 29.998V24.7345H268.922C270.162 24.7345 271.342 24.5678 272.45 24.2225C273.559 23.8891 274.537 23.3532 275.371 22.6268C276.206 21.9004 276.861 20.9715 277.338 19.8521C277.815 18.7328 278.041 17.3871 278.041 15.8271C278.041 14.2671 277.803 12.9215 277.338 11.8021C276.861 10.6827 276.206 9.7539 275.371 9.02749C274.537 8.30108 273.559 7.76521 272.45 7.43178C271.342 7.09835 270.162 6.93163 268.922 6.93163H263.212V1.65625H269.124C272.093 1.65625 274.704 2.23976 276.933 3.39486C279.162 4.54997 280.903 6.19331 282.142 8.31299C283.382 10.4327 284.002 12.9334 284.002 15.8271C284.002 18.7209 283.382 21.2216 282.142 23.3413C280.903 25.461 279.162 27.1043 276.933 28.2594C274.704 29.4145 272.105 29.998 269.124 29.998H263.212Z" fill="#2269FF"/>
        <path d="M107.567 78.5831H101.523L105.744 48.8242L117.617 67.1273L129.49 48.8242L133.711 78.5831H127.667L125.843 62.6736L117.617 75.9513L109.391 62.6736L107.567 78.5831Z" fill="#515151"/>
        <path d="M143.721 50.2422V78.584H137.844V50.2422H143.721Z" fill="#515151"/>
        <path d="M175.219 50.2413V80.0002L155.036 61.0064V78.5831H149.445V48.8242L169.628 67.818V50.2413H175.219Z" fill="#515151"/>
        <path d="M186.889 50.2422V78.584H180.977V50.2422H186.889ZM184.696 78.584V73.3205H190.406C191.646 73.3205 192.826 73.1538 193.935 72.8084C195.044 72.475 196.021 71.9391 196.856 71.2127C197.69 70.4863 198.346 69.5575 198.823 68.4381C199.299 67.3187 199.526 65.9731 199.526 64.4131C199.526 62.8531 199.287 61.5074 198.823 60.3881C198.346 59.2687 197.69 58.3398 196.856 57.6134C196.021 56.887 195.044 56.3512 193.935 56.0177C192.826 55.6843 191.646 55.5176 190.406 55.5176H184.696V50.2541H190.609C193.577 50.2541 196.188 50.8376 198.417 51.9927C200.646 53.1478 202.387 54.7912 203.627 56.9108C204.867 59.0305 205.486 61.5313 205.486 64.425C205.486 67.3187 204.867 69.8194 203.627 71.9391C202.387 74.0588 200.646 75.7021 198.417 76.8573C196.188 78.0124 193.589 78.5959 190.609 78.5959H184.696V78.584Z" fill="#515151"/>
        <path d="M215.177 50.2422V78.584H209.586V50.2422H215.177ZM213.317 50.2422H226.001V55.3032H213.317V50.2422ZM213.317 61.6623H225.596V66.4851H213.317V61.6623Z" fill="#515151"/>
        <path d="M236.505 50.2422V68.9025C236.505 70.522 236.934 71.82 237.78 72.8084C238.627 73.7968 239.89 74.2851 241.571 74.2851C243.252 74.2851 244.516 73.7968 245.362 72.8084C246.208 71.82 246.638 70.522 246.638 68.9025V50.2422H252.431V69.2717C252.431 70.9507 252.157 72.4155 251.621 73.6896C251.084 74.9638 250.321 76.0237 249.332 76.893C248.342 77.7623 247.186 78.4172 245.863 78.8579C244.539 79.2985 243.109 79.5247 241.571 79.5247C240.033 79.5247 238.555 79.2985 237.232 78.8579C235.909 78.4172 234.764 77.7623 233.787 76.893C232.809 76.0237 232.058 74.9638 231.522 73.6896C230.985 72.4155 230.711 70.9507 230.711 69.2717V50.2422H236.505Z" fill="#515151"/>
        <path d="M263.731 50.2422V73.5229H275.044V78.584H257.938V50.2422H263.731Z" fill="#515151"/>
        <path d="M303.742 50.2413V80.0002L283.56 61.0064V78.5831H277.969V48.8242L298.151 67.818V50.2a.svg413H303.742Z" fill="#515151"/>
        <path d="M315.091 50.2422V78.584H309.5V50.2422H315.091ZM313.231 50.2422H327.537V55.1365H313.231V50.2422ZM313.231 61.1383H326.726V65.9612H313.231V61.1383ZM313.231 73.6896H327.537V78.584H313.231V73.6896Z" fill="#515151"/>
        <path d="M337.287 71.8293C338.002 72.6153 338.789 73.2226 339.659 73.6513C340.529 74.08 341.459 74.2943 342.46 74.2943C343.617 74.2943 344.57 73.9966 345.298 73.4012C346.025 72.8058 346.394 71.996 346.394 70.9719C346.394 70.0788 346.168 69.3643 345.727 68.8284C345.286 68.2926 344.618 67.8043 343.736 67.3875C342.854 66.9707 341.781 66.5182 340.517 66.03C339.838 65.7918 339.063 65.4584 338.193 65.0416C337.31 64.6248 336.488 64.0889 335.701 63.4221C334.914 62.7552 334.271 61.9454 333.758 60.9928C333.245 60.0401 332.983 58.885 332.983 57.5275C332.983 55.9079 333.4 54.5147 334.223 53.3357C335.045 52.1568 336.166 51.2518 337.585 50.6206C339.003 49.9895 340.589 49.668 342.353 49.668C344.117 49.668 345.727 49.9657 347.038 50.573C348.349 51.1803 349.446 51.9544 350.316 52.8832C351.199 53.8121 351.878 54.7766 352.367 55.7769L347.825 58.2896C347.443 57.6108 346.99 57.0035 346.466 56.4438C345.941 55.896 345.333 55.4435 344.666 55.1101C343.986 54.7766 343.223 54.6099 342.353 54.6099C341.221 54.6099 340.362 54.8719 339.802 55.3959C339.23 55.9198 338.956 56.5391 338.956 57.2417C338.956 57.9442 339.182 58.5516 339.647 59.0874C340.1 59.6114 340.803 60.1116 341.757 60.5879C342.711 61.0642 343.891 61.5406 345.321 62.0288C346.239 62.3503 347.122 62.7552 347.98 63.2434C348.826 63.7317 349.601 64.3152 350.293 65.0059C350.984 65.6966 351.52 66.5063 351.914 67.4352C352.307 68.364 352.498 69.4358 352.498 70.6504C352.498 72.0318 352.224 73.2583 351.687 74.3301C351.151 75.4137 350.4 76.3188 349.458 77.0571C348.516 77.7954 347.455 78.367 346.275 78.76C345.095 79.1529 343.867 79.3435 342.568 79.3435C340.839 79.3435 339.218 79.01 337.728 78.3551C336.238 77.7001 334.926 76.7951 333.818 75.6638C332.709 74.5325 331.839 73.306 331.219 71.9841L335.355 69.0666C335.951 70.1145 336.607 71.0434 337.322 71.8174L337.287 71.8293Z" fill="#515151"/>
        <path d="M361.24 71.8293C361.955 72.6153 362.742 73.2226 363.612 73.6513C364.482 74.08 365.412 74.2943 366.414 74.2943C367.57 74.2943 368.524 73.9966 369.251 73.4012C369.978 72.8058 370.348 71.996 370.348 70.9719C370.348 70.0788 370.121 69.3643 369.68 68.8284C369.239 68.2926 368.571 67.8043 367.689 67.3875C366.807 66.9707 365.734 66.5182 364.47 66.03C363.791 65.7918 363.016 65.4584 362.146 65.0416C361.264 64.6248 360.441 64.0889 359.654 63.4221C358.867 62.7552 358.224 61.9454 357.711 60.9928C357.198 60.0401 356.936 58.885 356.936 57.5275C356.936 55.9079 357.353 54.5147 358.176 53.3357C358.999 52.1568 360.119 51.2518 361.538 50.6206C362.956 49.9895 364.542 49.668 366.306 49.668C368.071 49.668 369.68 49.9657 370.991 50.573C372.303 51.1803 373.399 51.9544 374.27 52.8832C375.152 53.8121 375.831 54.7766 376.32 55.7769L371.778 58.2896C371.397 57.6108 370.944 57.0035 370.419 56.4438C369.895 55.896 369.287 55.4435 368.619 55.1101C367.939 54.7766 367.176 54.6099 366.306 54.6099C365.174 54.6099 364.315 54.8719 363.755 55.3959C363.183 55.9198 362.909 56.5391 362.909 57.2417C362.909 57.9442 363.135 58.5516 363.6 59.0874C364.053 59.6114 364.756 60.1116 365.71 60.5879C366.664 61.0642 367.844 61.5406 369.275 62.0288C370.193 62.3503 371.075 62.7552 371.933 63.2434C372.779 63.7317 373.554 64.3152 374.246 65.0059C374.937 65.6966 375.474 66.5063 375.867 67.4352C376.26 68.364 376.451 69.4358 376.451 70.6504C376.451 72.0318 376.177 73.2583 375.641 74.3301C375.104 75.4137 374.353 76.3188 373.411 77.0571C372.469 77.7954 371.408 78.367 370.228 78.76C369.048 79.1529 367.82 79.3435 366.521 79.3435C364.792 79.3435 363.171 79.01 361.681 78.3551C360.191 77.7001 358.879 76.7951 357.771 75.6638C356.662 74.5325 355.792 73.306 355.172 71.9841L359.309 69.0666C359.905 70.1145 360.56 71.0434 361.275 71.8174L361.24 71.8293Z" fill="#515151"/>
    </g>
    <defs>
        <clipPath id="clip0_1946_7226">
            <rect width="376.41" height="80" fill="#515151"/>
        </clipPath>
    </defs>
</svg>
