<svg id="Layer_1" data-name="Layer 1" viewBox="0 0 156.606 64" xmlns="http://www.w3.org/2000/svg">
    <defs>
        <style>
            .cls-1,.cls-2{fill:#2e2e2e;}.cls-1{fill-rule:evenodd;}.cls-3{fill:#f8f8f8;}.cls-4{fill:#ff5d5d;}.cls-5{fill:#fea02c;}.cls-6{fill:#62cd4d;}.cls-7{fill:#4dbaf6;}
        </style>
    </defs>
    <title>sajya</title>
    <path class="cls-2" d="M 89.231 36.632 C 89.284 35.339 88.734 34.093 87.741 33.262 C 86.081 32.145 84.225 31.351 82.271 30.922 C 80.217 30.433 78.257 29.608 76.471 28.482 C 73.084 26.194 72.987 21.242 76.281 18.822 C 78.082 17.547 80.255 16.904 82.461 16.992 C 84.038 16.968 85.599 17.31 87.021 17.992 C 88.301 18.589 89.384 19.54 90.141 20.732 C 90.881 21.905 91.267 23.266 91.251 24.652 L 89.071 24.652 C 89.133 23.049 88.477 21.502 87.281 20.432 C 85.931 19.315 84.211 18.744 82.461 18.832 C 80.801 18.745 79.159 19.209 77.791 20.152 C 76.677 20.932 76.025 22.214 76.051 23.572 C 76.027 24.825 76.608 26.012 77.611 26.762 C 79.126 27.795 80.822 28.531 82.611 28.932 C 84.421 29.375 86.173 30.03 87.831 30.882 C 88.904 31.461 89.82 32.291 90.501 33.302 C 91.118 34.298 91.431 35.452 91.401 36.622 C 91.439 38.532 90.529 40.337 88.971 41.442 C 87.108 42.74 84.868 43.383 82.601 43.272 C 80.883 43.283 79.182 42.942 77.601 42.272 C 76.222 41.721 75.033 40.779 74.181 39.562 C 73.394 38.379 72.986 36.984 73.011 35.562 L 75.171 35.562 C 75.1 37.227 75.847 38.821 77.171 39.832 C 78.739 40.94 80.633 41.489 82.551 41.392 C 84.249 41.477 85.931 41.018 87.351 40.082 C 88.521 39.325 89.228 38.026 89.231 36.632 Z"></path>
    <path class="cls-2" d="M 107.581 42.922 C 107.33 42.061 107.195 41.17 107.181 40.272 C 106.439 41.234 105.47 41.997 104.361 42.492 C 103.221 43.01 101.983 43.276 100.731 43.272 C 99.11 43.347 97.522 42.799 96.291 41.742 C 95.183 40.769 94.561 39.357 94.591 37.882 C 94.544 36.114 95.419 34.448 96.901 33.482 C 98.832 32.297 101.079 31.732 103.341 31.862 L 107.161 31.862 L 107.161 29.702 C 107.224 28.501 106.764 27.331 105.901 26.492 C 104.872 25.657 103.564 25.242 102.241 25.332 C 100.935 25.28 99.651 25.675 98.601 26.452 C 97.71 27.069 97.173 28.079 97.161 29.162 L 95.051 29.162 C 95.081 27.589 95.866 26.127 97.161 25.232 C 98.644 24.097 100.474 23.51 102.341 23.572 C 104.146 23.475 105.924 24.04 107.341 25.162 C 108.601 26.287 109.293 27.915 109.231 29.602 L 109.231 38.602 C 109.161 40.003 109.358 41.405 109.811 42.732 L 109.811 42.922 L 107.581 42.922 Z M 100.971 41.412 C 102.297 41.44 103.603 41.094 104.741 40.412 C 105.81 39.778 106.655 38.828 107.161 37.692 L 107.161 33.482 L 103.401 33.482 C 101.687 33.415 99.987 33.812 98.481 34.632 C 97.368 35.25 96.684 36.43 96.701 37.702 C 96.681 38.722 97.117 39.698 97.891 40.362 C 98.75 41.086 99.849 41.461 100.971 41.412 Z"></path>
    <path class="cls-2" d="M 117.131 23.922 L 117.131 45.192 C 117.225 46.638 116.771 48.066 115.861 49.192 C 114.879 50.176 113.517 50.683 112.131 50.582 C 111.503 50.583 110.88 50.471 110.291 50.252 L 110.291 48.532 C 110.808 48.68 111.343 48.754 111.881 48.752 C 113.961 48.752 115.001 47.552 115.001 45.152 L 115.001 23.922 L 117.131 23.922 Z M 116.131 17.012 C 116.943 16.958 117.622 17.619 117.591 18.432 C 117.603 18.805 117.462 19.167 117.201 19.432 C 116.918 19.714 116.529 19.863 116.131 19.842 C 115.738 19.864 115.355 19.715 115.081 19.432 C 114.826 19.163 114.689 18.803 114.701 18.432 C 114.696 18.063 114.832 17.706 115.081 17.432 C 115.34 17.15 115.707 16.99 116.091 16.992 L 116.131 17.012 Z"></path>
    <path class="cls-2" d="M 129.101 39.922 L 134.651 23.922 L 136.971 23.922 L 128.851 46.182 L 128.431 47.182 C 127.384 49.496 125.771 50.649 123.591 50.642 C 123.043 50.635 122.498 50.555 121.971 50.402 L 121.971 48.622 L 123.061 48.722 C 123.957 48.766 124.84 48.497 125.561 47.962 C 126.33 47.248 126.893 46.339 127.191 45.332 L 128.121 42.762 L 120.891 23.922 L 123.191 23.922 L 129.101 39.922 Z"></path>
    <path class="cls-2" d="M 151.911 42.922 C 151.66 42.061 151.525 41.17 151.511 40.272 C 150.769 41.234 149.8 41.997 148.691 42.492 C 147.551 43.01 146.313 43.276 145.061 43.272 C 143.44 43.347 141.852 42.799 140.621 41.742 C 139.542 40.769 138.94 39.375 138.971 37.922 C 138.924 36.154 139.799 34.488 141.281 33.522 C 143.215 32.337 145.466 31.772 147.731 31.902 L 151.541 31.902 L 151.541 29.702 C 151.604 28.501 151.144 27.331 150.281 26.492 C 149.252 25.655 147.944 25.24 146.621 25.332 C 145.312 25.278 144.024 25.673 142.971 26.452 C 142.08 27.069 141.543 28.079 141.531 29.162 L 139.421 29.162 C 139.451 27.589 140.236 26.127 141.531 25.232 C 143.015 24.099 144.844 23.512 146.711 23.572 C 148.516 23.473 150.295 24.039 151.711 25.162 C 152.971 26.287 153.663 27.915 153.601 29.602 L 153.601 38.602 C 153.536 40.003 153.733 41.404 154.181 42.732 L 154.181 42.922 L 151.911 42.922 Z M 145.301 41.412 C 146.627 41.443 147.934 41.096 149.071 40.412 C 150.14 39.778 150.985 38.828 151.491 37.692 L 151.491 33.482 L 147.731 33.482 C 146.017 33.415 144.317 33.812 142.811 34.632 C 141.698 35.25 141.014 36.43 141.031 37.702 C 141.011 38.722 141.447 39.698 142.221 40.362 C 143.08 41.086 144.179 41.461 145.301 41.412 Z"></path>
    <path class="cls-3" d="M21.36,32.09V2.54a1.28,1.28,0,0,0-2.19-.91L1.25,19.54,19.17,37.46a1.29,1.29,0,0,0,2.19-.91V32.09Z"></path>
    <path class="cls-3" d="M45,26.72a1.28,1.28,0,0,0-2.19.91v34a1.28,1.28,0,0,0,2.19.91L62.93,44.64Z"></path>
    <circle class="cls-4" cx="57.18" cy="7" r="3.01"></circle>
    <circle class="cls-5" cx="21.36" cy="22.39" r="3.01"></circle>
    <circle class="cls-6" cx="42.82" cy="43.46" r="3.01"></circle>
    <circle class="cls-7" cx="7" cy="57.19" r="3.01"></circle>
    <path d="M47.77,8.25h5.34a4.27,4.27,0,1,0,0-2.51H47.77a1.26,1.26,0,0,0,0,2.51Zm9.41-3a1.76,1.76,0,1,1-1.74,2,1.23,1.23,0,0,0,0-.19,1.36,1.36,0,0,0,0-.2A1.76,1.76,0,0,1,57.18,5.24Z"></path>
    <path d="M43,8.25A1.25,1.25,0,0,0,44.27,7a1.27,1.27,0,0,0-.36-.89,1.26,1.26,0,0,0-1.78,0,1.27,1.27,0,0,0-.36.89A1.25,1.25,0,0,0,43,8.25Z"></path>
    <path d="M63.81,43.75,45.9,25.84a2.53,2.53,0,0,0-4.33,1.79v3.21h-19V26.46a4.26,4.26,0,1,0-2.5,0V36.55h0l0,0s0,0,0,0l-17-17,17-17h0s0,0,0,0a0,0,0,0,1,0,0V7a1.25,1.25,0,0,0,1.25,1.25H37.87a1.26,1.26,0,0,0,0-2.51H22.61V2.54A2.54,2.54,0,0,0,18.28.74L.37,18.66a1.25,1.25,0,0,0,0,1.77L18.28,38.34a2.53,2.53,0,0,0,4.33-1.79V33.34h19v6a4.27,4.27,0,1,0,2.51,0V27.63h0l0,0s0,0,0,0l17,17-17,17h0s0,0,0,0V57.18a1.25,1.25,0,0,0-1.25-1.25H21.06a1.26,1.26,0,0,0,0,2.51H41.57v3.2A2.52,2.52,0,0,0,43.13,64a2.42,2.42,0,0,0,1,.2,2.52,2.52,0,0,0,1.79-.75L63.81,45.52A1.25,1.25,0,0,0,63.81,43.75ZM21.36,20.63a1.76,1.76,0,1,1-1.76,1.76A1.75,1.75,0,0,1,21.36,20.63ZM42.82,45.22a1.76,1.76,0,1,1,1.75-1.76A1.76,1.76,0,0,1,42.82,45.22Z"></path>
    <path d="M15.33,55.93a1.26,1.26,0,0,0-1.25,1.25,1.24,1.24,0,0,0,.37.89,1.24,1.24,0,0,0,1.77,0,1.28,1.28,0,0,0,.37-.89,1.26,1.26,0,0,0-.37-.88A1.22,1.22,0,0,0,15.33,55.93Z"></path>
    <path d="M7,52.92a4.27,4.27,0,1,0,4.26,4.27A4.28,4.28,0,0,0,7,52.92Zm0,6a1.76,1.76,0,1,1,1.75-1.75A1.76,1.76,0,0,1,7,58.94Z"></path>
    <path d="M30.16,12a1.25,1.25,0,0,0,1.25,1.26H45.54a1.26,1.26,0,1,0,0-2.51H31.41A1.25,1.25,0,0,0,30.16,12Z"></path>
    <path d="M39.34,53.4a1.26,1.26,0,0,0,0-2.51H25.2a1.26,1.26,0,0,0,0,2.51Z"></path>
</svg>
